<svg width="1440" height="122" viewBox="0 0 1440 122" fill="none" xmlns="http://www.w3.org/2000/svg">
<rect x="21.8182" y="73.1973" width="43.6364" height="24" fill="#3B322C" stroke="#F5F1E8"/>
<rect x="370.909" y="73.1973" width="43.6364" height="24" fill="#3B322C" stroke="#F5F1E8"/>
<rect x="807.273" y="73.1973" width="43.6364" height="24" fill="#3B322C" stroke="#F5F1E8"/>
<rect x="196.364" y="73.1973" width="43.6364" height="24" fill="#3B322C" stroke="#F5F1E8"/>
<rect x="545.455" y="73.1973" width="43.6364" height="24" fill="#3B322C" stroke="#F5F1E8"/>
<rect x="981.818" y="73.1973" width="43.6364" height="24" fill="#3B322C" stroke="#F5F1E8"/>
<rect x="458.182" y="73.1973" width="43.6364" height="24" fill="#3B322C" stroke="#F5F1E8"/>
<rect x="894.545" y="73.1973" width="43.6364" height="24" fill="#3B322C" stroke="#F5F1E8"/>
<rect x="283.636" y="73.1973" width="43.6364" height="24" fill="#3B322C" stroke="#F5F1E8"/>
<rect x="720" y="73.1973" width="43.6364" height="24" fill="#3B322C" stroke="#F5F1E8"/>
<rect x="632.727" y="73.1973" width="43.6364" height="24" fill="#3B322C" stroke="#F5F1E8"/>
<rect x="1069.09" y="73.1973" width="43.6364" height="24" fill="#3B322C" stroke="#F5F1E8"/>
<rect x="1112.73" y="73.1973" width="43.6364" height="24" fill="#3B322C" stroke="#F5F1E8"/>
<rect x="1287.27" y="73.1973" width="43.6364" height="24" fill="#3B322C" stroke="#F5F1E8"/>
<rect x="65.4546" y="73.1973" width="43.6364" height="24" fill="#3B322C" stroke="#F5F1E8"/>
<rect x="414.545" y="73.1973" width="43.6364" height="24" fill="#3B322C" stroke="#F5F1E8"/>
<rect x="850.909" y="73.1973" width="43.6364" height="24" fill="#3B322C" stroke="#F5F1E8"/>
<rect x="240" y="73.1973" width="43.6364" height="24" fill="#3B322C" stroke="#F5F1E8"/>
<rect x="589.091" y="73.1973" width="43.6364" height="24" fill="#3B322C" stroke="#F5F1E8"/>
<rect x="1025.45" y="73.1973" width="43.6364" height="24" fill="#3B322C" stroke="#F5F1E8"/>
<rect x="152.727" y="73.1973" width="43.6364" height="24" fill="#3B322C" stroke="#F5F1E8"/>
<rect x="109.091" y="73.1973" width="43.6364" height="24" fill="#3B322C" stroke="#F5F1E8"/>
<rect x="501.818" y="73.1973" width="43.6364" height="24" fill="#3B322C" stroke="#F5F1E8"/>
<rect x="938.182" y="73.1973" width="43.6364" height="24" fill="#3B322C" stroke="#F5F1E8"/>
<rect x="327.273" y="73.1973" width="43.6364" height="24" fill="#3B322C" stroke="#F5F1E8"/>
<rect x="763.636" y="73.1973" width="43.6364" height="24" fill="#3B322C" stroke="#F5F1E8"/>
<rect x="676.364" y="73.1973" width="43.6364" height="24" fill="#3B322C" stroke="#F5F1E8"/>
<rect x="1156.36" y="73.1973" width="43.6364" height="24" fill="#3B322C" stroke="#F5F1E8"/>
<rect x="1330.91" y="73.1973" width="43.6364" height="24" fill="#3B322C" stroke="#F5F1E8"/>
<rect x="1200" y="73.1973" width="43.6364" height="24" fill="#3B322C" stroke="#F5F1E8"/>
<rect x="1374.55" y="73.1973" width="43.6364" height="24" fill="#3B322C" stroke="#F5F1E8"/>
<rect x="1243.64" y="73.1973" width="43.6364" height="24" fill="#3B322C" stroke="#F5F1E8"/>
<rect x="349.091" y="49.1973" width="43.6364" height="24" fill="#3B322C" stroke="#F5F1E8"/>
<rect x="785.455" y="49.1973" width="43.6364" height="24" fill="#3B322C" stroke="#F5F1E8"/>
<rect x="174.545" y="49.1973" width="43.6364" height="24" fill="#3B322C" stroke="#F5F1E8"/>
<rect x="523.636" y="49.1973" width="43.6364" height="24" fill="#3B322C" stroke="#F5F1E8"/>
<rect x="960" y="49.1973" width="43.6364" height="24" fill="#3B322C" stroke="#F5F1E8"/>
<rect x="436.364" y="49.1973" width="43.6364" height="24" fill="#3B322C" stroke="#F5F1E8"/>
<rect x="872.727" y="49.1973" width="43.6364" height="24" fill="#3B322C" stroke="#F5F1E8"/>
<rect x="261.818" y="49.1973" width="43.6364" height="24" fill="#3B322C" stroke="#F5F1E8"/>
<rect x="698.182" y="49.1973" width="43.6364" height="24" fill="#3B322C" stroke="#F5F1E8"/>
<rect x="610.909" y="49.1973" width="43.6364" height="24" fill="#3B322C" stroke="#F5F1E8"/>
<rect x="1058.08" y="25.1973" width="43.6364" height="24" transform="rotate(42.071 1058.08 25.1973)" fill="#3B322C" stroke="#F5F1E8"/>
<rect x="1090.91" y="49.1973" width="43.6364" height="24" fill="#3B322C" stroke="#F5F1E8"/>
<rect x="392.727" y="49.1973" width="43.6364" height="24" fill="#3B322C" stroke="#F5F1E8"/>
<rect x="829.091" y="49.1973" width="43.6364" height="24" fill="#3B322C" stroke="#F5F1E8"/>
<rect x="218.182" y="49.1973" width="43.6364" height="24" fill="#3B322C" stroke="#F5F1E8"/>
<rect x="567.273" y="49.1973" width="43.6364" height="24" fill="#3B322C" stroke="#F5F1E8"/>
<rect x="1003.64" y="49.1973" width="43.6364" height="24" fill="#3B322C" stroke="#F5F1E8"/>
<rect x="130.909" y="49.1973" width="43.6364" height="24" fill="#3B322C" stroke="#F5F1E8"/>
<rect x="87.2727" y="49.1973" width="43.6364" height="24" fill="#3B322C" stroke="#F5F1E8"/>
<rect x="43" y="53.8662" width="43.6364" height="24" transform="rotate(-39.3517 43 53.8662)" fill="#3B322C" stroke="#F5F1E8"/>
<rect x="480" y="49.1973" width="43.6364" height="24" fill="#3B322C" stroke="#F5F1E8"/>
<rect x="916.364" y="49.1973" width="43.6364" height="24" fill="#3B322C" stroke="#F5F1E8"/>
<rect x="305.455" y="49.1973" width="43.6364" height="24" fill="#3B322C" stroke="#F5F1E8"/>
<rect x="741.818" y="49.1973" width="43.6364" height="24" fill="#3B322C" stroke="#F5F1E8"/>
<rect x="654.545" y="49.1973" width="43.6364" height="24" fill="#3B322C" stroke="#F5F1E8"/>
<rect x="1134.55" y="49.1973" width="43.6364" height="24" fill="#3B322C" stroke="#F5F1E8"/>
<rect x="1309.09" y="49.1973" width="43.6364" height="24" fill="#3B322C" stroke="#F5F1E8"/>
<rect x="1352.73" y="49.1973" width="43.6364" height="24" fill="#3B322C" stroke="#F5F1E8"/>
<rect x="1221.82" y="49.1973" width="43.6364" height="24" fill="#3B322C" stroke="#F5F1E8"/>
<rect x="1265.45" y="49.1973" width="43.6364" height="24" fill="#3B322C" stroke="#F5F1E8"/>
<rect y="97.1973" width="43.6364" height="24" fill="#3B322C" stroke="#F5F1E8"/>
<rect x="349.091" y="97.1973" width="43.6364" height="24" fill="#3B322C" stroke="#F5F1E8"/>
<rect x="785.455" y="97.1973" width="43.6364" height="24" fill="#3B322C" stroke="#F5F1E8"/>
<rect x="174.545" y="97.1973" width="43.6364" height="24" fill="#3B322C" stroke="#F5F1E8"/>
<rect x="523.636" y="97.1973" width="43.6364" height="24" fill="#3B322C" stroke="#F5F1E8"/>
<rect x="960" y="97.1973" width="43.6364" height="24" fill="#3B322C" stroke="#F5F1E8"/>
<rect x="436.364" y="97.1973" width="43.6364" height="24" fill="#3B322C" stroke="#F5F1E8"/>
<rect x="872.727" y="97.1973" width="43.6364" height="24" fill="#3B322C" stroke="#F5F1E8"/>
<rect x="261.818" y="97.1973" width="43.6364" height="24" fill="#3B322C" stroke="#F5F1E8"/>
<rect x="698.182" y="97.1973" width="43.6364" height="24" fill="#3B322C" stroke="#F5F1E8"/>
<rect x="610.909" y="97.1973" width="43.6364" height="24" fill="#3B322C" stroke="#F5F1E8"/>
<rect x="1047.27" y="97.1973" width="43.6364" height="24" fill="#3B322C" stroke="#F5F1E8"/>
<rect x="1090.91" y="97.1973" width="43.6364" height="24" fill="#3B322C" stroke="#F5F1E8"/>
<rect x="43.6364" y="97.1973" width="43.6364" height="24" fill="#3B322C" stroke="#F5F1E8"/>
<rect x="392.727" y="97.1973" width="43.6364" height="24" fill="#3B322C" stroke="#F5F1E8"/>
<rect x="829.091" y="97.1973" width="43.6364" height="24" fill="#3B322C" stroke="#F5F1E8"/>
<rect x="218.182" y="97.1973" width="43.6364" height="24" fill="#3B322C" stroke="#F5F1E8"/>
<rect x="567.273" y="97.1973" width="43.6364" height="24" fill="#3B322C" stroke="#F5F1E8"/>
<rect x="1003.64" y="97.1973" width="43.6364" height="24" fill="#3B322C" stroke="#F5F1E8"/>
<rect x="130.909" y="97.1973" width="43.6364" height="24" fill="#3B322C" stroke="#F5F1E8"/>
<rect x="87.2727" y="97.1973" width="43.6364" height="24" fill="#3B322C" stroke="#F5F1E8"/>
<rect x="480" y="97.1973" width="43.6364" height="24" fill="#3B322C" stroke="#F5F1E8"/>
<rect x="916.364" y="97.1973" width="43.6364" height="24" fill="#3B322C" stroke="#F5F1E8"/>
<rect x="305.455" y="97.1973" width="43.6364" height="24" fill="#3B322C" stroke="#F5F1E8"/>
<rect x="741.818" y="97.1973" width="43.6364" height="24" fill="#3B322C" stroke="#F5F1E8"/>
<rect x="654.545" y="97.1973" width="43.6364" height="24" fill="#3B322C" stroke="#F5F1E8"/>
<rect x="1134.55" y="97.1973" width="43.6364" height="24" fill="#3B322C" stroke="#F5F1E8"/>
<rect x="1309.09" y="97.1973" width="43.6364" height="24" fill="#3B322C" stroke="#F5F1E8"/>
<rect x="1178.18" y="97.1973" width="43.6364" height="24" fill="#3B322C" stroke="#F5F1E8"/>
<rect x="1352.73" y="97.1973" width="43.6364" height="24" fill="#3B322C" stroke="#F5F1E8"/>
<rect x="1221.82" y="97.1973" width="43.6364" height="24" fill="#3B322C" stroke="#F5F1E8"/>
<rect x="1396.36" y="97.1973" width="43.6364" height="24" fill="#3B322C" stroke="#F5F1E8"/>
<rect x="1265.45" y="97.1973" width="43.6364" height="24" fill="#3B322C" stroke="#F5F1E8"/>
<rect x="373" y="25.1973" width="43.6364" height="24" fill="#3B322C" stroke="#F5F1E8"/>
<rect x="545.455" y="25.1973" width="43.6364" height="24" fill="#3B322C" stroke="#F5F1E8"/>
<rect x="981.818" y="25.1973" width="43.6364" height="24" fill="#3B322C" stroke="#F5F1E8"/>
<rect x="461.45" y="32.2119" width="43.6364" height="24" transform="rotate(-46.2191 461.45 32.2119)" fill="#3B322C" stroke="#F5F1E8"/>
<rect x="720" y="25.1973" width="43.6364" height="24" fill="#3B322C" stroke="#F5F1E8"/>
<rect x="1112.73" y="25.1973" width="43.6364" height="24" fill="#3B322C" stroke="#F5F1E8"/>
<rect x="1287.27" y="25.1973" width="43.6364" height="24" fill="#3B322C" stroke="#F5F1E8"/>
<rect x="850.909" y="25.1973" width="43.6364" height="24" fill="#3B322C" stroke="#F5F1E8"/>
<rect x="241" y="25.1973" width="43.6364" height="24" fill="#3B322C" stroke="#F5F1E8"/>
<rect x="285" y="25.1973" width="43.6364" height="24" fill="#3B322C" stroke="#F5F1E8"/>
<rect x="152.727" y="25.1973" width="43.6364" height="24" fill="#3B322C" stroke="#F5F1E8"/>
<rect x="501.818" y="25.1973" width="43.6364" height="24" fill="#3B322C" stroke="#F5F1E8"/>
<rect x="938.182" y="25.1973" width="43.6364" height="24" fill="#3B322C" stroke="#F5F1E8"/>
<rect x="1330.91" y="25.1973" width="43.6364" height="24" fill="#3B322C" stroke="#F5F1E8"/>
</svg>
