<?xml version="1.0" encoding="UTF-8"?><svg id="_レイヤー_1" xmlns="http://www.w3.org/2000/svg" viewBox="0 0 335.651 279.984"><defs><style>.cls-1,.cls-2,.cls-3,.cls-4,.cls-5{fill:none;}.cls-6{fill:#f5f5ee;}.cls-7{fill:#b16239;}.cls-8{fill:#f7c43b;}.cls-2{stroke:#000;}.cls-2,.cls-3,.cls-4,.cls-5{stroke-linecap:round;stroke-linejoin:round;stroke-width:2px;}.cls-9{fill:#d8d8d4;}.cls-10{fill:#fdfcfc;}.cls-11{fill:#fff;}.cls-12{fill:#a6b791;}.cls-13{fill:#dcc9aa;}.cls-3{stroke:#443931;}.cls-14{fill:#889eab;}.cls-4{stroke:#3d201e;}.cls-15{fill:#f7844f;}.cls-16{fill:#902f31;}.cls-17{fill:#e5be43;}.cls-5{stroke:#55e400;}.cls-18{fill:#f5f2e9;}</style></defs><polygon class="cls-18" points="299.734 109.874 194.773 94.107 209.957 87.49 315.45 103.682 299.734 109.874"/><polygon class="cls-6" points="315.441 115.627 299.724 123.93 299.734 109.874 315.45 103.682 315.441 115.627"/><polygon class="cls-18" points="315.441 189.218 299.724 196.967 299.734 123.46 315.45 115.156 315.441 189.218"/><polygon class="cls-18" points="299.734 196.996 286.877 194.256 286.877 121.56 299.734 123.93 299.734 196.996"/><polygon class="cls-18" points="224.312 173.966 208.595 181.715 208.605 108.208 224.321 99.905 224.312 173.966"/><polygon class="cls-18" points="208.605 181.744 195.748 179.004 195.748 106.308 208.605 108.679 208.605 181.744"/><rect class="cls-16" x="197.802" y="36.357" width="8.75" height="68.843" transform="translate(42.594 -72.114) rotate(22.547)"/><rect class="cls-16" x="187.929" y="33.762" width="8.941" height="20.139" rx="3" ry="3" transform="translate(31.513 -70.425) rotate(22.547)"/><path class="cls-17" d="M18,214.551h83.069c9.383,0,17,7.617,17,17v16c0,14.35-11.65,26-26,26H18c-8.831,0-16-7.169-16-16v-27c0-8.831,7.169-16,16-16Z"/><path class="cls-7" d="M38.564,273.551h0s7,0,7,0v-9.583c0-3.866-3.134-7-7-7h0s0-32.417,0-32.417c0-5.523-4.477-10-10-10h-13.314s0,59,0,59h23.314Z"/><path class="cls-17" d="M28.301,182.619s32.234,1.266,36.401.766,12.286-2.167,16.809-4.667c4.524-2.5,11.19-8.5,18.19-12.833s24.87-15.161,48.018-15.164c19.698,0,35.667,15.968,35.667,35.667,0,4.239-.74,8.306-2.097,12.077l-14.759,48.405h-53.325l15-48.319-.329.046c-8.409,18.241-26.516,30.86-47.497,30.86-26.684,0-48.73-20.411-52.078-46.839Z"/><path class="cls-11" d="M28.3,182.619s32.234,1.266,36.401.766,12.286-2.167,16.809-4.667c4.524-2.5,11.19-8.5,18.19-12.833,3.172-1.963,8.575-5.26,15.69-8.279l3.095-14.691c7.392,4.936,16.227,7.806,25.718,7.806,21.121,0,38.992-14.212,44.952-33.786,0,0-3.629-6.884-7.625-11.55-3.996-4.667-10.996-12.667-10.996-12.667l-25.114,17.156h0c-5.897-22.24-19.37-38.821-37.866-43.167-31.814-7.475-66.442,24.08-77.344,70.48-3.739,15.915-4.201,31.509-1.911,45.432h0Z"/><path class="cls-5" d="M109.204,267.296c-5.008,3.919-11.314,6.255-18.165,6.255H18c-8.837,0-16-7.163-16-16v-27c0-8.837,7.163-16,16-16h26.117"/><rect class="cls-14" x="268.591" y="237.44" width="61.555" height="37.111" rx="4" ry="4"/><path class="cls-14" d="M281.383,237.44v-8.654c0-4.418,3.582-8,8-8h19.971c4.418,0,8,3.582,8,8v8.654M310.869,237.44v-6.139c0-2.761-2.239-5-5-5h-13c-2.761,0-5,2.239-5,5v6.139"/><path class="cls-14" d="M291.744,247.218h15.25v6.25c0,1.104-.896,2-2,2h-11.25c-1.104,0-2-.896-2-2v-6.25h0Z"/><path class="cls-2" d="M112.043,218.567c3.604,3.049,5.921,7.571,6.023,12.637"/><path class="cls-10" d="M183.72,110.101c4.163,5.179,12.793,5.153,19.276-.058,6.178-4.967,8.223-12.779,4.792-17.992l-.046-.07c-.224-2.82-1.245-5.561-3.11-7.882-1.866-2.321-4.324-3.906-7.029-4.731-4.354-4.469-12.482-4.213-18.66.753-6.482,5.211-8.362,13.634-4.199,18.813l8.976,11.166Z"/><polygon class="cls-3" points="299.734 109.874 194.773 94.107 209.957 87.49 315.45 103.682 299.734 109.874"/><polygon class="cls-3" points="315.441 115.627 299.724 123.93 299.734 109.874 315.45 103.682 315.441 115.627"/><polygon class="cls-3" points="315.441 189.218 299.724 196.967 299.734 123.46 315.45 115.156 315.441 189.218"/><polygon class="cls-3" points="299.734 196.996 286.877 194.256 286.877 121.56 299.734 123.93 299.734 196.996"/><polygon class="cls-3" points="224.312 173.966 208.595 181.715 208.605 108.208 224.321 99.905 224.312 173.966"/><polygon class="cls-3" points="208.605 181.744 195.748 179.004 195.748 106.308 208.605 108.679 208.605 181.744"/><rect class="cls-3" x="197.802" y="36.357" width="8.75" height="68.843" transform="translate(42.594 -72.114) rotate(22.547)"/><path class="cls-3" d="M97.769,110.54c3.69,22.796,23.075,40.18,46.435,40.18,21.121,0,38.992-14.212,44.952-33.786,0,0-3.629-6.884-7.625-11.55-3.996-4.667-10.996-12.667-10.996-12.667l-25.113,17.155c-5.897-22.239-19.37-38.821-37.866-43.167-31.814-7.475-66.442,24.08-77.344,70.48-3.739,15.915-4.201,31.509-1.911,45.432h0s32.234,1.266,36.401.766,12.286-2.167,16.809-4.667c4.524-2.5,11.19-8.5,18.19-12.833,3.172-1.963,8.575-5.26,15.69-8.279l3.095-13.999"/><path class="cls-3" d="M28.301,182.619s32.234,1.266,36.401.766,12.286-2.167,16.809-4.667c4.524-2.5,11.19-8.5,18.19-12.833s24.87-15.161,48.018-15.164c19.698,0,35.667,15.968,35.667,35.667,0,4.239-.74,8.306-2.097,12.077l-14.759,48.405h-53.325l15-48.319-.329.046c-8.409,18.241-26.516,30.86-47.497,30.86-26.684,0-48.73-20.411-52.078-46.839Z"/><path class="cls-3" d="M118.069,246.87v.681c0,14.359-11.641,26-26,26H18c-8.837,0-16-7.163-16-16v-27c0-8.837,7.163-16,16-16h26.117"/><path class="cls-3" d="M38.564,273.551h0s7,0,7,0v-9.583c0-3.866-3.134-7-7-7h0s0-32.417,0-32.417c0-5.523-4.477-10-10-10h-13.314s0,59,0,59h23.314Z"/><path class="cls-3" d="M246.208,180.679c-3.517,6.925-6.819,14.029-8.788,21.569-2.043,7.826-2.213,16.007-2.385,24.052"/><path class="cls-3" d="M236.739,180.099c2.843,4.101,2.76,9.814,3.11,14.598"/><path class="cls-3" d="M242.766,206.82c-3.141,2.315-5.863,4.885-7.315,8.404"/><rect class="cls-3" x="268.591" y="237.44" width="61.555" height="37.111" rx="4" ry="4"/><path class="cls-3" d="M281.383,237.44v-8.654c0-4.418,3.582-8,8-8h19.971c4.418,0,8,3.582,8,8v8.654M310.869,237.44v-6.139c0-2.761-2.239-5-5-5h-13c-2.761,0-5,2.239-5,5v6.139"/><line class="cls-3" x1="268.799" y1="247.218" x2="329.938" y2="247.218"/><path class="cls-3" d="M291.744,247.218h15.25v6.25c0,1.104-.896,2-2,2h-11.25c-1.104,0-2-.896-2-2v-6.25h0Z"/><path class="cls-3" d="M228.865,208.385c3.074,2.864,4.738,6.377,6.336,10.182"/><polygon class="cls-18" points="299.724 123.93 203.831 108.17 194.773 94.107 299.734 109.874 299.724 123.93"/><path class="cls-7" d="M124.202,246.87h38.652c12.518,0,22.681,10.163,22.681,22.681h0c0,2.208-1.792,4-4,4h-72.333v-11.681c0-8.279,6.721-15,15-15Z"/><path class="cls-4" d="M18,214.551h0c4.037,0,7.314,3.277,7.314,7.314v44.372c0,4.037-3.277,7.314-7.314,7.314h0c-8.831,0-16-7.169-16-16v-27c0-8.831,7.169-16,16-16Z"/><path class="cls-9" d="M18,214.551h0c4.037,0,7.314,3.277,7.314,7.314v44.372c0,4.037-3.277,7.314-7.314,7.314h0c-8.831,0-16-7.169-16-16v-27c0-8.831,7.169-16,16-16Z"/><path class="cls-13" d="M225.695,49.988l8.705.378c1.33.552,1.893,2.24,1.258,3.77l-5.421,13.058c-.635,1.53-2.228,2.323-3.558,1.771l-6.412-5.901"/><path class="cls-13" d="M220.266,63.067c-3.723-.672-8.254-.97-12.491-2.729-5.658-2.349-10.525-5.262-14.016-8.193l5.489-13.221c4.54.403,10.039,1.794,15.698,4.143,4.237,1.759,7.647,4.758,10.751,6.92"/><ellipse class="cls-12" cx="213.786" cy="200.041" rx="11.378" ry="18.375" transform="translate(-66.347 285.165) rotate(-60)"/><ellipse class="cls-12" cx="258.926" cy="203.398" rx="16.518" ry="10.577" transform="translate(-36.522 58.058) rotate(-11.957)"/><ellipse class="cls-12" cx="223.166" cy="162.051" rx="13.583" ry="22.729" transform="translate(-51.999 143.396) rotate(-32.107)"/><ellipse class="cls-12" cx="264.806" cy="169.009" rx="21.957" ry="13.195" transform="translate(-49.329 166.592) rotate(-32.107)"/><rect class="cls-16" x="210.035" y="225.051" width="50" height="14.333"/><polygon class="cls-16" points="251.368 274.551 219.035 274.551 213.035 239.385 257.368 239.385 251.368 274.551"/><path class="cls-6" d="M121.97,28.914l32.419,2.772c4.185.358,7.869-2.745,8.226-6.931l.115-1.346c.358-4.185-2.745-7.869-6.931-8.226l-13.845-1.184-19.984,14.916Z"/><path class="cls-6" d="M121.97,28.914l32.419,2.772c4.185.358,7.869-2.745,8.226-6.931l.115-1.346c.358-4.185-2.745-7.869-6.931-8.226l-13.845-1.184-19.984,14.916Z"/><path class="cls-8" d="M121.97,28.914l32.419,2.772c4.185.358,7.869-2.745,8.226-6.931l.115-1.346c.358-4.185-2.745-7.869-6.931-8.226l-13.845-1.184-19.984,14.916Z"/><path class="cls-1" d="M121.97,28.914l32.419,2.772c4.185.358,7.869-2.745,8.226-6.931l.115-1.346c.358-4.185-2.745-7.869-6.931-8.226l-13.845-1.184-19.984,14.916Z"/><path class="cls-15" d="M121.97,28.914l32.419,2.772c4.185.358,7.869-2.745,8.226-6.931l.115-1.346c.358-4.185-2.745-7.869-6.931-8.226l-13.845-1.184-19.984,14.916Z"/><polygon class="cls-3" points="299.724 123.93 203.831 108.17 194.773 94.107 299.734 109.874 299.724 123.93"/><path class="cls-3" d="M124.202,246.87h38.652c12.518,0,22.681,10.163,22.681,22.681h0c0,2.208-1.792,4-4,4h-72.333v-11.681c0-8.279,6.721-15,15-15Z"/><path class="cls-3" d="M18,214.551h0c4.037,0,7.314,3.277,7.314,7.314v44.372c0,4.037-3.277,7.314-7.314,7.314h0c-8.831,0-16-7.169-16-16v-27c0-8.831,7.169-16,16-16Z"/><path class="cls-3" d="M225.695,49.988l8.705.378c1.33.552,1.893,2.24,1.258,3.77l-5.421,13.058c-.635,1.53-2.228,2.323-3.558,1.771l-6.412-5.901"/><path class="cls-3" d="M220.266,63.067c-3.723-.672-8.254-.97-12.491-2.729-5.658-2.349-10.525-5.262-14.016-8.193l5.489-13.221c4.54.403,10.039,1.794,15.698,4.143,4.237,1.759,7.647,4.758,10.751,6.92"/><rect class="cls-3" x="187.929" y="33.762" width="8.941" height="20.139" rx="4" ry="4" transform="translate(31.513 -70.425) rotate(22.547)"/><ellipse class="cls-3" cx="223.166" cy="162.051" rx="13.583" ry="22.729" transform="translate(-51.999 143.396) rotate(-32.107)"/><ellipse class="cls-3" cx="264.806" cy="169.009" rx="21.957" ry="13.195" transform="translate(-49.329 166.592) rotate(-32.107)"/><ellipse class="cls-3" cx="258.926" cy="203.398" rx="16.518" ry="10.577" transform="translate(-36.522 58.058) rotate(-11.957)"/><ellipse class="cls-3" cx="213.786" cy="200.041" rx="11.378" ry="18.375" transform="translate(-66.347 285.165) rotate(-60)"/><rect class="cls-3" x="210.035" y="225.051" width="50" height="14.333"/><polygon class="cls-3" points="251.368 274.551 219.035 274.551 213.035 239.385 257.368 239.385 251.368 274.551"/><path class="cls-3" d="M121.97,28.914l32.419,2.772c4.185.358,7.869-2.745,8.226-6.931l.115-1.346c.358-4.185-2.745-7.869-6.931-8.226l-13.845-1.184-19.984,14.916Z"/><path class="cls-18" d="M183.72,110.101c4.163,5.179,12.793,5.153,19.276-.058,6.178-4.967,8.223-12.779,4.792-17.992l-.046-.07c-.224-2.82-1.245-5.561-3.11-7.882-1.866-2.321-4.324-3.906-7.029-4.731-4.354-4.469-12.482-4.213-18.66.753-6.482,5.211-8.362,13.634-4.199,18.813l8.976,11.166Z"/><circle class="cls-18" cx="116.558" cy="34.899" r="32.89"/><path class="cls-6" d="M84.952,25.749C89.217,10.968,103.449.766,119.359,2.127c15.91,1.36,28.204,13.83,29.898,29.12l-64.305-5.498Z"/><path class="cls-15" d="M84.952,25.749C89.217,10.968,103.449.766,119.359,2.127c15.91,1.36,28.204,13.83,29.898,29.12l-64.305-5.498Z"/><path class="cls-16" d="M104.014,45.45c-3.578-1.811-5.072-6.215-3.261-9.793,1.811-3.578,6.248-4.989,9.826-3.177l2.209-4.365-27.752-2.617c-2.97,9.918-1.017,20.502,4.838,28.639l14.141-8.686Z"/><circle class="cls-4" cx="116.558" cy="34.899" r="32.89"/><path class="cls-4" d="M84.952,25.749C89.217,10.968,103.449.766,119.359,2.127c15.91,1.36,28.204,13.83,29.898,29.12l-64.305-5.498Z"/><path class="cls-3" d="M183.72,110.101c4.163,5.179,12.793,5.153,19.276-.058,6.178-4.967,8.223-12.779,4.792-17.992l-.046-.07c-.224-2.82-1.245-5.561-3.11-7.882-1.866-2.321-4.324-3.906-7.029-4.731-4.354-4.469-12.482-4.213-18.66.753-6.482,5.211-8.362,13.634-4.199,18.813l8.976,11.166Z"/><path class="cls-3" d="M104.014,45.45c-3.578-1.811-5.072-6.215-3.261-9.793,1.811-3.578,6.248-4.989,9.826-3.177l2.209-4.365-27.752-2.617c-2.97,9.918-1.017,20.502,4.838,28.639l14.141-8.686Z"/></svg>