<?xml version="1.0" encoding="UTF-8"?><svg id="_レイヤー_1" xmlns="http://www.w3.org/2000/svg" viewBox="0 0 651.447 555.984"><defs><style>.cls-1{fill:#f5f5ee;}.cls-2{fill:#b16239;}.cls-3{fill:#f7c43b;}.cls-4{fill:#d8d8d4;}.cls-5{fill:#443931;}.cls-6{fill:#fff;}.cls-7{fill:#a6b791;}.cls-8{fill:#dcc9aa;}.cls-9{fill:none;stroke:#443931;stroke-linecap:round;stroke-linejoin:round;stroke-width:2px;}.cls-10{fill:#889eab;}.cls-11{fill:#f7844f;}.cls-12{fill:#e5be43;}.cls-13{fill:#f5f2e9;}</style></defs><polyline class="cls-2" points="338.215 100.186 338.215 69.728 377.12 69.728 377.12 100.187"/><polygon class="cls-10" points="74.48 174.55 49.162 174.55 42.218 263.284 76.999 263.284 81.36 207.551 92.979 263.284 126.455 259.414 108.763 174.55 74.48 174.55"/><path class="cls-1" d="M98.161,278.416h33.922c3.767,0,6.821-3.156,6.821-7.049h0c0-6.338-4.972-11.476-11.105-11.476l-34.133,3.392,2.979,13.566c0,.865.679,1.566,1.516,1.566Z"/><path class="cls-1" d="M43.747,278.416h34.552c3.767,0,6.821-2.578,6.821-5.758h0c0-5.177-4.972-9.374-11.105-9.374h-31.026s-.758,13.853-.758,13.853c0,.707.679,1.28,1.516,1.28Z"/><path class="cls-12" d="M98.161,278.416h33.922c3.767,0,6.821-3.156,6.821-7.049h0c0-6.338-4.972-11.476-11.105-11.476l-34.133,3.392,2.979,13.566c0,.865.679,1.566,1.516,1.566Z"/><path class="cls-12" d="M43.747,278.416h34.552c3.767,0,6.821-2.578,6.821-5.758h0c0-5.177-4.972-9.374-11.105-9.374h-31.026s-.758,13.853-.758,13.853c0,.707.679,1.28,1.516,1.28Z"/><path class="cls-13" d="M28.132,105.531c.292.017.378-.009.671-.076h0c2.012-.458,3.192-2.813,2.635-5.259l-3.362-14.759c-.557-2.446-2.64-4.057-4.653-3.599h0c-2.012.458-3.192,2.813-2.635,5.259l.226.991-3.967-4.463c-3.807-4.284-9.555-4.36-12.838-.171h0c-3.283,4.19-2.859,11.058.949,15.342l8.374,9.423c3.807,4.284,9.555,4.36,12.838.171h0c.672-.857,1.397-1.823,1.761-2.859h0Z"/><polygon class="cls-1" points="109.094 152.95 91.594 152.95 89.594 126.417 111.094 126.417 109.094 152.95"/><rect class="cls-8" x="152.149" y="260.141" width="49.333" height="49.333"/><path class="cls-7" d="M231.081,296.974h28.402c7.819,0,14.167,6.348,14.167,14.167h0c0,2.208-1.792,4-4,4h-34.568c-2.208,0-4-1.792-4-4v-14.167h0Z"/><path class="cls-6" d="M223.629,230.362c4.25.048,8.535.321,12.738.959,11.544,1.752,18.013,10.744,19.494,21.784.741,5.524.525,11.155.882,16.689.378,5.859.838,11.712,1.181,17.572.187,3.203.374,6.405.558,9.608h-29.333s-1.461-35.832-1.461-35.832"/><path class="cls-4" d="M186.367,475.593s-1.778,12.889,4.889,19.556c4.645,4.645,9.226,7.858,15.664,9.234,7.144,1.526,14.484,1.904,21.771,1.861,20.3-.118,40.578-3.49,59.824-9.948,2.1-.705,4.207-1.455,6.092-2.618,11.758-7.251,8.408-30.82-6.908-29.863-4.253.266-8.26,2.661-12.365,3.633-5.436,1.287-11.391,1.7-16.969,1.7-3.309,0-5.658-2.204-9.086-1.29-2.057.549-3.896,1.688-5.762,2.713-4.771,2.621-9.916,4.576-15.249,5.669-13.135,2.691-25.801-.648-38.903-.648h-3Z"/><path class="cls-13" d="M277.609,449.551s2.061,14.07,2.064,14.091c.138.914,3.299.795,4.107.775,3.236-.081,7.096-1.502,8.442-4.398,1.243-2.675.608-5.642-.252-8.083-.134-.381-.28-.758-.437-1.13-1.153-2.733-3.091-6.229-7.43-5.071-1.478.395-2.846,1.144-4.132,1.93-.579.354-2.466,1.176-2.362,1.887Z"/><ellipse class="cls-13" cx="359.302" cy="348.093" rx="83.946" ry="23.665"/><rect class="cls-8" x="525.642" y="326.873" width="54.683" height="50.584"/><path class="cls-6" d="M505.718,297.808s-16.645.913-22.14,6c-11.42,10.571-11.087,31.667-16.087,55.667l53.835,2.291,5.277-30.483,30.483-6.617,8.507-11.973,2.521-8.885h-37.135l-25.261-6Z"/><path class="cls-13" d="M481.736,273.739c.275-.077.35-.125.611-.27h0c1.787-.995,2.429-3.251,1.434-5.038l-6.005-10.782c-.995-1.787-3.251-2.429-5.038-1.434h0c-1.787.995-2.429,3.251-1.434,5.038l.403.724-4.566-2.34c-4.383-2.246-9.756-.515-12.003,3.868h0c-2.246,4.383-.515,9.756,3.868,12.003l9.64,4.941c4.383,2.246,9.756.515,12.003-3.868h0c.46-.897.948-1.897,1.086-2.841h0Z"/><rect class="cls-11" x="366.296" y="528.138" width="49.755" height="19.146" rx="9.573" ry="9.573"/><path class="cls-1" d="M605.292,130.596c-1.416,3.828-6.448,5.493-11.239,3.72-4.566-1.69-7.279-5.842-6.295-9.547l.013-.05c-.419-1.686-.358-3.482.277-5.197.635-1.715,1.758-3.118,3.173-4.125,1.666-3.451,6.45-4.885,11.016-3.195,4.791,1.773,7.526,6.313,6.11,10.141l-3.054,8.252Z"/><polygon class="cls-6" points="615.563 159.984 639.401 159.984 645.963 249.037 613.215 249.037 609.085 192.985 598.083 249.037 565.993 245.645 583.284 159.984 615.563 159.984"/><path class="cls-12" d="M593.221,264.17h-33.922c-3.767,0-6.821-3.156-6.821-7.049h0c0-6.338,4.972-11.476,11.105-11.476l34.133,3.392-2.979,13.566c0,.865-.679,1.566-1.516,1.566Z"/><path class="cls-12" d="M644.897,264.17h-34.552c-3.767,0-6.821-2.578-6.821-5.758h0c0-5.177,4.972-9.374,11.105-9.374h31.026s.758,13.853.758,13.853c0,.707-.679,1.28-1.516,1.28Z"/><rect class="cls-10" x="560.577" y="80.066" width="4.111" height="22.778" rx="2.056" ry="2.056" transform="translate(40.816 320.861) rotate(-32.964)"/><path class="cls-11" d="M621.502,112.693l2.092,9.262-14.414-4.631-8.497,19.195c9.485,5.066,20.273,10.22,31.285,8.319,1.779-.307,3.521-.844,5.108-1.713,6.153-3.367,8.295-11.248,8.764-17.779.48-6.687-.733-13.458-2.738-19.822-1.004-3.187-2.176-6.416-3.803-9.346-5.387-9.699-16.834-13.749-27.402-13.926-12.362-.207-22.858,4.381-28.948,15.545-1.625,2.978-1.05,62.006-1.05,62.006h58.211l-.922-17.817"/><circle class="cls-10" cx="623.372" cy="44.036" r="10.324"/><path class="cls-2" d="M357.668,97.774h0c43.625,0,79.042,35.418,79.042,79.042v55.22h-158.084v-55.22c0-43.625,35.418-79.042,79.042-79.042Z"/><path class="cls-5" d="M357.668,129.456h0c24.647,0,44.658,20.011,44.658,44.658v35.923h-89.316v-35.923c0-24.647,20.011-44.658,44.658-44.658Z"/><path class="cls-11" d="M336.802,209.32c-4.194-4.306-11.649-9.149-12.653-21.71-1.005-12.56,7.138-18.826,9.016-23.775,2.216,3.133,6.873,6.273,9.904,11.99l.012-.138c1.479-16.91,11.795-24.677,14.676-31.585,3.598,7.087,13.343,14.843,14.486,31.984h0c3.205-5.999,8.214-9.262,10.085-12.446,2.418,5.091,9.936,11.136,8.836,23.705-1.1,12.569-8.653,17.488-12.818,21.81-3.499,3.632-15.503,6.122-20.859,6.143-5.309.021-17.307-2.512-20.684-5.979Z"/><path class="cls-8" d="M373.66,193.589c0,11.99-7.16,21.71-15.992,21.71s-15.992-9.72-15.992-21.71,11.376-15.872,15.992-21.71c3.682,5.659,15.992,9.72,15.992,21.71Z"/><path class="cls-12" d="M365.848,201.492c0,7.625-3.662,13.807-8.18,13.807s-8.18-6.182-8.18-13.807,4.931-11.671,8.18-13.807c3.016,2.084,8.18,6.182,8.18,13.807Z"/><path class="cls-7" d="M125.538,351.113c2.49-2.366,5.75-3.8,9.319-3.8,7.817,0,14.155,6.879,14.155,15.364H62.641c0-9.115,6.337-16.505,14.155-16.505,2.627,0,5.086.834,7.194,2.288l-.002.003c2.181-9.101,10.554-15.879,20.55-15.879,10.916,0,19.897,8.083,20.992,18.447l.008.081Z"/><path class="cls-7" d="M600.036,438.641c2.49-2.366,5.75-3.8,9.319-3.8,7.817,0,14.155,6.879,14.155,15.364h-86.371c0-9.115,6.337-16.505,14.155-16.505,2.627,0,5.086.834,7.194,2.288l-.002.003c2.181-9.101,10.554-15.879,20.55-15.879,10.916,0,19.897,8.083,20.992,18.447l.008.081Z"/><path class="cls-10" d="M459.586,377.457h34.006c2.209,0,4-1.791,4-4l-.323-12.114-29.778-1.868c-4.222,0-11.905,6.71-11.905,13.982h0c0,2.209,1.791,4,4,4Z"/><ellipse class="cls-5" cx="357.354" cy="348.096" rx="53.987" ry="11.826"/><polygon class="cls-9" points="74.48 174.55 49.162 174.55 42.218 263.284 76.999 263.284 81.36 207.551 92.979 263.284 126.455 259.414 108.763 174.55 74.48 174.55"/><path class="cls-9" d="M98.161,278.416h33.922c3.767,0,6.821-3.156,6.821-7.049h0c0-6.338-4.972-11.476-11.105-11.476l-34.133,3.392,2.979,13.566c0,.865.679,1.566,1.516,1.566Z"/><path class="cls-9" d="M43.747,278.416h34.552c3.767,0,6.821-2.578,6.821-5.758h0c0-5.177-4.972-9.374-11.105-9.374h-31.026s-.758,13.853-.758,13.853c0,.707.679,1.28,1.516,1.28Z"/><path class="cls-9" d="M28.132,105.531c.292.017.378-.009.671-.076h0c2.012-.458,3.192-2.813,2.635-5.259l-3.362-14.759c-.557-2.446-2.64-4.057-4.653-3.599h0c-2.012.458-3.192,2.813-2.635,5.259l.226.991-3.967-4.463c-3.807-4.284-9.555-4.36-12.838-.171h0c-3.283,4.19-2.859,11.058.949,15.342l8.374,9.423c3.807,4.284,9.555,4.36,12.838.171h0c.672-.857,1.397-1.823,1.761-2.859h0Z"/><path class="cls-9" d="M231.081,296.974h28.402c7.819,0,14.167,6.348,14.167,14.167h0c0,2.208-1.792,4-4,4h-34.568c-2.208,0-4-1.792-4-4v-14.167h0Z"/><path class="cls-9" d="M223.629,230.362c4.25.048,8.535.321,12.738.959,11.544,1.752,18.013,10.744,19.494,21.784.741,5.524.525,11.155.882,16.689.378,5.859.838,11.712,1.181,17.572.187,3.203.374,6.405.558,9.608h-29.333s-1.461-35.832-1.461-35.832"/><rect class="cls-9" x="152.149" y="260.141" width="49.333" height="49.333"/><path class="cls-9" d="M186.152,474.101s-1.563,14.381,5.104,21.048c4.645,4.645,9.226,7.858,15.664,9.234,7.144,1.526,14.484,1.904,21.771,1.861,20.3-.118,40.578-3.49,59.824-9.948,2.1-.705,4.207-1.455,6.092-2.618,11.758-7.251,8.408-30.82-6.908-29.863-4.253.266-8.26,2.661-12.365,3.633-5.436,1.287-11.391,1.7-16.969,1.7-3.309,0-5.658-2.204-9.086-1.29-2.057.549-3.896,1.688-5.762,2.713-4.771,2.621-10.153,3.769-15.486,4.862-13.135,2.691-25.453-1.333-38.555-1.333h-3.326Z"/><path class="cls-9" d="M277.609,449.551s2.061,14.07,2.064,14.091c.138.914,3.299.795,4.107.775,3.236-.081,7.096-1.502,8.442-4.398,1.243-2.675.608-5.642-.252-8.083-.134-.381-.28-.758-.437-1.13-1.153-2.733-3.091-6.229-7.43-5.071-1.478.395-2.846,1.144-4.132,1.93-.579.354-2.466,1.176-2.362,1.887Z"/><rect class="cls-9" x="525.642" y="326.873" width="54.683" height="50.584"/><path class="cls-9" d="M459.586,377.457h34.006c2.209,0,4-1.791,4-4l-.323-12.114-29.778-1.868c-4.222,0-11.905,6.71-11.905,13.982h0c0,2.209,1.791,4,4,4Z"/><path class="cls-9" d="M506.458,297.808s-17.385.913-22.88,6c-11.42,10.571-11.087,31.667-16.087,55.667l30.188,1.868"/><path class="cls-9" d="M481.736,273.739c.275-.077.35-.125.611-.27h0c1.787-.995,2.429-3.251,1.434-5.038l-6.005-10.782c-.995-1.787-3.251-2.429-5.038-1.434h0c-1.787.995-2.429,3.251-1.434,5.038l.403.724-4.566-2.34c-4.383-2.246-9.756-.515-12.003,3.868h0c-2.246,4.383-.515,9.756,3.868,12.003l9.64,4.941c4.383,2.246,9.756.515,12.003-3.868h0c.46-.897.948-1.897,1.086-2.841h0Z"/><rect class="cls-9" x="366.296" y="528.138" width="49.755" height="19.146" rx="9.573" ry="9.573"/><polygon class="cls-9" points="615.563 159.984 639.401 159.984 645.963 249.037 613.215 249.037 609.085 192.985 598.083 249.037 565.993 245.645 583.284 159.984 615.563 159.984"/><path class="cls-9" d="M593.221,264.17h-33.922c-3.767,0-6.821-3.156-6.821-7.049h0c0-6.338,4.972-11.476,11.105-11.476l34.133,3.392-2.979,13.566c0,.865-.679,1.566-1.516,1.566Z"/><path class="cls-9" d="M644.897,264.17h-34.552c-3.767,0-6.821-2.578-6.821-5.758h0c0-5.177,4.972-9.374,11.105-9.374h31.026s.758,13.853.758,13.853c0,.707-.679,1.28-1.516,1.28Z"/><rect class="cls-9" x="560.577" y="80.066" width="4.111" height="22.778" rx="2.056" ry="2.056" transform="translate(40.816 320.861) rotate(-32.964)"/><path class="cls-9" d="M621.502,112.693l2.092,9.262-14.414-4.631-8.497,19.195c9.485,5.066,20.273,10.22,31.285,8.319,1.779-.307,3.521-.844,5.108-1.713,6.153-3.367,8.295-11.248,8.764-17.779.48-6.687-.733-13.458-2.738-19.822-1.004-3.187-2.176-6.416-3.803-9.346-5.387-9.699-16.834-13.749-27.402-13.926-12.362-.207-22.858,4.381-28.948,15.545-1.625,2.978-1.05,62.006-1.05,62.006h58.211l-.922-17.817"/><circle class="cls-9" cx="623.372" cy="44.036" r="10.324"/><path class="cls-9" d="M357.668,97.774h0c43.625,0,79.042,35.418,79.042,79.042v55.22h-158.084v-55.22c0-43.625,35.418-79.042,79.042-79.042Z"/><path class="cls-9" d="M357.668,129.456h0c24.647,0,44.658,20.011,44.658,44.658v35.923h-89.316v-35.923c0-24.647,20.011-44.658,44.658-44.658Z"/><path class="cls-9" d="M336.802,209.32c-4.194-4.306-11.649-9.149-12.653-21.71-1.005-12.56,7.138-18.826,9.016-23.775,2.216,3.133,6.873,6.273,9.904,11.99l.012-.138c1.479-16.91,11.795-24.677,14.676-31.585,3.598,7.087,13.343,14.843,14.486,31.984h0c3.205-5.999,8.214-9.262,10.085-12.446,2.418,5.091,9.936,11.136,8.836,23.705-1.1,12.569-8.653,17.488-12.818,21.81-3.499,3.632-15.503,6.122-20.859,6.143-5.309.021-17.307-2.512-20.684-5.979Z"/><polyline class="cls-9" points="338.215 100.186 338.215 69.728 377.12 69.728 377.12 100.187"/><path class="cls-9" d="M373.66,193.589c0,11.99-7.16,21.71-15.992,21.71s-15.992-9.72-15.992-21.71,11.376-15.872,15.992-21.71c3.682,5.659,15.992,9.72,15.992,21.71Z"/><path class="cls-9" d="M365.848,201.492c0,7.625-3.662,13.807-8.18,13.807s-8.18-6.182-8.18-13.807,4.931-11.671,8.18-13.807c3.016,2.084,8.18,6.182,8.18,13.807Z"/><line class="cls-9" x1="373.012" y1="33.338" x2="368.02" y2="53.005"/><line class="cls-9" x1="339.687" y1="33.338" x2="347.354" y2="55.509"/><line class="cls-9" x1="315.687" y1="55.509" x2="330.02" y2="66.672"/><line class="cls-9" x1="399.02" y1="50.005" x2="386.02" y2="64.147"/><path class="cls-9" d="M125.538,351.113c2.49-2.366,5.75-3.8,9.319-3.8,7.817,0,14.155,6.879,14.155,15.364H62.641c0-9.115,6.337-16.505,14.155-16.505,2.627,0,5.042,1.143,7.15,2.596l.042-.306c2.181-9.101,10.554-15.879,20.55-15.879,10.916,0,19.897,8.083,20.992,18.447l.008.081Z"/><path class="cls-9" d="M600.036,438.641c2.49-2.366,5.75-3.8,9.319-3.8,7.817,0,14.155,6.879,14.155,15.364h-86.371c0-9.115,6.337-16.505,14.155-16.505,2.627,0,4.983,1.244,7.092,2.698l.1-.407c2.181-9.101,10.554-15.879,20.55-15.879,10.916,0,19.897,8.083,20.992,18.447l.008.081Z"/><path class="cls-6" d="M385.37,504.134c-1.97,3.149-3.122,6.964-3.122,11.074,0,8.817,5.304,16.273,12.596,18.72l27.177,1.442-3.18-29.5-29-3.015-4.471,1.278Z"/><path class="cls-6" d="M61.011,129.194s-15.111,15.444-25.889,13.778c-10.778-1.667-20.778-31.889-20.778-31.889,0,0,7.444-3.556,9.889-4.667,2.444-1.111,9.667-7.444,9.667-7.444l7.667,12.889s11.667-22.556,41.111-21c28.461,1.504,37.555,34.444,37.555,34.444,0,0,9.401,9.426,9.333,17.333-.061,7.071-4.778,10.222-8.444,11.333-3.667,1.111-12.333.889-12.333.889l.889,19.689h-62l2.222-35.245"/><polygon class="cls-11" points="109.094 152.95 91.594 152.95 89.594 126.417 111.094 126.417 109.094 152.95"/><path class="cls-6" d="M163.649,237.474s-2,15.5,4.167,20.833,16.167,7.833,26.667,7.5c-1,12-1.333,31.167-1.333,31.167l31.831-.667s4.502-40.333,2.002-47.167c-2.5-6.833-6.833-9.703-6.833-9.703"/><path class="cls-7" d="M193.581,296.974h28.402c7.819,0,14.167,6.348,14.167,14.167h0c0,2.208-1.792,4-4,4h-34.568c-2.208,0-4-1.792-4-4v-14.167h0Z"/><polyline class="cls-12" points="162.279 230.362 162.279 237.474 175.987 237.474"/><path class="cls-1" d="M194.903,220.287l5.935-3.384c1.777-1.013,4.039-.394,5.052,1.383h0c.535.938.615,2.01.31,2.963h0c.059.006.118.012.177.019,4.695.56,8.169,4.718,7.83,9.484l-.028.399c-.349,4.912-4.613,8.612-9.526,8.264l-10.805-.767c-4.912-.349-8.612-4.613-8.264-9.526l.028-.399c.337-4.745,4.327-8.359,9.026-8.285l.264-.152Z"/><path class="cls-6" d="M250.732,467.291s-14.354,8.088-24.663,9.346c-10.309,1.258-41.771-1.932-41.771-1.932.372-15.788,1.168-31.621,3.002-47.308.86-7.357,2.439-14.758,6.016-21.244,9.884-17.925,38.39-21.684,54.28-9.976,7.785,5.736,11.052,13.512,13.379,22.516,2.084,8.064,4.338,16.367,5.169,24.678.666,6.664,12.88,3.558,12.889,3.556.498-.125,1.96,3.554,2.144,3.979,2.099,4.824.599,9.588.053,14.549-.238,2.099-8.923,2.851-10.553,3.031-5.683.625-12.848,2.309-18.248-.217-3.881-1.815-6.395-5.688-8.046-9.641-3.041-7.282-5.715-14.769-6.906-22.589"/><polyline class="cls-8" points="319.334 355.242 373.404 374.309 378.392 360.163 324.322 341.095"/><ellipse class="cls-8" cx="321.828" cy="348.169" rx="7.5" ry="4.167" transform="translate(-113.552 535.889) rotate(-70.575)"/><path class="cls-4" d="M546.173,303.808h24.652s-1.333-25-2.167-29.833c-2.723-15.795-6.137-32.975-23.449-38.479-7.062-2.245-14.715-2.092-21.859-.306-5.9,1.475-12.009,3.706-15.301,9.218-1.782,2.983-3.545,5.977-5.302,8.974-2.651,4.525-5.291,9.056-7.922,13.592l-10.833-3.5-9.833,18.167s12.5,10.833,21.167,9.833c8.667-1,15.373-6.833,17.103-9.167v5.436"/><path class="cls-6" d="M509.254,307.716s-2.763.067-4.596,6.663c-1.833,6.596-7.611,49.595-7.611,49.595h31.944l3.833-31.464c3.538.013,7.087-.16,10.613-.439,6.134-.486,12.315-.398,17.422-4.362,6.56-5.091,9.202-15.287,7.84-23.235"/><path class="cls-10" d="M499.486,363.975h28.839v13.167c0,2.208-1.792,4-4,4h-34.006c-2.208,0-4-1.792-4-4h0c0-7.267,5.9-13.167,13.167-13.167Z"/><path class="cls-13" d="M511.011,293.015c-.272-.58-.269-1.286-.195-1.975h0c.224-2.08,2.141-3.636,4.282-3.476l8.694.65h0c4.815-1.49,9.955.857,11.685,5.443h0c1.8,4.772-.774,10.163-5.751,12.04l-12.721,4.799c-4.976,1.877-10.47-.47-12.27-5.242h0c-1.8-4.772.774-10.163,5.751-12.04l.526-.198h0Z"/><rect class="cls-11" x="391.173" y="532.319" width="49.755" height="19.146" rx="9.573" ry="9.573"/><polygon class="cls-6" points="603.842 144.564 566.257 144.564 550.924 95.565 588.509 95.565 603.842 144.564"/><polygon class="cls-1" points="579.827 99.787 563.493 99.787 561.938 92.676 578.271 92.676 579.827 99.787"/><path class="cls-1" d="M616.936,65.81c1.206-2.294.342-5.173-1.952-6.378-2.294-1.206-5.159-.286-6.364,2.008l-18.766-9.861c6.245-7.732,17.278-10.238,26.41-5.439,9.133,4.799,13.326,15.306,10.501,24.836l-9.83-5.165Z"/><circle class="cls-13" cx="606.377" cy="64.954" r="21.255"/><rect class="cls-2" x="318.147" y="210.037" width="39.521" height="22"/><rect class="cls-2" x="278.626" y="210.037" width="39.521" height="22"/><rect class="cls-2" x="397.189" y="210.037" width="39.521" height="22"/><rect class="cls-2" x="357.668" y="210.037" width="39.521" height="22"/><rect class="cls-2" x="298.386" y="232.037" width="39.521" height="22"/><rect class="cls-2" x="258.865" y="232.037" width="39.521" height="22"/><rect class="cls-2" x="377.428" y="232.037" width="39.521" height="22"/><rect class="cls-2" x="416.95" y="232.037" width="39.521" height="22"/><rect class="cls-2" x="337.907" y="232.037" width="39.521" height="22"/><path class="cls-13" d="M258.075,190.482c-.279-.063-.356-.107-.624-.239h0c-1.834-.905-2.588-3.125-1.683-4.96l5.459-11.069c.905-1.834,3.125-2.588,4.96-1.683h0c1.834.905,2.588,3.125,1.683,4.96l-.367.743,4.444-2.566c4.265-2.462,9.718-1.001,12.181,3.264h0c2.462,4.265,1.001,9.718-3.264,12.181l-9.381,5.416c-4.265,2.462-9.718,1.001-12.181-3.264h0c-.504-.873-1.042-1.847-1.227-2.784h0Z"/><path class="cls-10" d="M616.936,65.81c1.206-2.294.342-5.173-1.952-6.378-2.294-1.206-5.159-.286-6.364,2.008l-18.766-9.861c6.245-7.732,17.278-10.238,26.41-5.439,9.133,4.799,13.326,15.306,10.501,24.836l-9.83-5.165Z"/><path class="cls-9" d="M61.011,129.194s-15.111,15.444-25.889,13.778c-10.778-1.667-20.778-31.889-20.778-31.889,0,0,7.444-3.556,9.889-4.667,2.444-1.111,9.667-7.444,9.667-7.444l7.667,12.889s11.667-22.556,41.111-21c28.461,1.504,37.555,34.444,37.555,34.444,0,0,9.401,9.426,9.333,17.333-.061,7.071-4.778,10.222-8.444,11.333-3.667,1.111-12.333.889-12.333.889l.889,19.689h-62l2.222-35.245"/><polygon class="cls-9" points="109.094 152.95 91.594 152.95 89.594 126.417 111.094 126.417 109.094 152.95"/><path class="cls-9" d="M163.649,237.474s-2,15.5,4.167,20.833,16.167,7.833,26.667,7.5c-1,12-1.333,31.167-1.333,31.167l31.831-.667s4.502-40.333,2.002-47.167c-2.5-6.833-6.833-9.703-6.833-9.703"/><path class="cls-9" d="M193.581,296.974h28.402c7.819,0,14.167,6.348,14.167,14.167h0c0,2.208-1.792,4-4,4h-34.568c-2.208,0-4-1.792-4-4v-14.167h0Z"/><polyline class="cls-9" points="162.279 230.362 162.279 237.474 175.987 237.474"/><path class="cls-9" d="M250.732,467.291s-14.354,8.088-24.663,9.346c-10.309,1.258-41.771-1.932-41.771-1.932.372-15.788,1.168-31.621,3.002-47.308.86-7.357,2.439-14.758,6.016-21.244,9.884-17.925,38.39-21.684,54.28-9.976,7.785,5.736,11.052,13.512,13.379,22.516,2.084,8.064,4.338,16.367,5.169,24.678.666,6.664,12.88,3.558,12.889,3.556.498-.125,1.96,3.554,2.144,3.979,2.099,4.824.599,9.588.053,14.549-.238,2.099-8.923,2.851-10.553,3.031-5.683.625-12.848,2.309-18.248-.217-3.881-1.815-6.395-5.688-8.046-9.641-3.041-7.282-5.715-14.769-6.906-22.589"/><polyline class="cls-9" points="319.334 355.242 373.404 374.309 378.392 360.163 324.322 341.095"/><ellipse class="cls-9" cx="321.828" cy="348.169" rx="7.5" ry="4.167" transform="translate(-113.552 535.889) rotate(-70.575)"/><line class="cls-9" x1="512.428" y1="289.19" x2="512.428" y2="266.975"/><path class="cls-9" d="M546.173,303.808h24.652s-1.333-25-2.167-29.833c-2.723-15.795-6.137-32.975-23.449-38.479-7.062-2.245-14.715-2.092-21.859-.306-5.9,1.475-12.009,3.706-15.301,9.218-1.782,2.983-3.545,5.977-5.302,8.974-2.651,4.525-5.291,9.056-7.922,13.592l-10.833-3.5-9.833,18.167s12.5,10.833,21.167,9.833c8.667-1,15.373-6.833,17.103-9.167"/><path class="cls-9" d="M511.502,292.834c-.272-.58-.76-1.106-.686-1.794h0c.224-2.08,2.141-3.636,4.282-3.476l8.694.65h0c4.815-1.49,9.955.857,11.685,5.443h0c1.8,4.772-.774,10.163-5.751,12.04l-12.721,4.799c-4.976,1.877-10.47-.47-12.27-5.242h0c-1.8-4.772.774-10.163,5.751-12.04l.526-.198.491-.181Z"/><rect class="cls-9" x="391.173" y="532.319" width="49.755" height="19.146" rx="9.573" ry="9.573"/><path class="cls-9" d="M394.843,533.928c-7.292-2.447-12.596-9.902-12.596-18.72,0-4.111,1.153-7.925,3.122-11.074"/><polygon class="cls-9" points="603.842 144.564 566.257 144.564 550.924 95.565 588.509 95.565 603.842 144.564"/><polygon class="cls-9" points="579.827 99.787 563.493 99.787 561.938 92.676 578.271 92.676 579.827 99.787"/><path class="cls-9" d="M616.936,65.81c1.206-2.294.342-5.173-1.952-6.378-2.294-1.206-5.159-.286-6.364,2.008l-18.766-9.861c6.245-7.732,17.278-10.238,26.41-5.439,9.133,4.799,13.326,15.306,10.501,24.836l-9.83-5.165Z"/><circle class="cls-9" cx="606.377" cy="64.954" r="21.255"/><rect class="cls-9" x="318.147" y="210.037" width="39.521" height="22"/><rect class="cls-9" x="278.626" y="210.037" width="39.521" height="22"/><rect class="cls-9" x="397.189" y="210.037" width="39.521" height="22"/><rect class="cls-9" x="357.668" y="210.037" width="39.521" height="22"/><rect class="cls-9" x="298.386" y="232.037" width="39.521" height="22"/><rect class="cls-9" x="258.865" y="232.037" width="39.521" height="22"/><rect class="cls-9" x="377.428" y="232.037" width="39.521" height="22"/><rect class="cls-9" x="416.95" y="232.037" width="39.521" height="22"/><rect class="cls-9" x="337.907" y="232.037" width="39.521" height="22"/><path class="cls-9" d="M499.486,363.975h28.839v13.167c0,2.208-1.792,4-4,4h-34.006c-2.208,0-4-1.792-4-4h0c0-7.267,5.9-13.167,13.167-13.167Z"/><path class="cls-9" d="M258.075,190.482c-.279-.063-.356-.107-.624-.239h0c-1.834-.905-2.588-3.125-1.683-4.96l5.459-11.069c.905-1.834,3.125-2.588,4.96-1.683h0c1.834.905,2.588,3.125,1.683,4.96l-.367.743,4.444-2.566c4.265-2.462,9.718-1.001,12.181,3.264h0c2.462,4.265,1.001,9.718-3.264,12.181l-9.381,5.416c-4.265,2.462-9.718,1.001-12.181-3.264h0c-.504-.873-1.042-1.847-1.227-2.784h0Z"/><path class="cls-9" d="M507.303,308.915c-.852.925-1.838,2.563-2.645,5.464-1.833,6.596-7.611,49.595-7.611,49.595h31.944l3.833-31.464c3.538.013,7.087-.16,10.613-.439,6.134-.486,12.315-.398,17.422-4.362,6.56-5.091,9.202-15.287,7.84-23.235"/><path class="cls-6" d="M426.186,501.715c-9.831,0-17.8,8.762-17.8,19.569,0,8.798,5.281,16.24,12.548,18.704h0s11.807,4.081,15.858,4.498c4.051.417,20.879.833,20.879.833v.002c10.375,2.142,21.11.595,30.056-7.07,7.901-6.77,8.203-18.011,7.486-27.665l-42.055-6.6-26.972-2.271Z"/><path class="cls-10" d="M453.491,498.319l-.333,5.667s15.656,4.921,26.333,6.167c10.966,1.279,18.733-.936,18.167-.833-.248-6.328-.575-12.654-.966-18.975-.661-10.696-.781-21.862-3.824-32.215-2.348-7.988-6.45-16.025-12.851-21.618-10.046-8.777-25.78-8.173-37.224-2.563-6.512,3.193-10.321,8.713-13.213,15.158-2.793,6.223-5.733,14.538-7.784,21.03l-11.165.685,9.619,31.595,33.242-4.098Z"/><path class="cls-13" d="M110.733,133.428h3.389c3.863,0,7,3.137,7,7v6.46c0,4.415-3.585,8-8,8h-2.389c-5.335,0-9.667-4.331-9.667-9.667v-2.127c0-5.335,4.331-9.667,9.667-9.667Z"/><circle class="cls-13" cx="224.924" cy="368.724" r="22.876"/><polyline class="cls-8" points="395.367 356.17 341.724 376.406 336.429 362.371 390.073 342.135"/><ellipse class="cls-8" cx="392.72" cy="349.153" rx="4.167" ry="7.5" transform="translate(-97.958 161.08) rotate(-20.668)"/><path class="cls-4" d="M543.491,266.308v13l-17.849,7.667,6.183,19.5s27.042-2.491,32.333-13.5c5.291-11.009,4.5-19,4.5-19"/><polygon class="cls-8" points="453.196 503.339 421.795 507.496 420.249 502.417 451.287 498.214 453.491 498.319 453.196 503.339"/><path class="cls-13" d="M605.292,130.596c-1.416,3.828-6.448,5.493-11.239,3.72-4.566-1.69-7.279-5.842-6.295-9.547l.013-.05c-.419-1.686-.358-3.482.277-5.197.635-1.715,1.758-3.118,3.173-4.125,1.666-3.451,6.45-4.885,11.016-3.195,4.791,1.773,7.526,6.313,6.11,10.141l-3.054,8.252Z"/><polygon class="cls-8" points="453.491 498.319 414.054 493.038 417.666 502.855 453.491 498.319"/><path class="cls-13" d="M97.839,55.991c1.626,1.703,2.944,3.588,3.957,5.585,4.56,8.987,2.934,20.254-4.732,27.57-9.369,8.941-24.213,8.595-33.155-.775-8.941-9.369-8.595-24.213.775-33.155,7.716-7.364,19.144-8.428,27.932-3.341,1.883,1.09,3.645,2.462,5.223,4.116Z"/><path class="cls-9" d="M110.733,133.428h3.389c3.863,0,7,3.137,7,7v6.46c0,4.415-3.585,8-8,8h-2.389c-5.335,0-9.667-4.331-9.667-9.667v-2.127c0-5.335,4.331-9.667,9.667-9.667Z"/><circle class="cls-9" cx="224.924" cy="368.724" r="22.876"/><polyline class="cls-9" points="395.367 356.17 341.724 376.406 336.429 362.371 390.073 342.135"/><ellipse class="cls-9" cx="392.72" cy="349.153" rx="4.167" ry="7.5" transform="translate(-97.958 161.08) rotate(-20.668)"/><path class="cls-9" d="M543.491,266.308v13l-17.849,7.667,6.183,19.5s27.042-2.491,32.333-13.5c5.291-11.009,4.5-19,4.5-19"/><path class="cls-9" d="M495.469,509.804c.717,9.654.159,21.677-7.742,28.447-15.3,13.111-35.838,8.321-50.857-2.21"/><path class="cls-9" d="M457.671,545.319s-16.829-.417-20.879-.833c-4.051-.417-15.858-4.498-15.858-4.498h0c-7.267-2.463-12.548-9.906-12.548-18.704,0-10.808,7.969-19.569,17.8-19.569"/><polygon class="cls-9" points="453.196 503.339 421.795 507.496 420.249 502.417 451.287 498.214 453.491 498.319 453.196 503.339"/><path class="cls-9" d="M605.292,130.596c-1.416,3.828-6.448,5.493-11.239,3.72-4.566-1.69-7.279-5.842-6.295-9.547l.013-.05c-.419-1.686-.358-3.482.277-5.197.635-1.715,1.758-3.118,3.173-4.125,1.666-3.451,6.45-4.885,11.016-3.195,4.791,1.773,7.526,6.313,6.11,10.141l-3.054,8.252Z"/><path class="cls-9" d="M97.839,55.991c1.626,1.703,2.944,3.588,3.957,5.585,4.56,8.987,2.934,20.254-4.732,27.57-9.369,8.941-24.213,8.595-33.155-.775-8.941-9.369-8.595-24.213.775-33.155,7.716-7.364,19.144-8.428,27.932-3.341,1.883,1.09,3.645,2.462,5.223,4.116Z"/><path class="cls-9" d="M453.491,498.319l-.333,5.667s15.667,4.833,26.333,6.167c10.667,1.333,18.167-.833,18.167-.833-.248-6.328-.575-12.654-.966-18.974-.661-10.696-.781-21.862-3.824-32.215-2.348-7.988-6.45-16.025-12.851-21.618-10.046-8.777-25.78-8.173-37.224-2.563-6.512,3.193-10.321,8.713-13.213,15.158-2.793,6.223-5.733,14.538-7.784,21.03"/><path class="cls-9" d="M418.284,470.31c3.882-.395,7.66-.162,11.808,1.197"/><line class="cls-9" x1="434.717" y1="461.82" x2="434.717" y2="475.978"/><polygon class="cls-9" points="453.491 498.319 414.054 493.038 417.666 502.855 453.491 498.319"/><path class="cls-12" d="M183.699,202.474l-3.217,12.8,13.667,3.534s-4.333,9.667-3.333,20.167c-21.833-.333-27.833-6.5-31.167-12.333-3.333-5.833,2.667-28.167,4-32.333,1.511-4.721,5.292-9.23,8.235-13.116,2.984-3.939,6.442-8.004,11.125-10.045,5.601-2.441,12.038-1.5,17.968-1.839,11.661-.667,16.005,2,21.339,5.676,5.333,3.676,16.167,19.158,16.167,19.158l16.333-10.833,13.333,15.333s-14.545,18.976-26.5,20.667c-8.604,1.217-15.556-4.827-16.667-6l-.815,10.241-9.584,4.588s-1.182-4.163-4.143-5.913c-2.166-1.28-3.583-1.292-3.583-1.292,0,0,.274-1.599-.75-3.292-.958-1.583-3.417-1.917-4.542-1.5-1.968.729-8.084,4.357-8.084,4.357l.667-1.69-13.667-3.534"/><polygon class="cls-11" points="222.98 238.974 205.48 238.974 203.48 212.441 224.98 212.441 222.98 238.974"/><path class="cls-8" d="M443.248,348.093c0,13.07-37.584,23.665-83.946,23.665s-83.946-10.595-83.946-23.665,37.584-23.665,83.946-23.665,83.946,10.595,83.946,23.665ZM357.354,336.27c-29.816,0-53.987,5.295-53.987,11.826s24.171,11.826,53.987,11.826,53.987-5.295,53.987-11.826-24.171-11.826-53.987-11.826Z"/><path class="cls-2" d="M275.356,393.033v-44.94c0,13.07,37.584,23.665,83.946,23.665s83.946-10.595,83.946-23.665v44.94c0,13.07-37.584,23.665-83.946,23.665s-83.946-10.595-83.946-23.665Z"/><path class="cls-11" d="M621.502,112.693l2.092,9.262-14.414-4.631-8.497,19.195c9.485,5.066,20.273,10.22,31.285,8.319,1.779-.307,3.521-.844,5.108-1.713,6.153-3.367,8.295-11.248,8.764-17.779.48-6.687-.733-13.458-2.738-19.822"/><path class="cls-12" d="M227.222,345.963c5.351.543,10.473,2.961,14.316,7.03.942.997,1.807,2.093,2.579,3.284l-21.556,4.9h-.002s-2.021,6.595-2.021,6.595c-2.667-.817-5.54.675-6.358,3.342s.729,5.508,3.395,6.325l7.524,17.057-22.248,5.721-.798-30.759c-.079-2.453.239-4.96.998-7.438,3.253-10.617,13.529-17.149,24.171-16.063v.007Z"/><path class="cls-13" d="M429.813,480.414c-.129-.612.02-1.282.231-1.918h0c.635-1.923,2.709-2.967,4.632-2.332l7.81,2.579h0c4.707-.327,8.919,3.061,9.552,7.803h0c.658,4.936-2.81,9.47-7.745,10.128l-12.616,1.682c-4.935.658-9.47-2.81-10.128-7.745h0c-.658-4.936,2.81-9.47,7.745-10.128l.521-.069h0Z"/><rect class="cls-13" x="403.231" y="469.717" width="19.647" height="17.07" rx="8.535" ry="8.535" transform="translate(-72.127 73.359) rotate(-9.338)"/><path class="cls-7" d="M57.486,73.776c.494,7.365,4.441,13.945,10.384,17.917l7.273-9.333c-2.842-.316-4.939-2.883-4.624-5.725.316-2.842,2.926-4.892,5.768-4.576l.385-3.467h0l24.959-7.315h0c1.339-1.168,1.905-3.392,1.276-5.641l-.259-.928c-.806-2.884-3.273-4.716-5.508-4.091l-4.255,1.19-.26.071c-5.274-3.048-11.724-4.053-18.055-2.283-10.965,3.066-17.92,13.433-17.077,24.369l-.007-.189Z"/><path class="cls-9" d="M183.699,202.474l-3.217,12.8,13.667,3.534s-4.333,9.667-3.333,20.167c-21.833-.333-27.833-6.5-31.167-12.334-2.992-5.237-.266-14.49.861-19.911,2.597-12.493,9.905-30.095,22.499-35.583,5.601-2.441,12.038-1.5,17.968-1.839,11.661-.667,16.005,2,21.339,5.676,5.333,3.676,16.167,19.158,16.167,19.158l16.333-10.833,13.333,15.333s-14.545,18.976-26.5,20.667c-8.604,1.217-15.556-4.827-16.667-6l-1.278,16.056"/><polygon class="cls-9" points="222.98 238.974 205.48 238.974 203.48 212.441 224.98 212.441 222.98 238.974"/><ellipse class="cls-9" cx="359.302" cy="348.093" rx="83.946" ry="23.665"/><path class="cls-9" d="M275.356,393.033v-44.94c0,13.07,37.584,23.665,83.946,23.665s83.946-10.595,83.946-23.665v44.94c0,13.07-37.584,23.665-83.946,23.665s-83.946-10.595-83.946-23.665Z"/><ellipse class="cls-9" cx="357.354" cy="348.096" rx="53.987" ry="11.826"/><path class="cls-9" d="M621.502,112.693l2.092,9.262-14.414-4.631-8.497,19.195c9.485,5.066,20.273,10.22,31.285,8.319,1.779-.307,3.521-.844,5.108-1.713,6.153-3.367,8.295-11.248,8.764-17.779.48-6.687-.733-13.458-2.738-19.822"/><path class="cls-9" d="M57.486,73.776c.494,7.365,4.441,13.945,10.384,17.917l7.273-9.333c-2.842-.316-4.939-2.883-4.624-5.725.316-2.842,2.926-4.892,5.768-4.576l.385-3.467h0l24.959-7.315h0c1.339-1.168,1.905-3.392,1.276-5.641l-.259-.928c-.806-2.884-3.273-4.716-5.508-4.091l-4.255,1.19-.26.071c-5.274-3.048-11.724-4.053-18.055-2.283-10.965,3.066-17.92,13.433-17.077,24.369l-.007-.189Z"/><path class="cls-9" d="M227.222,345.963c5.351.543,10.473,2.961,14.316,7.03.942.997,1.807,2.093,2.579,3.284l-21.556,4.9h-.002s-2.021,6.595-2.021,6.595c-2.667-.817-5.54.675-6.358,3.342s.729,5.508,3.395,6.325l7.524,17.057-22.248,5.721-.798-30.759c-.079-2.453.239-4.96.998-7.438,3.253-10.617,13.529-17.149,24.171-16.063v.007Z"/><path class="cls-9" d="M429.813,480.414c-.129-.612.02-1.282.231-1.918h0c.635-1.923,2.709-2.967,4.632-2.332l7.81,2.579h0c4.707-.327,8.919,3.061,9.552,7.803h0c.658,4.936-2.81,9.47-7.745,10.128l-12.616,1.682c-4.935.658-9.47-2.81-10.128-7.745h0c-.658-4.936,2.81-9.47,7.745-10.128l.34-.045.181-.024Z"/><rect class="cls-9" x="403.231" y="469.717" width="19.647" height="17.07" rx="8.535" ry="8.535" transform="translate(-72.127 73.359) rotate(-9.338)"/><path class="cls-13" d="M193.979,220.453c.38-.044.269-.02.66-.014l.264-.152,5.935-3.384c1.777-1.013,4.039-.394,5.052,1.383h0c.535.938.615,2.01.31,2.963h0c.059.006.118.012.177.019,4.695.56,8.169,4.718,7.83,9.484l-.028.399c-.349,4.912-4.613,8.612-9.526,8.264l-10.805-.767c-1.079-.077-1.683-.296-2.616-.716"/><path class="cls-11" d="M185.007,143.872s-3.744-3.359-6.977-1.88c-5.664,2.591-6.663,5.659-8,8.9-2.832,6.864-11.545,9.517-15.133,9.985,1.945,3.582,9.049,6.708,15.055,4.368,6.006-2.34,4.689-8.581,8.078-11.233s5.669-.69,5.669-.69l1.308-9.451Z"/><circle class="cls-13" cx="204.954" cy="152.419" r="21.255"/><path class="cls-11" d="M195.453,157.104c-1.966-1.689-2.224-4.683-.535-6.649,1.689-1.966,4.69-2.166,6.656-.478l13.813-16.081c-8.655-4.887-19.834-3.153-26.556,4.673-6.722,7.826-6.75,19.139-.613,26.957l7.235-8.423Z"/><circle class="cls-13" cx="527.41" cy="214.603" r="23.033"/><path class="cls-11" d="M337.3,346.748c-4.159-4.711-11.576-9.986-12.468-23.83-.892-13.844,7.313-20.828,9.237-26.303,2.19,3.436,6.822,9.857,9.804,16.135l.013-.153c1.632-18.664,12.026-30.323,14.972-37.967,3.537,7.784,13.22,19.25,14.209,38.145h0c3.262-6.645,8.304-13.29,10.205-16.817,2.374,5.593,9.843,12.193,8.629,26.064-1.214,13.872-8.818,19.365-13.024,24.17-3.534,4.037-15.57,6.891-20.93,6.963-5.313.071-17.298-2.614-20.647-6.408Z"/><path class="cls-8" d="M373.038,331.447c0,11.99-6.543,21.71-14.615,21.71s-14.615-9.72-14.615-21.71,10.396-15.872,14.615-21.71c3.365,5.659,14.615,9.72,14.615,21.71Z"/><path class="cls-12" d="M365.898,339.351c0,7.625-3.347,13.807-7.475,13.807s-7.475-6.182-7.475-13.807,4.506-11.671,7.475-13.807c2.756,2.084,7.475,6.182,7.475,13.807Z"/><path class="cls-10" d="M485.991,472.653c-2.475,8.071-6.116,17.741-14.032,21.948-7.41,3.938-18.061,3.619-26.266,3.558-.179-.001-.357-.003-.536-.006,1.126.027.287-11.311-.049-12.467-.864-2.971-2.036-5.87-3.284-8.7l17.333-4.333,4-10.833"/><polygon class="cls-8" points="421.795 507.496 368.174 502.547 354.386 458.176 408.126 462.595 421.795 507.496"/><circle class="cls-13" cx="445.476" cy="410.728" r="23.45"/><path class="cls-8" d="M455.602,416.563c2.285-1.719,2.782-4.997,1.063-7.282-1.719-2.285-5.01-2.719-7.295-1l-2.097-2.787,19.152-5.311c4.336,8.589,2.943,19.021-3.457,26.17l-7.366-9.79Z"/><path class="cls-3" d="M466.514,400.349c-4.844-9.841-16.111-15.219-27.108-12.273-10.997,2.947-18.065,13.238-17.339,24.182l44.447-11.91Z"/><path class="cls-12" d="M466.514,400.349c-4.844-9.841-16.111-15.219-27.108-12.273-10.997,2.947-18.065,13.238-17.339,24.182l44.447-11.91Z"/><path class="cls-9" d="M193.482,220.496c.38-.044.766-.063,1.157-.057l.264-.152,5.935-3.384c1.777-1.013,4.039-.394,5.052,1.383h0c.535.938.615,2.01.31,2.963h0c.059.006.118.012.177.019,4.695.56,8.169,4.718,7.83,9.484l-.028.399c-.349,4.912-4.613,8.612-9.526,8.264l-10.805-.767c-1.079-.077-2.1-.342-3.033-.762"/><path class="cls-9" d="M195.453,157.104c-1.966-1.689-2.224-4.683-.535-6.649,1.689-1.966,4.69-2.166,6.656-.478l13.813-16.081c-8.655-4.887-19.834-3.153-26.556,4.673-6.722,7.826-6.75,19.139-.613,26.957l7.235-8.423Z"/><circle class="cls-9" cx="204.954" cy="152.419" r="21.255"/><circle class="cls-9" cx="527.41" cy="214.603" r="23.033"/><path class="cls-9" d="M185.007,143.872s-3.744-3.359-6.977-1.88c-5.664,2.591-6.663,5.659-8,8.9-2.832,6.864-11.545,9.517-15.133,9.985,1.945,3.582,9.049,6.708,15.055,4.368,6.006-2.34,4.689-8.581,8.078-11.233s5.669-.69,5.669-.69l1.308-9.451Z"/><path class="cls-9" d="M337.3,346.748c-4.159-4.711-11.576-9.986-12.468-23.83-.892-13.844,7.313-20.828,9.237-26.303,2.19,3.436,6.822,9.857,9.804,16.135l.013-.153c1.632-18.664,12.026-30.323,14.972-37.967,3.537,7.784,13.22,19.25,14.209,38.145h0c3.262-6.645,8.304-13.29,10.205-16.817,2.374,5.593,9.843,12.193,8.629,26.064-1.214,13.872-8.818,19.365-13.024,24.17-3.534,4.037-15.57,6.891-20.93,6.963-5.313.071-17.298-2.614-20.647-6.408Z"/><path class="cls-9" d="M373.038,331.447c0,11.99-6.543,21.71-14.615,21.71s-14.615-9.72-14.615-21.71,10.396-15.872,14.615-21.71c3.365,5.659,14.615,9.72,14.615,21.71Z"/><path class="cls-9" d="M365.898,339.351c0,7.625-3.347,13.807-7.475,13.807s-7.475-6.182-7.475-13.807,4.506-11.671,7.475-13.807c2.756,2.084,7.475,6.182,7.475,13.807Z"/><path class="cls-9" d="M485.991,472.653c-2.475,8.071-6.116,17.741-14.032,21.948-7.41,3.938-18.061,3.619-26.266,3.558-.179-.001-.357-.003-.535-.006,1.31.027.417-7.62.342-8.394-.449-4.61-1.794-8.506-3.676-12.772l17.333-4.333,4-10.833"/><ellipse class="cls-9" cx="386.443" cy="482.836" rx="4.526" ry="4.917" transform="translate(-73.223 69.102) rotate(-9.338)"/><polygon class="cls-9" points="421.795 507.496 368.174 502.547 354.386 458.176 408.126 462.595 421.795 507.496"/><path class="cls-9" d="M455.602,416.563c2.285-1.719,2.782-4.997,1.063-7.282-1.719-2.285-5.01-2.719-7.295-1l-2.097-2.787,19.152-5.311c4.336,8.589,2.943,19.021-3.457,26.17l-7.366-9.79Z"/><circle class="cls-9" cx="445.476" cy="410.728" r="23.45"/><path class="cls-9" d="M466.514,400.349c-4.844-9.841-16.111-15.219-27.108-12.273-10.997,2.947-18.065,13.238-17.339,24.182l44.447-11.91Z"/><path class="cls-2" d="M504.97,209.406c.441-1.906,1.108-3.701,1.964-5.364,4.713-9.152,15.186-14.306,25.673-11.877,12.393,2.87,20.112,15.244,17.242,27.637-.906,3.911-2.758,7.356-5.258,10.15h0s-7.235-9.616-7.235-9.616c2.244-1.689,2.733-4.908,1.044-7.152-1.689-2.244-4.921-2.671-7.165-.982l-2.948-3.918-23.317,1.123Z"/><path class="cls-6" d="M480.091,185.607l4.579,13.295-14.038-10.437h0c-4.301.917-8.872,1.41-13.61,1.41-25.395,0-45.981-14.178-45.981-31.667s20.586-31.667,45.981-31.667,45.981,14.178,45.981,31.667c0,11.699-9.212,21.916-22.912,27.399h0Z"/><path class="cls-6" d="M143.491,61.065l-4.579,13.295,14.038-10.437h0c4.301.917,8.872,1.41,13.61,1.41,25.395,0,45.981-14.178,45.981-31.667,0-17.489-20.586-31.667-45.981-31.667-25.395,0-45.981,14.178-45.981,31.667,0,11.699,9.212,21.916,22.912,27.399h0Z"/><path class="cls-6" d="M261.818,135.024l-4.579,13.295,14.038-10.437h0c4.301.917,8.872,1.41,13.61,1.41,25.395,0,45.981-14.178,45.981-31.667,0-17.489-20.586-31.667-45.981-31.667s-45.981,14.178-45.981,31.667c0,11.699,9.212,21.916,22.912,27.399h0Z"/><path class="cls-12" d="M440.928,407.205l-22.408,6.004c-2.893.775-5.867-.942-6.642-3.835l-.249-.931c-.775-2.893.942-5.867,3.835-6.642l9.57-2.564,15.894,7.967Z"/><path class="cls-9" d="M504.97,209.406c.441-1.906,1.108-3.701,1.964-5.364,4.713-9.152,15.186-14.306,25.673-11.877,12.393,2.87,20.112,15.244,17.242,27.637-.906,3.911-2.758,7.356-5.258,10.15h0s-7.235-9.616-7.235-9.616c2.244-1.689,2.733-4.908,1.044-7.152-1.689-2.244-4.921-2.671-7.165-.982l-2.948-3.918-23.317,1.123Z"/><path class="cls-9" d="M480.091,185.607l4.579,13.295-13.856-10.302-.182-.135c-4.301.917-8.872,1.41-13.61,1.41-25.395,0-45.981-14.178-45.981-31.667s20.586-31.667,45.981-31.667,45.981,14.178,45.981,31.667c0,11.699-9.212,21.916-22.912,27.399h0Z"/><path class="cls-9" d="M143.491,61.065l-4.579,13.295,14.038-10.437h0c4.301.917,8.872,1.41,13.61,1.41,25.395,0,45.981-14.178,45.981-31.667,0-17.489-20.586-31.667-45.981-31.667-25.395,0-45.981,14.178-45.981,31.667,0,11.699,9.212,21.916,22.912,27.399h0Z"/><path class="cls-9" d="M261.818,135.024l-4.579,13.295,14.038-10.437h0c4.301.917,8.872,1.41,13.61,1.41,25.395,0,45.981-14.178,45.981-31.667,0-17.489-20.586-31.667-45.981-31.667s-45.981,14.178-45.981,31.667c0,11.699,9.212,21.916,22.912,27.399h0Z"/><path class="cls-9" d="M440.928,407.205l-22.408,6.004c-2.893.775-5.867-.942-6.642-3.835l-.249-.931c-.775-2.893.942-5.867,3.835-6.642l9.57-2.564,15.894,7.967Z"/></svg>