<?xml version="1.0" encoding="UTF-8"?><svg id="_レイヤー_1" xmlns="http://www.w3.org/2000/svg" viewBox="0 0 392.999 374.651"><defs><style>.cls-1{fill:#f5f5ee;}.cls-2{fill:#b16239;}.cls-3{fill:#fbf6ee;}.cls-4{fill:#f7c43b;}.cls-5{stroke:#000;}.cls-5,.cls-6,.cls-7,.cls-8{fill:none;stroke-linecap:round;stroke-linejoin:round;stroke-width:2px;}.cls-9{fill:#8893b0;}.cls-10{fill:#d8d8d4;}.cls-11{fill:#f8f2e8;}.cls-12{fill:#fdfcfc;}.cls-13{fill:#fff;}.cls-14{fill:#fcfbfa;}.cls-15{fill:#a6b791;}.cls-16{fill:#fdfbf9;}.cls-6{stroke:#443931;}.cls-17{fill:#fdfaf7;}.cls-18{fill:#889eab;}.cls-7{stroke:#3d201e;}.cls-19{fill:#f7844f;}.cls-20{fill:#818aae;}.cls-21{fill:#902f31;}.cls-22{fill:#e5be43;}.cls-8{stroke:#55e400;}.cls-23{fill:#f5f2e9;}</style></defs><rect class="cls-13" x="47.555" y="300.494" width="73.111" height="66.574"/><path class="cls-23" d="M96.93,171.888c0,15.626-12.668,28.294-28.294,28.294-15.626,0-28.294-12.668-28.294-28.294,0-15.626,12.668-28.294,28.294-28.294,15.626,0,28.294,12.668,28.294,28.294Z"/><path class="cls-1" d="M245.237,203.705h0c-6.146-4.056-7.841-12.326-3.785-18.472l3.915-5.933c1.61-2.44,3.884-4.178,6.425-5.133l18.033,12.86c-.067,2.399-.782,4.81-2.201,6.961l-3.915,5.933c-4.056,6.146-12.326,7.841-18.472,3.785Z"/><polygon class="cls-17" points="248.294 148.914 239.469 164.359 182.966 160.87 216.597 102.009 248.294 148.914"/><rect class="cls-9" x="246.999" y="147.921" width="23.797" height="34.589" transform="translate(-12.991 308.046) rotate(-60.258)"/><path class="cls-18" d="M270.201,172.369h12.342v3.661c0,1.104-.896,2-2,2h-8.342c-1.104,0-2-.896-2-2v-3.661h0Z" transform="translate(-12.855 328.249) rotate(-60.258)"/><path class="cls-18" d="M192.874,126.541h8.128c1.807,0,3.274,1.467,3.274,3.274v3.274h-14.677v-3.274c0-1.807,1.467-3.274,3.274-3.274Z" transform="translate(-13.476 236.41) rotate(-60.258)"/><rect class="cls-15" x="246.999" y="147.921" width="23.797" height="34.589" transform="translate(-12.991 308.046) rotate(-60.258)"/><polygon class="cls-10" points="248.294 148.914 239.469 164.359 182.966 160.87 216.597 102.009 248.294 148.914"/><path class="cls-12" d="M157.492,182.709c4.651,3.915,12.393,2.37,17.292-3.451,4.67-5.548,5.128-12.921,1.128-16.995l-.054-.055c-.698-2.491-2.098-4.772-4.182-6.526s-4.57-2.744-7.144-3.007c-4.696-3.244-11.947-1.58-16.617,3.967-4.9,5.821-5.102,13.713-.451,17.628l10.027,8.44Z"/><path class="cls-23" d="M157.492,182.709c4.651,3.915,12.393,2.37,17.292-3.451,4.67-5.548,5.128-12.921,1.128-16.995l-.054-.055c-.698-2.491-2.098-4.772-4.182-6.526s-4.57-2.744-7.144-3.007c-4.696-3.244-11.947-1.58-16.617,3.967-4.9,5.821-5.102,13.713-.451,17.628l10.027,8.44Z"/><path class="cls-22" d="M42.083,160.51s-4.984-4.471-9.288-2.502c-7.54,3.449-8.869,7.534-10.649,11.848-3.77,9.138-15.369,12.669-20.145,13.292,2.589,4.768,12.046,8.93,20.041,5.815,7.996-3.115,6.242-11.423,10.753-14.953s7.547-.919,7.547-.919l1.741-12.581Z"/><path class="cls-13" d="M359,210.452v46.615s-74.41,0-74.41,0v-61.991c0-20.548,16.657-37.205,37.205-37.205h0c7.851,0,15.133,2.432,21.136,6.583h0c6.771-12.865,10.85-29.471,10.85-47.6,0-4.36-.236-8.632-.689-12.786h.423s27.611,0,27.611,0h0c2.908,10.356,4.527,21.845,4.527,33.941,0,31.19-10.761,58.348-26.653,72.444h0Z"/><path class="cls-11" d="M298.705,367.4h-44.758c-4.971,0-9-4.029-9-9h0c0-8.092,6.56-14.652,14.652-14.652l45.036,4.331-3.931,17.321c0,1.105-.895,2-2,2Z"/><path class="cls-11" d="M366.222,367.4h-45.589c-4.971,0-9-3.292-9-7.352h0c0-6.61,6.56-11.969,14.652-11.969h40.937l1,17.688c0,.902-.895,1.634-2,1.634Z"/><path class="cls-22" d="M231.161,31.102c-18.101,4.999-22.153,9.051-27.152,27.152-4.999-18.101-9.051-22.153-27.152-27.152,18.101-4.999,22.153-9.051,27.152-27.152,4.999,18.101,9.051,22.153,27.152,27.152Z"/><path class="cls-20" d="M161.434,286.305c8.83,5.956,10.132,18.71,5.739,25.223-4.419,6.552-16.319,10.345-25.536,4.128-11.016-7.43-10.924-21.518-14.357-31.035,10.89-1.12,23.138-5.746,34.154,1.684Z"/><path class="cls-13" d="M131.754,106.606l4.579,13.295-14.038-10.437h0c-4.301.917-8.872,1.41-13.61,1.41-25.395,0-45.981-14.178-45.981-31.667s20.586-31.667,45.981-31.667,45.981,14.178,45.981,31.667c0,11.699-9.212,21.916-22.912,27.399h0Z"/><circle class="cls-20" cx="200.222" cy="274.895" r="24.126"/><polygon class="cls-18" points="327.444 257.067 358.66 257.067 367.222 348.079 324.339 348.079 318.961 290.916 304.636 348.079 263.362 344.11 285.175 257.067 327.444 257.067"/><path class="cls-2" d="M298.705,367.4h-44.758c-4.971,0-9-4.029-9-9h0c0-8.092,6.56-14.652,14.652-14.652l45.036,4.331-3.931,17.321c0,1.105-.895,2-2,2Z"/><path class="cls-2" d="M366.222,367.4h-45.589c-4.971,0-9-3.292-9-7.352h0c0-6.61,6.56-11.969,14.652-11.969h40.937l1,17.688c0,.902-.895,1.634-2,1.634Z"/><path class="cls-23" d="M355.118,104.068l-7.497-14.456c-1.052-2.029-.261-4.527,1.769-5.58h0c1.146-.594,2.421-.523,3.521-.05l.021-.078c2.201-8.33,8.059-14.287,14.939-14.287,8.765,0,15.87,9.668,15.87,21.593,0,4.724-1.115,9.093-3.006,12.648l-25.616.209"/><path class="cls-3" d="M284.589,224.623c-12.24.305-21.299-10.604-28.28-19.247"/><path class="cls-8" d="M285.554,186.623c-4.642,0-11.082,0-15.724,0"/><path class="cls-22" d="M55.144,175.99c-2.218-2.643-1.91-6.631.733-8.849,2.643-2.218,6.629-1.832,8.847.811l21.618-18.14c-10.313-8.289-25.372-8.426-35.893.402-10.521,8.828-13.001,23.682-6.629,35.278l11.324-9.502Z"/><path class="cls-13" d="M269.83,186.623c.028,2.568-.684,5.059-2.205,7.364l-3.915,5.933c-1.813,2.747-4.468,4.605-7.399,5.458l.094.115c6.982,8.643,15.946,19.435,28.186,19.13v-29.547c0-2.908.334-5.737.964-8.453h0c-4.642,0-11.082,0-15.724,0h0Z"/><path class="cls-5" d="M284.589,224.623c-12.24.305-21.299-10.604-28.28-19.247"/><path class="cls-12" d="M99.065,271.148c3.231,5.149,11.075,6.045,17.519,2.001,6.143-3.854,8.833-10.735,6.271-15.837l-.034-.068c.097-2.586-.538-5.185-1.986-7.493s-3.512-4.01-5.882-5.048c-3.48-4.525-10.892-5.157-17.034-1.304-6.445,4.044-9.05,11.496-5.819,16.646l6.966,11.102Z"/><rect class="cls-6" x="47.555" y="300.494" width="73.111" height="66.574"/><path class="cls-6" d="M96.93,171.888c0,15.626-12.668,28.294-28.294,28.294-15.626,0-28.294-12.668-28.294-28.294,0-15.626,12.668-28.294,28.294-28.294,15.626,0,28.294,12.668,28.294,28.294Z"/><path class="cls-6" d="M42.083,160.51s-4.984-4.471-9.288-2.502c-7.54,3.449-8.869,7.534-10.649,11.848-3.77,9.138-15.369,12.669-20.145,13.292,2.589,4.768,12.046,8.93,20.041,5.815,7.996-3.115,6.242-11.423,10.753-14.953s7.547-.919,7.547-.919l1.741-12.581Z"/><path class="cls-6" d="M55.144,175.99c-2.218-2.643-1.91-6.631.733-8.849,2.643-2.218,6.629-1.832,8.847.811l21.618-18.14c-10.313-8.289-25.372-8.426-35.893.402-10.521,8.828-13.001,23.682-6.629,35.278l11.324-9.502Z"/><path class="cls-6" d="M157.492,182.709c4.651,3.915,12.393,2.37,17.292-3.451,4.67-5.548,5.128-12.921,1.128-16.995l-.054-.055c-.698-2.491-2.098-4.772-4.182-6.526s-4.57-2.744-7.144-3.007c-4.696-3.244-11.947-1.58-16.617,3.967-4.9,5.821-5.102,13.713-.451,17.628l10.027,8.44Z"/><path class="cls-6" d="M270.201,172.369h12.342v3.661c0,1.104-.896,2-2,2h-8.342c-1.104,0-2-.896-2-2v-3.661h0Z" transform="translate(-12.855 328.249) rotate(-60.258)"/><rect class="cls-6" x="246.999" y="147.921" width="23.797" height="34.589" transform="translate(-12.991 308.046) rotate(-60.258)"/><polygon class="cls-6" points="248.294 148.914 239.469 164.359 182.966 160.87 216.597 102.009 248.294 148.914"/><path class="cls-6" d="M192.874,126.541h8.128c1.807,0,3.274,1.467,3.274,3.274v3.274h-14.677v-3.274c0-1.807,1.467-3.274,3.274-3.274Z" transform="translate(-13.476 236.41) rotate(-60.258)"/><path class="cls-6" d="M245.237,203.705h0c-6.146-4.056-7.841-12.326-3.785-18.472l3.915-5.933c1.61-2.44,3.884-4.178,6.425-5.133l18.033,12.86c-.067,2.399-.782,4.81-2.201,6.961l-3.915,5.933c-4.056,6.146-12.326,7.841-18.472,3.785Z"/><polygon class="cls-6" points="327.444 257.067 358.66 257.067 367.222 348.079 324.339 348.079 318.961 290.916 304.636 348.079 263.362 344.11 285.175 257.067 327.444 257.067"/><path class="cls-6" d="M269.83,186.623c-.025,2.703-.776,5.293-2.205,7.364l-3.915,5.933c-1.813,2.747-4.468,4.605-7.399,5.458l.094.115c6.982,8.643,15.946,19.435,28.186,19.13v-29.547c0-2.908.334-5.737.964-8.453h0c-4.642,0-11.082,0-15.724,0h0Z"/><path class="cls-6" d="M358.999,210.452v46.616s-74.41,0-74.41,0v-61.991c0-20.548,16.657-37.205,37.205-37.205h0c7.851,0,15.133,2.432,21.136,6.583"/><path class="cls-6" d="M326.134,184.593c16.28-11.457,27.647-37.476,27.647-67.74,0-4.36-.236-8.632-.689-12.786h.423s27.611,0,27.611,0h0c2.908,10.356,4.527,21.845,4.527,33.941,0,44.122-21.535,80.176-48.665,82.596"/><path class="cls-6" d="M355.118,104.068l-7.497-14.456c-1.052-2.029-.261-4.527,1.769-5.58h0c1.146-.594,2.421-.523,3.521-.05l.021-.078c2.201-8.33,8.059-14.287,14.939-14.287,8.765,0,15.87,9.668,15.87,21.593,0,4.724-1.115,9.093-3.006,12.648l-25.616.209"/><path class="cls-6" d="M298.705,367.4h-44.758c-4.971,0-9-4.029-9-9h0c0-8.092,6.56-14.652,14.652-14.652l45.036,4.331-3.931,17.321c0,1.105-.895,2-2,2Z"/><path class="cls-6" d="M366.222,367.4h-45.589c-4.971,0-9-3.292-9-7.352h0c0-6.61,6.56-11.969,14.652-11.969h40.937l1,17.688c0,.902-.895,1.634-2,1.634Z"/><path class="cls-6" d="M131.754,106.606l4.579,13.295-14.038-10.437h0c-4.301.917-8.872,1.41-13.61,1.41-25.395,0-45.981-14.178-45.981-31.667s20.586-31.667,45.981-31.667,45.981,14.178,45.981,31.667c0,11.699-9.212,21.916-22.912,27.399h0Z"/><path class="cls-6" d="M231.161,31.102c-18.101,4.999-22.153,9.051-27.152,27.152-4.999-18.101-9.051-22.153-27.152-27.152,18.101-4.999,22.153-9.051,27.152-27.152,4.999,18.101,9.051,22.153,27.152,27.152Z"/><line class="cls-6" x1="232.901" y1="65.176" x2="226.66" y2="89.176"/><line class="cls-6" x1="249.298" y1="81.829" x2="237.264" y2="98.311"/><path class="cls-19" d="M74.148,199.647c15.632,5.808,33.903,2.43,46.466-10.133l21.564-21.564,23.599,18.673-62.407,50.889-29.222-37.864Z"/><path class="cls-16" d="M256.019,189.142l-7.742-5.109c-2.479-1.636-3.162-4.971-1.527-7.45h0c1.636-2.479,4.971-3.162,7.45-1.527l13.281,8.764c2.479,1.636,3.162,4.971,1.527,7.45"/><path class="cls-1" d="M314.833,121.018l-28.154-8.964c-3.635-1.157-5.643-5.042-4.486-8.677l.372-1.169c1.157-3.635,5.042-5.643,8.677-4.486l12.024,3.828,11.567,19.468Z"/><path class="cls-1" d="M314.833,121.018l-28.154-8.964c-3.635-1.157-5.643-5.042-4.486-8.677l.372-1.169c1.157-3.635,5.042-5.643,8.677-4.486l12.024,3.828,11.567,19.468Z"/><path class="cls-4" d="M314.833,121.018l-28.154-8.964c-3.635-1.157-5.643-5.042-4.486-8.677l.372-1.169c1.157-3.635,5.042-5.643,8.677-4.486l12.024,3.828,11.567,19.468Z"/><path class="cls-7" d="M314.833,121.018l-28.154-8.964c-3.635-1.157-5.643-5.042-4.486-8.677l.372-1.169c1.157-3.635,5.042-5.643,8.677-4.486l12.024,3.828,11.567,19.468Z"/><path class="cls-19" d="M314.833,121.018l-28.154-8.964c-3.635-1.157-5.643-5.042-4.486-8.677l.372-1.169c1.157-3.635,5.042-5.643,8.677-4.486l12.024,3.828,11.567,19.468Z"/><path class="cls-6" d="M77.911,200.855c14.73,4.007,31.136.226,42.703-11.341l21.564-21.564,23.599,18.673-62.407,50.889-27.493-35.625s.766-1.377,2.034-1.032Z"/><path class="cls-6" d="M256.019,189.142l-7.742-5.109c-2.479-1.636-3.162-4.971-1.527-7.45h0c1.636-2.479,4.971-3.162,7.45-1.527l13.281,8.764c2.479,1.636,3.162,4.971,1.527,7.45l-.636,1.405"/><path class="cls-6" d="M314.833,121.018l-28.154-8.964c-3.635-1.157-5.643-5.042-4.486-8.677l.372-1.169c1.157-3.635,5.042-5.643,8.677-4.486l12.024,3.828,11.567,19.468Z"/><rect class="cls-14" x="110.05" y="189.386" width="125.464" height="153.666" transform="translate(-23.326 16.683) rotate(-5.179)"/><circle class="cls-15" cx="200.222" cy="274.895" r="24.126"/><rect class="cls-2" x="171.333" y="273.886" width="2.491" height="60.338" transform="translate(98.861 -37.703) rotate(17.406)"/><path class="cls-15" d="M161.434,286.305c8.83,5.956,10.132,18.71,5.739,25.223-4.419,6.552-16.319,10.345-25.536,4.128-11.016-7.43-10.924-21.518-14.357-31.035,10.89-1.12,23.138-5.746,34.154,1.684Z"/><path class="cls-19" d="M58.667,266.219l29.333-12.799,14.49,24.567c-11.88,21.352-33.498,32.851-52.236,26.293-21.697-7.593-31.316-36.52-21.486-64.609,9.83-28.089,35.388-44.705,57.085-37.112,8.704,3.046,15.464,9.525,19.805,18.006l7.241,79.927h-31.927"/><circle class="cls-23" cx="317.287" cy="127.922" r="29.867"/><path class="cls-1" d="M346.98,131.253c1.57-13.881-6.814-27.393-20.631-31.792s-28.469,1.778-35.214,14.012l55.845,17.78Z"/><path class="cls-19" d="M346.98,131.253c1.57-13.881-6.814-27.393-20.631-31.792s-28.469,1.778-35.214,14.012l55.845,17.78Z"/><path class="cls-21" d="M324.134,141.139c3.632-.273,6.418-3.446,6.145-7.077-.273-3.632-3.503-6.359-7.134-6.086l-.333-4.43,24.186,7.469c-.962,9.352-6.286,17.549-14.029,22.334l-8.835-12.209Z"/><circle class="cls-7" cx="317.287" cy="127.922" r="29.867"/><path class="cls-7" d="M346.98,131.253c1.57-13.881-6.814-27.393-20.631-31.792s-28.469,1.778-35.214,14.012l55.845,17.78Z"/><path class="cls-6" d="M161.434,286.305c8.83,5.956,10.132,18.71,5.739,25.223-4.419,6.552-16.319,10.345-25.536,4.128-11.016-7.43-10.924-21.518-14.357-31.035,10.89-1.12,23.138-5.746,34.154,1.684Z"/><rect class="cls-6" x="171.333" y="273.886" width="2.491" height="60.338" transform="translate(98.861 -37.703) rotate(17.406)"/><rect class="cls-6" x="110.05" y="189.386" width="125.464" height="153.666" transform="translate(-23.326 16.683) rotate(-5.179)"/><path class="cls-6" d="M58.667,266.219l29.333-12.799,14.49,24.567c-11.88,21.352-33.498,32.851-52.236,26.293-21.697-7.593-31.316-36.52-21.486-64.609,9.83-28.089,35.388-44.705,57.085-37.112,8.704,3.046,15.464,9.525,19.805,18.006l7.241,79.927h-31.927"/><line class="cls-6" x1="63.333" y1="241.234" x2="63.333" y2="264.183"/><path class="cls-6" d="M324.134,141.139c3.632-.273,6.418-3.446,6.145-7.077-.273-3.632-3.503-6.359-7.134-6.086l-.333-4.43,24.186,7.469c-.962,9.352-6.286,17.549-14.029,22.334l-8.835-12.209Z"/><path class="cls-23" d="M99.065,271.148c3.231,5.149,11.075,6.045,17.519,2.001,6.143-3.854,8.833-10.735,6.271-15.837l-.034-.068c.097-2.586-.538-5.185-1.986-7.493s-3.512-4.01-5.882-5.048c-3.48-4.525-10.892-5.157-17.034-1.304-6.445,4.044-9.05,11.496-5.819,16.646l6.966,11.102Z"/><circle class="cls-6" cx="200.222" cy="274.895" r="24.126"/><path class="cls-6" d="M99.065,271.148c3.231,5.149,11.075,6.045,17.519,2.001,6.143-3.854,8.833-10.735,6.271-15.837l-.034-.068c.097-2.586-.538-5.185-1.986-7.493s-3.512-4.01-5.882-5.048c-3.48-4.525-10.892-5.157-17.034-1.304-6.445,4.044-9.05,11.496-5.819,16.646l6.966,11.102Z"/><polygon class="cls-22" points="196.638 238.947 179.179 246.322 186.307 263.889 168.741 256.76 161.366 274.219 153.992 256.76 136.425 263.888 143.554 246.322 126.095 238.947 143.554 231.572 136.426 214.006 153.992 221.135 161.366 203.676 168.741 221.135 186.308 214.007 179.179 231.573 196.638 238.947"/><polygon class="cls-6" points="196.638 238.947 179.179 246.322 186.307 263.889 168.741 256.76 161.366 274.219 153.992 256.76 136.425 263.888 143.554 246.322 126.095 238.947 143.554 231.572 136.426 214.006 153.992 221.135 161.366 203.676 168.741 221.135 186.308 214.007 179.179 231.573 196.638 238.947"/></svg>