<?xml version="1.0" encoding="UTF-8"?><svg id="_レイヤー_1" xmlns="http://www.w3.org/2000/svg" viewBox="0 0 380.984 345.556"><defs><style>.cls-1{fill:#f5f5ee;}.cls-2{fill:#b16239;}.cls-3{fill:#f7c43b;}.cls-4{fill:#d8d8d4;}.cls-5{fill:#838cad;}.cls-6{fill:#443931;}.cls-7{fill:#fff;}.cls-8{fill:#a6b791;}.cls-9{fill:#dcc9aa;}.cls-10{stroke:#443931;}.cls-10,.cls-11,.cls-12{fill:none;stroke-linecap:round;stroke-linejoin:round;stroke-width:2px;}.cls-13{fill:#889eab;}.cls-11{stroke:#3d201e;}.cls-14{fill:#f7844f;}.cls-15{fill:#902f31;}.cls-16{fill:#e5be43;}.cls-12{stroke:#55e400;}.cls-17{fill:#f5f2e9;}</style></defs><path class="cls-4" d="M326.259,270.745c-.134-.614,4.29-3.337,4.827-3.616,2.755-1.437,6.889-1.117,9.755-.268,5.042,1.493,8.671,5.406,10.563,10.218,1.208,3.074,1.855,6.361,2.45,9.599.966,5.257,1.292,10.647.737,15.971-.232,2.221-.642,4.498-1.864,6.368-1.883,2.883-5.436,4.834-8.157,6.854-.598.444-7.472,4.655-7.355,5.192,0,0-1.98-9.091-1.98-9.091,1.901-1.014,3.766-2.126,5.546-3.34,1.156-.789,2.549-1.654,3.351-2.804,1.282-1.837,1.543-4.313,1.953-6.461.474-2.481.64-5.05.524-7.572-.147-3.189-.811-6.354-1.984-9.325-.982-2.488-2.145-5.38-4.345-7.053-2.496-1.898-5.646-.534-8.147.654-.333.158-4.284,1.985-4.207,2.341,0,0-1.666-7.65-1.669-7.666Z"/><path class="cls-4" d="M267.404,335.71l16.69-76.647h39.621l16.69,76.647c0,3.684-16.342,6.67-36.5,6.67s-36.5-2.986-36.5-6.67Z"/><ellipse class="cls-14" cx="303.904" cy="240.628" rx="6.083" ry="4.297"/><path class="cls-4" d="M253.738,261.563c1.754.939,3.599,2.025,5.02,3.439,1.325,1.319,1.958,3.5,2.605,5.259,3.317,9.009,2.772,18.43,4.388,27.746.436,2.515.997,4.695,2.33,6.847s2.894,4.11,4.774,5.823c0,0,7.024-32.257,7.026-32.265.069-.317-4.554-3.635-5.09-4.12-1.747-1.58-3.38-3.289-4.812-5.162-2.394-3.129-4.334-6.685-6.352-10.067-2.333-.491-4.271-.755-6.35-.316-.99.209-1.695.615-2.403,1.336-.078.079-1.184,1.454-1.136,1.48Z"/><path class="cls-16" d="M239.081,321.713h-5.232c-6.627,0-12-5.373-12-12v-5.871c0-6.627,5.373-12,12-12h5.232c6.627,0,12,5.373,12,12v5.871c0,6.627-5.373,12-12,12ZM243.622,309.935v-6.314c0-2.209-1.791-4-4-4h-6.314c-2.209,0-4,1.791-4,4v6.314c0,2.209,1.791,4,4,4h6.314c2.209,0,4-1.791,4-4Z"/><path class="cls-11" d="M181.516,288.047v-142.853c0-53.111,43.055-96.166,96.166-96.166h0c53.111,0,96.166,43.055,96.166,96.166v142.853"/><path class="cls-9" d="M277.682,49.028h0c53.076,0,96.166,43.091,96.166,96.166v67.184h-192.333v-67.184c0-53.076,43.091-96.166,96.166-96.166Z"/><path class="cls-15" d="M271.869,93.047h10.628c27.055,0,49.019,21.965,49.019,49.019v49.019h-108.666v-49.019c0-27.055,21.965-49.019,49.019-49.019Z"/><path class="cls-14" d="M262.715,167.84c-1.566,6.889-4.724,11.698-8.695,12.105-6.334.648-12.294-10.011-13.313-23.808s7.62-20.71,9.625-26.155c2.334,3.435,7.251,6.868,10.438,13.138l.013-.152c1.625-18.585,12.57-27.155,15.643-34.755,3.782,7.774,14.067,16.26,15.215,35.09h0c3.413-6.603,8.725-10.206,10.717-13.71,2.541,5.585,10.474,12.2,9.266,26.013-1.209,13.813-7.316,24.563-13.642,24.009-4.022-.352-7.164-5.188-8.608-12.215l-.135.54c-2.807,11.37-7.685,18.457-13.352,18.499-5.618.042-10.491-7.379-13.157-18.544l-.016-.056Z"/><polyline class="cls-9" points="265.849 49.752 265.849 10.047 313.182 10.047 313.182 55.943"/><path class="cls-7" d="M40.183,199.603l3.292-4.149-33.155-21.215c11.331-23.273,35.904-39.394,64.394-39.394,29.435,0,54.69,17.209,65.478,41.735l-18.279,18.243v22.715l-65.732-6.943-15.999-10.992"/><path class="cls-12" d="M33.459,329.548c-4.277,6.461-12.565,9.403-20.166,6.636h0c-8.903-3.24-13.493-13.084-10.252-21.987l9.395-25.813c3.24-8.903,13.084-13.493,21.987-10.253l5.083,2.324"/><path class="cls-5" d="M33.459,329.548c-4.277,6.461-12.565,9.403-20.166,6.636h0c-8.903-3.24-13.493-13.084-10.252-21.987l9.395-25.813c3.24-8.903,13.084-13.493,21.987-10.253l5.083,2.324"/><path class="cls-13" d="M33.459,329.548c-4.277,6.461-12.565,9.403-20.166,6.636h0c-8.903-3.24-13.493-13.084-10.252-21.987l9.395-25.813c3.24-8.903,13.084-13.493,21.987-10.253l5.083,2.324"/><path class="cls-2" d="M53.011,279.719c4.739,5.21,16.385,12.506,20.959,24.673,3.391.145,6.79.209,10.184.177,6.676-.063,13.218-1.537,19.775-2.62,6.536-1.08,13.102-1.978,19.642-3.034,4.579-.739,9.15-1.535,13.696-2.455h0s0,10.422,0,10.422c0,15.003-12.162,27.165-27.165,27.165H44.166c-8.284,0-15-6.716-15-15v-24.33c0-8.284,6.716-15,15-15h8.844s0,.002,0,.002Z"/><path class="cls-2" d="M110.101,334.047h33.805c15.003,0,27.165-12.162,27.165-27.165v-11.165c0-2.401-.529-4.678-1.476-6.722l-32.329,7.464v10.423c0,15.003-12.162,27.165-27.165,27.165"/><path class="cls-13" d="M115.639,147.308l1.342,20.962h-4.899s-1.559-24.127-1.559-24.127c1.755.986,3.462,2.043,5.116,3.166Z"/><path class="cls-13" d="M76.583,134.868c1.649.041,3.285.136,4.905.283h0l-4.379,33.118h-4.931s4.406-33.401,4.406-33.401Z"/><polygon class="cls-9" points="218.249 200.679 204.333 204.56 203.369 196.575 212.636 193.991 218.249 200.679"/><path class="cls-10" d="M267.404,335.71l16.69-76.647h39.621l16.69,76.647c0,3.684-16.342,6.67-36.5,6.67s-36.5-2.986-36.5-6.67Z"/><path class="cls-10" d="M326.259,270.745c-.134-.614,4.29-3.337,4.827-3.616,2.755-1.437,6.889-1.117,9.755-.268,5.042,1.493,8.671,5.406,10.563,10.218,1.208,3.074,1.855,6.361,2.45,9.599.966,5.257,1.292,10.647.737,15.971-.232,2.221-.642,4.498-1.864,6.368-1.883,2.883-5.436,4.834-8.157,6.854-.598.444-7.472,4.655-7.355,5.192,0,0-1.98-9.091-1.98-9.091,1.901-1.014,3.766-2.126,5.546-3.34,1.156-.789,2.549-1.654,3.351-2.804,1.282-1.837,1.543-4.313,1.953-6.461.474-2.481.64-5.05.524-7.572-.147-3.189-.811-6.354-1.984-9.325-.982-2.488-2.145-5.38-4.345-7.053-2.496-1.898-5.646-.534-8.147.654-.333.158-4.284,1.985-4.207,2.341,0,0-1.666-7.65-1.669-7.666Z"/><path class="cls-10" d="M253.738,261.563c1.754.939,3.599,2.025,5.02,3.439,1.325,1.319,1.958,3.5,2.605,5.259,3.317,9.009,2.772,18.43,4.388,27.746.436,2.515.997,4.695,2.33,6.847s2.894,4.11,4.774,5.823c0,0,7.024-32.257,7.026-32.265.069-.317-4.554-3.635-5.09-4.12-1.747-1.58-3.38-3.289-4.812-5.162-2.394-3.129-4.334-6.685-6.352-10.067-2.333-.491-4.271-.755-6.35-.316-.99.209-1.695.615-2.403,1.336-.078.079-1.184,1.454-1.136,1.48Z"/><ellipse class="cls-10" cx="303.904" cy="240.628" rx="6.083" ry="4.297"/><path class="cls-10" d="M239.081,321.713h-5.232c-6.627,0-12-5.373-12-12v-5.871c0-6.627,5.373-12,12-12h5.232c6.627,0,12,5.373,12,12v5.871c0,6.627-5.373,12-12,12ZM243.622,309.935v-6.314c0-2.209-1.791-4-4-4h-6.314c-2.209,0-4,1.791-4,4v6.314c0,2.209,1.791,4,4,4h6.314c2.209,0,4-1.791,4-4Z"/><path class="cls-10" d="M277.682,49.028h0c53.076,0,96.166,43.091,96.166,96.166v67.184h-192.333v-67.184c0-53.076,43.091-96.166,96.166-96.166Z"/><path class="cls-10" d="M271.869,93.047h10.628c27.055,0,49.019,21.965,49.019,49.019v49.019h-108.666v-49.019c0-27.055,21.965-49.019,49.019-49.019Z"/><path class="cls-10" d="M262.715,167.84c-1.566,6.889-4.724,11.698-8.695,12.105-6.334.648-12.294-10.011-13.313-23.808s7.62-20.71,9.625-26.155c2.334,3.435,7.251,6.868,10.438,13.138l.013-.152c1.625-18.585,12.57-27.155,15.643-34.755,3.782,7.774,14.067,16.26,15.215,35.09h0c3.413-6.603,8.725-10.206,10.717-13.71,2.541,5.585,10.474,12.2,9.266,26.013-1.209,13.813-7.316,24.563-13.642,24.009-4.022-.352-7.164-5.188-8.608-12.215l-.135.54c-2.807,11.37-7.685,18.457-13.352,18.499-5.618.042-10.491-7.379-13.157-18.544l-.016-.056Z"/><path class="cls-10" d="M181.516,288.047v-142.853c0-53.111,43.055-96.166,96.166-96.166h0c53.111,0,96.166,43.055,96.166,96.166v142.853"/><polyline class="cls-10" points="265.849 49.752 265.849 10.047 313.182 10.047 313.182 55.943"/><polygon class="cls-10" points="218.249 200.679 204.333 204.56 203.369 196.575 212.636 193.991 218.249 200.679"/><path class="cls-10" d="M178.34,187.659h0c2.595-1.59,5.646-2.506,8.912-2.506,9.433,0,17.081,7.647,17.081,17.081s-7.647,17.081-17.081,17.081c-4.571,0-8.639-1.716-11.704-4.64l-.083-.082"/><path class="cls-10" d="M40.183,199.603l3.292-4.149-33.155-21.215c11.331-23.273,35.904-39.394,64.394-39.394,29.435,0,54.69,17.209,65.478,41.735l-18.279,18.243v22.715l-65.732-6.943-15.999-10.992"/><path class="cls-10" d="M115.639,147.308l1.342,20.962h-4.899s-1.559-24.127-1.559-24.127c1.755.986,3.462,2.043,5.116,3.166Z"/><path class="cls-10" d="M76.583,134.868c1.649.041,3.285.136,4.905.283h0l-4.379,33.118h-4.931s4.406-33.401,4.406-33.401Z"/><path class="cls-10" d="M110.101,334.047h33.805c15.003,0,27.165-12.162,27.165-27.165v-11.165c0-2.401-.529-4.678-1.476-6.722l-32.329,7.464v10.423c0,15.003-12.162,27.165-27.165,27.165"/><path class="cls-10" d="M53.011,279.719c4.739,5.21,16.385,12.506,20.959,24.673,3.391.145,6.79.209,10.184.177,6.676-.063,13.218-1.537,19.775-2.62,6.536-1.08,13.102-1.978,19.642-3.034,4.579-.739,9.15-1.535,13.696-2.455h0s0,10.422,0,10.422c0,15.003-12.162,27.165-27.165,27.165H44.166c-8.284,0-15-6.716-15-15v-24.33c0-8.284,6.716-15,15-15h8.844s0,.002,0,.002Z"/><path class="cls-10" d="M33.459,329.548c-4.277,6.461-12.565,9.403-20.166,6.636h0c-8.903-3.24-13.493-13.084-10.252-21.987l9.395-25.813c3.24-8.903,13.084-13.493,21.987-10.253l5.083,2.324"/><line class="cls-10" x1="182.749" y1="2" x2="194.416" y2="31.333"/><line class="cls-10" x1="216.749" y1="4.667" x2="214.083" y2="27.667"/><line class="cls-10" x1="159.416" y1="27.667" x2="177.083" y2="41.667"/><line class="cls-10" x1="181.516" y1="191.086" x2="373.849" y2="191.086"/><path class="cls-13" d="M172.172,288.378c-9.742,2.343-19.501,4.632-29.268,6.869-6.396,1.464-12.857,2.623-19.334,3.669-6.54,1.056-13.106,1.955-19.642,3.034-6.557,1.083-13.099,2.557-19.775,2.62-3.394.032-6.793-.032-10.184-.177-4.574-12.167-16.22-19.463-20.959-24.673-6.308-6.934-10.345-17.576-10.345-29.507,0-3.662.343-7.012,1.053-10.361l.037-.19c3.504.712,7.152,1.196,10.906,1.427,1.265,6.081,6.654,10.807,13.11,10.807,2.427,0,4.668-.865,6.631-1.994,7.725-1.275,13.618-7.986,13.618-16.073,0-8.997-7.294-16.291-16.291-16.291-1.568,0-3.084.221-4.518.635l-9.098-6.251h0s8.847-43.653,8.847-43.653h56.202v68.828c9.481,5.065,19.045,12.234,27.801,21.251,9.247,9.522,16.407,19.884,21.21,30.028"/><path class="cls-4" d="M284.061,259.058c1.237-7.969,9.65-14.133,19.843-14.133s18.666,6.208,19.856,14.218c0,1.381-8.915,2.42-19.856,2.42s-19.843-1.124-19.843-2.505Z"/><path class="cls-16" d="M189.183,283.38h45v32.667c0,9.934-8.066,18-18,18h-9c-9.934,0-18-8.066-18-18v-32.667h0Z"/><path class="cls-2" d="M327.182,186.413v3.733c0,13.457-25.642,24.366-57.273,24.366s-57.273-10.909-57.273-24.366v-3.733c0-13.457,25.642-24.366,57.273-24.366s57.273,10.909,57.273,24.366Z"/><ellipse class="cls-7" cx="269.909" cy="186.413" rx="57.273" ry="24.366"/><path class="cls-9" d="M234.182,182.465c0-8.245,16.186-14.928,36.152-14.928s36.152,6.684,36.152,14.928v4.84c0,8.245-16.186,14.928-36.152,14.928s-36.152-6.684-36.152-14.928v-4.84Z"/><ellipse class="cls-17" cx="270.335" cy="182.465" rx="36.152" ry="14.928"/><ellipse class="cls-14" cx="288.978" cy="183.319" rx="4.433" ry="2.381"/><ellipse class="cls-14" cx="271.579" cy="174.241" rx="4.433" ry="2.381"/><ellipse class="cls-14" cx="270.823" cy="188.705" rx="4.433" ry="2.381"/><ellipse class="cls-14" cx="252.306" cy="182.658" rx="4.433" ry="2.381"/><path class="cls-17" d="M140.192,176.58c1.083,2.427,1.979,4.65,2.75,7.173l.088.237c3.321-.442,6.775-.671,10.405-.671,9.553,0,18.274,1.639,24.904,4.34h0c2.595-1.59,5.646-2.506,8.912-2.506,9.433,0,17.081,7.647,17.081,17.081s-7.647,17.081-17.081,17.081c-4.571,0-8.639-1.716-11.704-4.64l-.083-.082c-6.189,2.063-13.8,3.279-22.029,3.279-12.42,0-23.433-2.771-30.274-7.042v-17.253l17.03-16.997Z"/><path class="cls-1" d="M87.725,94.346l30.894-10.209c3.989-1.318,6.154-5.62,4.835-9.609l-.424-1.283c-1.318-3.989-5.62-6.154-9.609-4.835l-13.194,4.36-12.502,21.576Z"/><path class="cls-1" d="M87.725,94.346l30.894-10.209c3.989-1.318,6.154-5.62,4.835-9.609l-.424-1.283c-1.318-3.989-5.62-6.154-9.609-4.835l-13.194,4.36-12.502,21.576Z"/><path class="cls-3" d="M87.725,94.346l30.894-10.209c3.989-1.318,6.154-5.62,4.835-9.609l-.424-1.283c-1.318-3.989-5.62-6.154-9.609-4.835l-13.194,4.36-12.502,21.576Z"/><path class="cls-11" d="M87.725,94.346l30.894-10.209c3.989-1.318,6.154-5.62,4.835-9.609l-.424-1.283c-1.318-3.989-5.62-6.154-9.609-4.835l-13.194,4.36-12.502,21.576Z"/><path class="cls-8" d="M87.725,94.346l30.894-10.209c3.989-1.318,6.154-5.62,4.835-9.609l-.424-1.283c-1.318-3.989-5.62-6.154-9.609-4.835l-13.194,4.36-12.502,21.576Z"/><path class="cls-10" d="M172.172,288.378c-9.742,2.343-19.501,4.632-29.268,6.869-6.396,1.464-12.857,2.623-19.334,3.669-6.54,1.056-13.106,1.955-19.642,3.034-6.557,1.083-13.099,2.557-19.775,2.62-3.394.032-6.793-.032-10.184-.177-4.574-12.167-16.22-19.463-20.959-24.673-6.308-6.934-10.345-17.576-10.345-29.507,0-3.662.343-7.012,1.053-10.361l.037-.19c3.504.712,7.152,1.196,10.906,1.427,1.265,6.081,6.654,10.807,13.11,10.807,2.427,0,4.668-.865,6.631-1.994,7.725-1.275,13.618-7.986,13.618-16.073,0-8.997-7.294-16.291-16.291-16.291-1.568,0-3.084.221-4.518.635l-9.098-6.251h0s8.847-43.653,8.847-43.653h56.202v68.828c9.481,5.065,19.045,12.234,27.801,21.251,9.247,9.522,16.407,19.884,21.21,30.028"/><path class="cls-10" d="M284.061,259.058c1.237-7.969,9.65-14.133,19.843-14.133s18.666,6.208,19.856,14.218c0,1.381-8.915,2.42-19.856,2.42s-19.843-1.124-19.843-2.505Z"/><path class="cls-10" d="M189.183,283.38h45v32.667c0,9.934-8.066,18-18,18h-9c-9.934,0-18-8.066-18-18v-32.667h0Z"/><path class="cls-10" d="M188.089,199.998c0,4.486,3.636,8.596,8.122,8.596,2.175,0,4.291-.891,5.811-2.447,1.426-1.46,2.603-3.836,2.239-5.922-.417-2.395-1.206-4.791-2.432-6.899"/><ellipse class="cls-10" cx="270.335" cy="182.465" rx="36.152" ry="14.928"/><path class="cls-10" d="M327.182,186.413v3.733c0,13.457-25.642,24.366-57.273,24.366s-57.273-10.909-57.273-24.366v-3.733c0-13.457,25.642-24.366,57.273-24.366s57.273,10.909,57.273,24.366Z"/><ellipse class="cls-10" cx="269.909" cy="186.413" rx="57.273" ry="24.366"/><path class="cls-10" d="M234.182,182.465c0-8.245,16.186-14.928,36.152-14.928s36.152,6.684,36.152,14.928v4.84c0,8.245-16.186,14.928-36.152,14.928s-36.152-6.684-36.152-14.928v-4.84Z"/><ellipse class="cls-10" cx="288.978" cy="183.319" rx="4.433" ry="2.381"/><ellipse class="cls-10" cx="252.306" cy="182.658" rx="4.433" ry="2.381"/><ellipse class="cls-10" cx="271.579" cy="174.241" rx="4.433" ry="2.381"/><ellipse class="cls-10" cx="270.823" cy="188.705" rx="4.433" ry="2.381"/><path class="cls-10" d="M140.192,176.58c1.083,2.427,1.979,4.65,2.75,7.173l.088.237c3.321-.442,6.775-.671,10.405-.671,9.553,0,18.274,1.639,24.904,4.34h0c2.595-1.59,5.646-2.506,8.912-2.506,9.433,0,17.081,7.647,17.081,17.081s-7.647,17.081-17.081,17.081c-4.571,0-8.639-1.716-11.704-4.64l-.083-.082c-6.189,2.063-13.8,3.279-22.029,3.279-12.42,0-23.433-2.771-30.274-7.042v-17.253l17.03-16.997Z"/><path class="cls-10" d="M87.725,94.346l30.894-10.209c3.989-1.318,6.154-5.62,4.835-9.609l-.424-1.283c-1.318-3.989-5.62-6.154-9.609-4.835l-13.194,4.36-12.502,21.576Z"/><rect class="cls-9" x="21.005" y="222.68" width="178.609" height="7.95" rx="3.975" ry="3.975" transform="translate(-56.832 37.964) rotate(-15.583)"/><circle class="cls-17" cx="85.105" cy="101.978" r="32.89"/><path class="cls-1" d="M52.449,106.003c-1.896-15.266,7.174-30.245,22.335-35.256,15.162-5.01,31.37,1.616,38.945,15.006l-61.28,20.25Z"/><path class="cls-8" d="M52.449,106.003c-1.896-15.266,7.174-30.245,22.335-35.256,15.162-5.01,31.37,1.616,38.945,15.006l-61.28,20.25Z"/><path class="cls-6" d="M77.725,116.614c-4.002-.257-7.109-3.717-6.852-7.72.257-4.002,3.781-7.045,7.783-6.788l.313-4.882-26.543,8.515c1.172,10.287,7.132,19.249,15.717,24.425l9.582-13.55Z"/><circle class="cls-11" cx="85.105" cy="101.978" r="32.89"/><path class="cls-11" d="M52.449,106.003c-1.896-15.266,7.174-30.245,22.335-35.256,15.162-5.01,31.37,1.616,38.945,15.006l-61.28,20.25Z"/><rect class="cls-10" x="21.005" y="222.68" width="178.609" height="7.95" rx="3.975" ry="3.975" transform="translate(-56.832 37.964) rotate(-15.583)"/><path class="cls-10" d="M52.449,106.003c-1.896-15.266,7.174-30.245,22.335-35.256,15.162-5.01,31.37,1.616,38.945,15.006l-61.28,20.25Z"/><path class="cls-10" d="M77.725,116.614c-4.002-.257-7.109-3.717-6.852-7.72.257-4.002,3.781-7.045,7.783-6.788l.313-4.882-26.543,8.515c1.172,10.287,7.132,19.249,15.717,24.425l9.582-13.55Z"/><circle class="cls-10" cx="85.105" cy="101.978" r="32.89"/><path class="cls-17" d="M67.211,218.173c1.435-.413,2.951-.635,4.518-.635,8.997,0,16.291,7.294,16.291,16.291,0,8.087-5.892,14.797-13.618,16.073-1.963,1.129-4.203,1.994-6.631,1.994-6.457,0-11.846-4.726-13.11-10.807-28.598-1.761-51.01-18.203-51.01-38.225v.315c0-10.344,2.39-20.152,6.669-28.939l33.155,21.215-3.292,4.149,27.028,18.57Z"/><path class="cls-17" d="M188.293,199.581c0,4.486,3.432,9.013,7.918,9.013s8.122-3.636,8.122-8.122c0,0-.847-3.564-.964-3.896s-1.158-2.598-1.298-2.838-13.779,5.843-13.779,5.843Z"/><path class="cls-10" d="M67.211,218.173c1.435-.413,2.951-.635,4.518-.635,8.997,0,16.291,7.294,16.291,16.291,0,8.087-5.892,14.797-13.618,16.073-1.963,1.129-4.203,1.994-6.631,1.994-6.457,0-11.846-4.726-13.11-10.807-28.598-1.761-51.01-18.203-51.01-38.225v.315c0-10.344,2.39-20.152,6.669-28.939l33.155,21.215-3.292,4.149,27.028,18.57Z"/><path class="cls-10" d="M201.189,192.356c.475.638-.587-.779.881,1.375,1.128,1.655,1.765,3.859,2.08,5.821.478,2.975-.854,5.896-3.325,7.605-1.351.934-2.972,1.437-4.614,1.437-4.486,0-8.122-3.636-8.122-8.122,0,0-.014-.591,0-1.008"/></svg>