<?xml version="1.0" encoding="UTF-8"?><svg id="_レイヤー_1" xmlns="http://www.w3.org/2000/svg" viewBox="0 0 449.873 297.318"><defs><style>.cls-1{fill:#f5f5ee;}.cls-2{fill:#b16239;}.cls-3{fill:#443931;}.cls-4{fill:#fff;}.cls-5{fill:#a6b791;}.cls-6{fill:#dcc9aa;}.cls-7{fill:none;stroke:#443931;stroke-linecap:round;stroke-linejoin:round;stroke-width:2px;}.cls-8{fill:#889eab;}.cls-9{fill:#f7844f;}.cls-10{fill:#e5be43;}.cls-11{fill:#f5f2e9;}</style></defs><polyline class="cls-2" points="206.361 68.848 206.361 38.39 245.266 38.39 245.266 68.848"/><path class="cls-2" d="M225.814,66.436h0c43.625,0,79.042,35.418,79.042,79.042v55.22h-158.084v-55.22c0-43.625,35.418-79.042,79.042-79.042Z"/><path class="cls-3" d="M225.814,98.117h0c24.647,0,44.658,20.011,44.658,44.658v35.923h-89.316v-35.923c0-24.647,20.011-44.658,44.658-44.658Z"/><path class="cls-9" d="M204.948,177.982c-4.194-4.306-11.649-9.149-12.653-21.71-1.005-12.56,7.138-18.826,9.016-23.775,2.216,3.133,6.873,6.273,9.904,11.99l.012-.138c1.479-16.91,11.795-24.677,14.676-31.585,3.598,7.087,13.343,14.843,14.486,31.984h0c3.205-5.999,8.214-9.262,10.085-12.446,2.418,5.091,9.936,11.136,8.836,23.705-1.1,12.569-8.653,17.488-12.818,21.81-3.499,3.632-15.503,6.122-20.859,6.143-5.309.021-17.307-2.512-20.684-5.979Z"/><path class="cls-6" d="M241.806,162.25c0,11.99-7.16,21.71-15.992,21.71s-15.992-9.72-15.992-21.71,11.376-15.872,15.992-21.71c3.682,5.659,15.992,9.72,15.992,21.71Z"/><path class="cls-10" d="M233.993,170.153c0,7.625-3.662,13.807-8.18,13.807s-8.18-6.182-8.18-13.807,4.931-11.671,8.18-13.807c3.016,2.084,8.18,6.182,8.18,13.807Z"/><path class="cls-7" d="M225.814,66.436h0c43.625,0,79.042,35.418,79.042,79.042v55.22h-158.084v-55.22c0-43.625,35.418-79.042,79.042-79.042Z"/><path class="cls-7" d="M225.814,98.117h0c24.647,0,44.658,20.011,44.658,44.658v35.923h-89.316v-35.923c0-24.647,20.011-44.658,44.658-44.658Z"/><path class="cls-7" d="M204.948,177.982c-4.194-4.306-11.649-9.149-12.653-21.71-1.005-12.56,7.138-18.826,9.016-23.775,2.216,3.133,6.873,6.273,9.904,11.99l.012-.138c1.479-16.91,11.795-24.677,14.676-31.585,3.598,7.087,13.343,14.843,14.486,31.984h0c3.205-5.999,8.214-9.262,10.085-12.446,2.418,5.091,9.936,11.136,8.836,23.705-1.1,12.569-8.653,17.488-12.818,21.81-3.499,3.632-15.503,6.122-20.859,6.143-5.309.021-17.307-2.512-20.684-5.979Z"/><polyline class="cls-7" points="206.361 68.848 206.361 38.39 245.266 38.39 245.266 68.848"/><path class="cls-7" d="M241.806,162.25c0,11.99-7.16,21.71-15.992,21.71s-15.992-9.72-15.992-21.71,11.376-15.872,15.992-21.71c3.682,5.659,15.992,9.72,15.992,21.71Z"/><path class="cls-7" d="M233.993,170.153c0,7.625-3.662,13.807-8.18,13.807s-8.18-6.182-8.18-13.807,4.931-11.671,8.18-13.807c3.016,2.084,8.18,6.182,8.18,13.807Z"/><line class="cls-7" x1="241.158" y1="2" x2="236.166" y2="21.667"/><line class="cls-7" x1="207.833" y1="2" x2="215.499" y2="24.171"/><line class="cls-7" x1="183.833" y1="24.171" x2="198.166" y2="35.333"/><line class="cls-7" x1="267.166" y1="18.667" x2="254.166" y2="32.808"/><rect class="cls-2" x="186.292" y="178.699" width="39.521" height="22"/><rect class="cls-2" x="146.771" y="178.699" width="39.521" height="22"/><rect class="cls-2" x="265.335" y="178.699" width="39.521" height="22"/><rect class="cls-2" x="225.814" y="178.699" width="39.521" height="22"/><rect class="cls-2" x="166.532" y="200.699" width="39.521" height="22"/><rect class="cls-2" x="127.011" y="200.699" width="39.521" height="22"/><rect class="cls-2" x="245.574" y="200.699" width="39.521" height="22"/><rect class="cls-2" x="285.095" y="200.699" width="39.521" height="22"/><rect class="cls-2" x="206.053" y="200.699" width="39.521" height="22"/><rect class="cls-7" x="186.292" y="178.699" width="39.521" height="22"/><rect class="cls-7" x="146.771" y="178.699" width="39.521" height="22"/><rect class="cls-7" x="265.335" y="178.699" width="39.521" height="22"/><rect class="cls-7" x="225.814" y="178.699" width="39.521" height="22"/><rect class="cls-7" x="166.532" y="200.699" width="39.521" height="22"/><rect class="cls-7" x="127.011" y="200.699" width="39.521" height="22"/><rect class="cls-7" x="245.574" y="200.699" width="39.521" height="22"/><rect class="cls-7" x="285.095" y="200.699" width="39.521" height="22"/><rect class="cls-7" x="206.053" y="200.699" width="39.521" height="22"/><path class="cls-8" d="M326.075,290.887h34.006c2.209,0,4-1.791,4-4l-.323-12.114-29.778-1.868c-4.222,0-11.905,6.71-11.905,13.982h0c0,2.209,1.791,4,4,4Z"/><path class="cls-4" d="M372.207,211.238s-16.645.913-22.14,6c-11.42,10.571-11.087,31.667-16.087,55.667l53.835,2.291,5.277-30.483,30.483-6.617,8.507-11.973,2.521-8.885h-37.135l-25.261-6Z"/><rect class="cls-3" x="2" y="239.252" width="49.333" height="49.333"/><path class="cls-5" d="M80.931,276.085h28.402c7.819,0,14.167,6.348,14.167,14.167h0c0,2.208-1.792,4-4,4h-34.568c-2.208,0-4-1.792-4-4v-14.167h0Z"/><path class="cls-4" d="M73.48,209.473c4.25.048,8.535.321,12.738.959,11.544,1.752,18.013,10.744,19.494,21.784.741,5.524.525,11.155.882,16.689.378,5.859.838,11.712,1.181,17.572.187,3.203.374,6.405.558,9.608h-29.333s-1.461-35.832-1.461-35.832"/><rect class="cls-3" x="392.131" y="240.303" width="54.683" height="50.584"/><path class="cls-11" d="M350.225,187.169c.275-.077.35-.125.611-.27h0c1.787-.995,2.429-3.251,1.434-5.038l-6.005-10.782c-.995-1.787-3.251-2.429-5.038-1.434h0c-1.787.995-2.429,3.251-1.434,5.038l.403.724-4.566-2.34c-4.383-2.246-9.756-.515-12.003,3.868h0c-2.246,4.383-.515,9.756,3.868,12.003l9.64,4.941c4.383,2.246,9.756.515,12.003-3.868h0c.46-.897.948-1.897,1.086-2.841h0Z"/><path class="cls-7" d="M80.931,276.085h28.402c7.819,0,14.167,6.348,14.167,14.167h0c0,2.208-1.792,4-4,4h-34.568c-2.208,0-4-1.792-4-4v-14.167h0Z"/><path class="cls-7" d="M73.48,209.473c4.25.048,8.535.321,12.738.959,11.544,1.752,18.013,10.744,19.494,21.784.741,5.524.525,11.155.882,16.689.378,5.859.838,11.712,1.181,17.572.187,3.203.374,6.405.558,9.608h-29.333s-1.461-35.832-1.461-35.832"/><rect class="cls-7" x="2" y="239.252" width="49.333" height="49.333"/><rect class="cls-7" x="392.131" y="240.303" width="54.683" height="50.584"/><path class="cls-7" d="M326.075,290.887h34.006c2.209,0,4-1.791,4-4l-.323-12.114-29.778-1.868c-4.222,0-11.905,6.71-11.905,13.982h0c0,2.209,1.791,4,4,4Z"/><path class="cls-7" d="M372.947,211.238s-17.385.913-22.88,6c-11.42,10.571-11.087,31.667-16.087,55.667l30.188,1.868"/><path class="cls-7" d="M350.225,187.169c.275-.077.35-.125.611-.27h0c1.787-.995,2.429-3.251,1.434-5.038l-6.005-10.782c-.995-1.787-3.251-2.429-5.038-1.434h0c-1.787.995-2.429,3.251-1.434,5.038l.403.724-4.566-2.34c-4.383-2.246-9.756-.515-12.003,3.868h0c-2.246,4.383-.515,9.756,3.868,12.003l9.64,4.941c4.383,2.246,9.756.515,12.003-3.868h0c.46-.897.948-1.897,1.086-2.841h0Z"/><path class="cls-4" d="M13.5,216.585s-2,15.5,4.167,20.833c6.167,5.333,16.167,7.833,26.667,7.5-1,12-1.333,31.167-1.333,31.167l31.831-.667s4.502-40.333,2.002-47.167c-2.5-6.833-6.833-9.703-6.833-9.703"/><path class="cls-5" d="M43.432,276.085h28.402c7.819,0,14.167,6.348,14.167,14.167h0c0,2.208-1.792,4-4,4h-34.568c-2.208,0-4-1.792-4-4v-14.167h0Z"/><polyline class="cls-8" points="12.129 209.473 12.129 216.585 25.838 216.585"/><path class="cls-1" d="M44.754,199.398l5.935-3.384c1.777-1.013,4.039-.394,5.052,1.383h0c.535.938.615,2.01.31,2.963h0c.059.006.118.012.177.019,4.695.56,8.169,4.718,7.83,9.484l-.028.399c-.349,4.912-4.613,8.612-9.526,8.264l-10.805-.767c-4.912-.349-8.612-4.613-8.264-9.526l.028-.399c.337-4.745,4.327-8.359,9.026-8.285l.264-.152Z"/><path class="cls-5" d="M412.662,217.238h24.652s-1.333-25-2.167-29.833c-2.723-15.795-6.137-32.975-23.449-38.479-7.062-2.245-14.715-2.092-21.859-.306-5.9,1.475-12.009,3.706-15.301,9.218-1.782,2.983-3.545,5.977-5.302,8.974-2.651,4.525-5.291,9.056-7.922,13.592l-10.833-3.5-9.833,18.167s12.5,10.833,21.167,9.833c8.667-1,15.373-6.833,17.103-9.167v5.436"/><path class="cls-4" d="M375.744,221.146s-2.763.067-4.596,6.663c-1.833,6.596-7.611,49.595-7.611,49.595h31.944l3.833-31.464c3.538.013,7.087-.16,10.613-.439,6.134-.486,12.315-.398,17.422-4.362,6.56-5.091,9.202-15.287,7.84-23.235"/><path class="cls-11" d="M377.5,206.445c-.272-.58-.269-1.286-.195-1.975h0c.224-2.08,2.141-3.636,4.282-3.476l8.694.65h0c4.815-1.49,9.955.857,11.685,5.443h0c1.8,4.772-.774,10.163-5.751,12.04l-12.721,4.799c-4.976,1.877-10.47-.47-12.27-5.242h0c-1.8-4.772.774-10.163,5.751-12.04l.526-.198h0Z"/><path class="cls-11" d="M107.926,169.593c-.279-.063-.356-.107-.624-.239h0c-1.834-.905-2.588-3.125-1.683-4.96l5.459-11.069c.905-1.834,3.125-2.588,4.96-1.683h0c1.834.905,2.588,3.125,1.683,4.96l-.367.743,4.444-2.566c4.265-2.462,9.718-1.001,12.181,3.264h0c2.462,4.265,1.001,9.718-3.264,12.181l-9.381,5.416c-4.265,2.462-9.718,1.001-12.181-3.264h0c-.504-.873-1.042-1.847-1.227-2.784h0Z"/><path class="cls-7" d="M13.5,216.585s-2,15.5,4.167,20.833c6.167,5.333,16.167,7.833,26.667,7.5-1,12-1.333,31.167-1.333,31.167l31.831-.667s4.502-40.333,2.002-47.167c-2.5-6.833-6.833-9.703-6.833-9.703"/><path class="cls-7" d="M43.432,276.085h28.402c7.819,0,14.167,6.348,14.167,14.167h0c0,2.208-1.792,4-4,4h-34.568c-2.208,0-4-1.792-4-4v-14.167h0Z"/><polyline class="cls-7" points="12.129 209.473 12.129 216.585 25.838 216.585"/><line class="cls-7" x1="378.917" y1="201.749" x2="378.917" y2="180.405"/><path class="cls-7" d="M412.662,217.238h24.652s-1.333-25-2.167-29.833c-2.723-15.795-6.137-32.975-23.449-38.479-7.062-2.245-14.715-2.092-21.859-.306-5.9,1.475-12.009,3.706-15.301,9.218-1.782,2.983-3.545,5.977-5.302,8.974-2.651,4.525-5.291,9.056-7.922,13.592l-10.833-3.5-9.833,18.167s12.5,10.833,21.167,9.833c8.667-1,15.373-6.833,17.103-9.167"/><path class="cls-7" d="M377.991,206.264c-.272-.58-.76-1.106-.686-1.794h0c.224-2.08,2.141-3.636,4.282-3.476l8.694.65h0c4.815-1.49,9.955.857,11.685,5.443h0c1.8,4.772-.774,10.163-5.751,12.04l-12.721,4.799c-4.976,1.877-10.47-.47-12.27-5.242h0c-1.8-4.772.774-10.163,5.751-12.04l.526-.198.491-.181Z"/><path class="cls-7" d="M107.926,169.593c-.279-.063-.356-.107-.624-.239h0c-1.834-.905-2.588-3.125-1.683-4.96l5.459-11.069c.905-1.834,3.125-2.588,4.96-1.683h0c1.834.905,2.588,3.125,1.683,4.96l-.367.743,4.444-2.566c4.265-2.462,9.718-1.001,12.181,3.264h0c2.462,4.265,1.001,9.718-3.264,12.181l-9.381,5.416c-4.265,2.462-9.718,1.001-12.181-3.264h0c-.504-.873-1.042-1.847-1.227-2.784h0Z"/><path class="cls-7" d="M373.792,222.345c-.852.925-1.838,2.563-2.645,5.464-1.833,6.596-7.611,49.595-7.611,49.595h31.944l3.833-31.464c3.538.013,7.087-.16,10.613-.439,6.134-.486,12.315-.398,17.422-4.362,6.56-5.091,9.202-15.287,7.84-23.235"/><path class="cls-5" d="M409.98,179.738v13l-17.849,7.667,6.183,19.5s27.042-2.491,32.333-13.5c5.291-11.009,4.5-19,4.5-19"/><path class="cls-7" d="M409.98,179.738v13l-17.849,7.667,6.183,19.5s27.042-2.491,32.333-13.5c5.291-11.009,4.5-19,4.5-19"/><path class="cls-8" d="M33.55,181.585l-3.217,12.8,13.667,3.534s-4.333,9.667-3.333,20.167c-21.833-.333-27.833-6.5-31.167-12.333-3.333-5.833,2.667-28.167,4-32.333,1.511-4.721,5.292-9.23,8.235-13.116,2.984-3.939,6.442-8.004,11.125-10.045,5.601-2.441,12.038-1.5,17.968-1.839,11.661-.667,16.005,2,21.339,5.676,5.333,3.676,16.167,19.158,16.167,19.158l16.333-10.833,13.333,15.333s-14.545,18.976-26.5,20.667c-8.604,1.217-15.556-4.827-16.667-6l-.815,10.241-9.584,4.588s-1.182-4.163-4.143-5.913c-2.166-1.28-3.583-1.292-3.583-1.292,0,0,.274-1.599-.75-3.292-.958-1.583-3.417-1.917-4.542-1.5-1.968.729-8.084,4.357-8.084,4.357l.667-1.69-13.667-3.534"/><polygon class="cls-9" points="72.831 218.085 55.331 218.085 53.331 191.552 74.831 191.552 72.831 218.085"/><path class="cls-7" d="M33.55,181.585l-3.217,12.8,13.667,3.534s-4.333,9.667-3.333,20.167c-21.833-.333-27.833-6.5-31.167-12.334-2.992-5.237-.266-14.49.861-19.911,2.597-12.493,9.905-30.095,22.499-35.583,5.601-2.441,12.038-1.5,17.968-1.839,11.661-.667,16.005,2,21.339,5.676,5.333,3.676,16.167,19.158,16.167,19.158l16.333-10.833,13.333,15.333s-14.545,18.976-26.5,20.667c-8.604,1.217-15.556-4.827-16.667-6l-1.278,16.056"/><polygon class="cls-7" points="72.831 218.085 55.331 218.085 53.331 191.552 74.831 191.552 72.831 218.085"/><path class="cls-11" d="M43.83,199.564c.38-.044.269-.02.66-.014l.264-.152,5.935-3.384c1.777-1.013,4.039-.394,5.052,1.383h0c.535.938.615,2.01.31,2.963h0c.059.006.118.012.177.019,4.695.56,8.169,4.718,7.83,9.484l-.028.399c-.349,4.912-4.613,8.612-9.526,8.264l-10.805-.767c-1.079-.077-1.683-.296-2.616-.716"/><path class="cls-6" d="M34.858,122.983s-3.744-3.359-6.977-1.88c-5.664,2.591-6.663,5.659-8,8.9-2.832,6.864-11.545,9.517-15.133,9.985,1.945,3.582,9.049,6.708,15.055,4.368,6.006-2.34,4.689-8.581,8.078-11.233s5.669-.69,5.669-.69l1.308-9.451Z"/><circle class="cls-11" cx="54.805" cy="131.53" r="21.255"/><path class="cls-6" d="M45.304,136.215c-1.966-1.689-2.224-4.683-.535-6.649,1.689-1.966,4.69-2.166,6.656-.478l13.813-16.081c-8.655-4.887-19.834-3.153-26.556,4.673-6.722,7.826-6.75,19.139-.613,26.957l7.235-8.423Z"/><circle class="cls-11" cx="393.899" cy="128.033" r="23.033"/><path class="cls-7" d="M43.333,199.607c.38-.044.766-.063,1.157-.057l.264-.152,5.935-3.384c1.777-1.013,4.039-.394,5.052,1.383h0c.535.938.615,2.01.31,2.963h0c.059.006.118.012.177.019,4.695.56,8.169,4.718,7.83,9.484l-.028.399c-.349,4.912-4.613,8.612-9.526,8.264l-10.805-.767c-1.079-.077-2.1-.342-3.033-.762"/><path class="cls-7" d="M45.304,136.215c-1.966-1.689-2.224-4.683-.535-6.649,1.689-1.966,4.69-2.166,6.656-.478l13.813-16.081c-8.655-4.887-19.834-3.153-26.556,4.673-6.722,7.826-6.75,19.139-.613,26.957l7.235-8.423Z"/><circle class="cls-7" cx="54.805" cy="131.53" r="21.255"/><circle class="cls-7" cx="393.899" cy="128.033" r="23.033"/><path class="cls-7" d="M34.858,122.983s-3.744-3.359-6.977-1.88c-5.664,2.591-6.663,5.659-8,8.9-2.832,6.864-11.545,9.517-15.133,9.985,1.945,3.582,9.049,6.708,15.055,4.368,6.006-2.34,4.689-8.581,8.078-11.233s5.669-.69,5.669-.69l1.308-9.451Z"/><path class="cls-2" d="M371.459,122.836c.441-1.906,1.108-3.701,1.964-5.364,4.713-9.152,15.186-14.306,25.673-11.877,12.393,2.87,20.112,15.244,17.242,27.637-.906,3.911-2.758,7.356-5.258,10.15h0s-7.235-9.616-7.235-9.616c2.244-1.689,2.733-4.908,1.044-7.152-1.689-2.244-4.921-2.671-7.165-.982l-2.948-3.918-23.317,1.123Z"/><path class="cls-4" d="M336.216,112.684l4.579,13.295-14.038-10.437h0c-4.301.917-8.872,1.41-13.61,1.41-25.395,0-45.981-14.178-45.981-31.667s20.586-31.667,45.981-31.667,45.981,14.178,45.981,31.667c0,11.699-9.212,21.916-22.912,27.399h0Z"/><path class="cls-4" d="M111.067,121.003l-4.579,13.295,14.038-10.437h0c4.301.917,8.872,1.41,13.61,1.41,25.395,0,45.981-14.178,45.981-31.667,0-17.489-20.586-31.667-45.981-31.667-25.395,0-45.981,14.178-45.981,31.667,0,11.699,9.212,21.916,22.912,27.399h0Z"/><path class="cls-7" d="M371.459,122.836c.441-1.906,1.108-3.701,1.964-5.364,4.713-9.152,15.186-14.306,25.673-11.877,12.393,2.87,20.112,15.244,17.242,27.637-.906,3.911-2.758,7.356-5.258,10.15h0s-7.235-9.616-7.235-9.616c2.244-1.689,2.733-4.908,1.044-7.152-1.689-2.244-4.921-2.671-7.165-.982l-2.948-3.918-23.317,1.123Z"/><path class="cls-7" d="M336.216,112.684l4.579,13.295-13.856-10.302-.182-.135c-4.301.917-8.872,1.41-13.61,1.41-25.395,0-45.981-14.178-45.981-31.667s20.586-31.667,45.981-31.667,45.981,14.178,45.981,31.667c0,11.699-9.212,21.916-22.912,27.399h0Z"/><path class="cls-7" d="M111.067,121.003l-4.579,13.295,14.038-10.437h0c4.301.917,8.872,1.41,13.61,1.41,25.395,0,45.981-14.178,45.981-31.667,0-17.489-20.586-31.667-45.981-31.667-25.395,0-45.981,14.178-45.981,31.667,0,11.699,9.212,21.916,22.912,27.399h0Z"/><path class="cls-8" d="M365.975,277.405h28.839v13.167c0,2.208-1.792,4-4,4h-34.006c-2.208,0-4-1.792-4-4h0c0-7.267,5.9-13.167,13.167-13.167Z"/><path class="cls-7" d="M365.975,277.405h28.839v13.167c0,2.208-1.792,4-4,4h-34.006c-2.208,0-4-1.792-4-4h0c0-7.267,5.9-13.167,13.167-13.167Z"/></svg>