<?xml version="1.0" encoding="UTF-8"?><svg id="_レイヤー_1" xmlns="http://www.w3.org/2000/svg" viewBox="0 0 340.984 334.984"><defs><style>.cls-1{fill:#f5f5ee;}.cls-2{fill:#b16239;}.cls-3{stroke-dasharray:8.166 8.166;}.cls-3,.cls-4,.cls-5{fill:none;stroke-linecap:round;stroke-linejoin:round;stroke-width:2px;}.cls-3,.cls-5{stroke:#3d201e;}.cls-6{fill:#edeede;}.cls-7{fill:#fff;}.cls-8{fill:#a6b791;}.cls-4{stroke:#443931;}.cls-9{fill:#889eab;}.cls-10{fill:#f7844f;}.cls-11{fill:#e5be43;}.cls-12{fill:#f5f2e9;}</style></defs><path class="cls-8" d="M277.771,244.761c-5.73,11.808-23.53,17.451-23.53,17.451,0,0-6.581-17.475-.851-29.283,5.73-11.808,14.869-16.744,21.601-13.477,6.733,3.267,8.509,13.501,2.779,25.309Z"/><path class="cls-8" d="M284.772,287.626c-10.124,4.452-24.681-1.757-24.681-1.757,0,0,5.264-14.925,15.388-19.377,10.124-4.452,18.708-2.581,21.274,3.255,2.566,5.836-1.857,13.427-11.981,17.879Z"/><path class="cls-8" d="M233.699,248.887c9.872,4.985,14.332,20.17,14.332,20.17,0,0-14.868,5.424-24.74.438-9.872-4.985-13.884-12.801-11.01-18.492,2.874-5.691,11.545-7.102,21.417-2.116Z"/><path class="cls-11" d="M29.328,274.599h43.121c15.083,0,27.328,12.245,27.328,27.328v27.329H2v-27.329c0-15.083,12.245-27.328,27.328-27.328Z"/><path class="cls-9" d="M118.57,308.479h49.387c9.836,0,17.821,7.985,17.821,17.821h0c0,2.368-1.922,4.29-4.29,4.29h-62.917c-.546,0-.99-.444-.99-.99v-20.131c0-.546.444-.99.99-.99Z"/><rect class="cls-9" x="238.238" y="28.036" width="94.958" height="51.34" rx="6" ry="6" transform="translate(433.904 -196.412) rotate(110)"/><rect class="cls-12" x="248.272" y="28.723" width="76.883" height="44.487" rx="1" ry="1" transform="translate(432.668 -201.025) rotate(110)"/><circle class="cls-12" cx="271.551" cy="92.627" r="4.203"/><rect class="cls-6" x="292.573" y="10.974" width="16.667" height="2" rx="1" ry="1" transform="translate(22.242 -102.194) rotate(20)"/><path class="cls-10" d="M304.403,48.982c-1.917,5.268-7.525,7.498-11.127,9.089-4.366,1.918-9.36,4.896-11.454,6.552-.062.058-.132.032-.143-.052-.539-2.614-2.449-8.105-4.562-12.381-1.735-3.533-4.585-8.883-2.681-14.115,1.762-4.84,6.502-7.346,10.559-5.869,3.346,1.218,5.665,4.036,5.295,8.375-.002.119-.02.275.088.314.106.039.194-.092.269-.185,2.47-3.575,6.095-4.229,9.438-3.013,4.057,1.477,6.079,6.444,4.317,11.284Z"/><path class="cls-5" d="M147.771,85.331c1.143-.688,2.307-1.34,3.49-1.957"/><path class="cls-3" d="M158.713,80.047c12.403-4.663,26.172-5.722,39.113-2.83,16.901,3.777,32.208,14.249,41.866,28.624,6.976,10.382,10.913,22.444,13.128,34.674,1.761,9.723,3.181,20.04,2.583,30.049"/><path class="cls-5" d="M255.042,174.635c-.158,1.327-.356,2.646-.598,3.955"/><path class="cls-7" d="M89.29,213.758v25.554s-12.624.333-20.624,2.583c-8,2.25-20.167,5.728-20.167,5.728,0,0-38.946.233-39.011,0-3.303-11.811-4.368-23.53-3.058-36.503,4.192-41.513,32.355-72.665,62.902-69.58,17.668,1.784,32.264,14.63,40.62,33.177h0s14.268-31.071,14.268-31.071l29.174,5.185c4.068,33.572-12.529,63.631-38.653,68.463-19.959,3.691-39.992-8.357-51.996-28.88"/><circle class="cls-1" cx="40.342" cy="120.949" r="13.128"/><circle class="cls-9" cx="40.342" cy="120.949" r="13.128"/><path class="cls-4" d="M89.29,213.758v25.554s-12.624.333-20.624,2.583c-8,2.25-20.167,5.728-20.167,5.728,0,0-38.946.233-39.011,0-3.303-11.811-4.368-23.53-3.058-36.503,4.192-41.513,32.355-72.665,62.902-69.58,17.668,1.784,32.264,14.63,40.62,33.177h0s14.268-31.071,14.268-31.071l29.174,5.185c4.068,33.572-12.529,63.631-38.653,68.463-19.959,3.691-39.992-8.357-51.996-28.88"/><path class="cls-4" d="M118.57,308.479h49.387c9.836,0,17.821,7.985,17.821,17.821h0c0,2.368-1.922,4.29-4.29,4.29h-62.917c-.546,0-.99-.444-.99-.99v-20.131c0-.546.444-.99.99-.99Z"/><path class="cls-4" d="M29.328,274.599h43.121c15.083,0,27.328,12.245,27.328,27.328v27.329H2v-27.329c0-15.083,12.245-27.328,27.328-27.328Z"/><path class="cls-4" d="M277.771,244.761c-5.73,11.808-23.53,17.451-23.53,17.451,0,0-6.581-17.475-.851-29.283,5.73-11.808,14.869-16.744,21.601-13.477,6.733,3.267,8.509,13.501,2.779,25.309Z"/><path class="cls-4" d="M284.772,287.626c-10.124,4.452-24.681-1.757-24.681-1.757,0,0,5.264-14.925,15.388-19.377,10.124-4.452,18.708-2.581,21.274,3.255,2.566,5.836-1.857,13.427-11.981,17.879Z"/><path class="cls-4" d="M233.699,248.887c9.872,4.985,14.332,20.17,14.332,20.17,0,0-14.868,5.424-24.74.438-9.872-4.985-13.884-12.801-11.01-18.492,2.874-5.691,11.545-7.102,21.417-2.116Z"/><path class="cls-4" d="M254.241,262.212c-1.145,7.19-.735,14.388-.062,21.576.25,2.672.537,5.342.794,8.01.702,7.295.598,14.689.57,22.026"/><path class="cls-4" d="M254.973,291.798c1.399-3.043,2.312-4.147,5.119-5.929"/><path class="cls-4" d="M247.961,269.099c3.126,4.529,4.554,9.527,6.218,14.689"/><path class="cls-4" d="M197.286,329.256c13.712-9.223,39.407-15.432,68.842-15.432s55.129,6.209,68.841,15.432"/><path class="cls-4" d="M304.403,48.982c-1.917,5.268-7.525,7.498-11.127,9.089-4.366,1.918-9.36,4.896-11.454,6.552-.062.058-.132.032-.143-.052-.539-2.614-2.449-8.105-4.562-12.381-1.735-3.533-4.585-8.883-2.681-14.115,1.762-4.84,6.502-7.346,10.559-5.869,3.346,1.218,5.665,4.036,5.295,8.375-.002.119-.02.275.088.314.106.039.194-.092.269-.185,2.47-3.575,6.095-4.229,9.438-3.013,4.057,1.477,6.079,6.444,4.317,11.284Z"/><circle class="cls-4" cx="271.551" cy="92.627" r="4.203"/><rect class="cls-4" x="248.272" y="28.723" width="76.883" height="44.487" rx="1" ry="1" transform="translate(432.668 -201.025) rotate(110)"/><rect class="cls-4" x="238.238" y="28.036" width="94.958" height="51.34" rx="6" ry="6" transform="translate(433.904 -196.412) rotate(110)"/><rect class="cls-4" x="292.573" y="10.974" width="16.667" height="2" rx="1" ry="1" transform="translate(22.242 -102.194) rotate(20)"/><circle class="cls-4" cx="40.342" cy="120.949" r="13.128"/><path class="cls-10" d="M89.29,226.954c5.393-2.772,11.489-5.184,18.633-7.335,11.388-3.429,21.864-5.013,29.567-4.674,17.444,0,31.586,14.141,31.586,31.586v61.948h-51.496s0-37.22,0-37.22h0s-47.582,18.879-47.582,18.879c-2.95,1.171-5.995,1.728-8.998,1.734h0s-6.848,0-6.848,0c-21.002-2.121-37.663-19.872-44.663-44.249l79.801-20.669Z"/><path class="cls-12" d="M112.444,111.121c0,17.321-14.041,31.362-31.362,31.362-17.321,0-31.362-14.041-31.362-31.362,0-17.321,14.041-31.362,31.362-31.362,17.321,0,31.362,14.041,31.362,31.362Z"/><path class="cls-9" d="M66.128,115.668c-2.458-2.929-2.117-7.35.813-9.808,2.929-2.458,7.348-2.031,9.806.898l23.962-20.106c-11.431-9.188-28.123-9.339-39.784.446-11.661,9.785-14.411,26.25-7.347,39.103l12.551-10.532Z"/><path class="cls-4" d="M89.29,226.954c5.393-2.772,11.489-5.184,18.633-7.335,11.388-3.429,21.864-5.013,29.567-4.674,17.444,0,31.586,14.141,31.586,31.586v61.948h-51.496s0-37.22,0-37.22h0s-47.582,18.879-47.582,18.879c-2.95,1.171-5.995,1.728-8.998,1.734h0s-6.848,0-6.848,0c-21.002-2.121-37.663-19.872-44.663-44.249l79.801-20.669Z"/><path class="cls-4" d="M66.128,115.668c-2.458-2.929-2.117-7.35.813-9.808,2.929-2.458,7.348-2.031,9.806.898l23.962-20.106c-11.431-9.188-28.123-9.339-39.784.446-11.661,9.785-14.411,26.25-7.347,39.103l12.551-10.532Z"/><path class="cls-4" d="M112.444,111.121c0,17.321-14.041,31.362-31.362,31.362-17.321,0-31.362-14.041-31.362-31.362,0-17.321,14.041-31.362,31.362-31.362,17.321,0,31.362,14.041,31.362,31.362Z"/><path class="cls-2" d="M111.915,107.413h19.531v15.844h-19.531c-2.76,0-5-2.24-5-5v-5.844c0-2.76,2.24-5,5-5Z"/><path class="cls-4" d="M111.915,107.413h19.531v15.844h-19.531c-2.76,0-5-2.24-5-5v-5.844c0-2.76,2.24-5,5-5Z"/><rect class="cls-2" x="118.121" y="102.146" width="46.365" height="21.111" rx="7" ry="7"/><rect class="cls-4" x="118.121" y="102.146" width="46.365" height="21.111" rx="7" ry="7"/><rect class="cls-2" x="118" y="112.695" width="54.444" height="25.419" rx="11.5" ry="11.5" transform="translate(13.335 -13.957) rotate(5.767)"/><ellipse class="cls-7" cx="167.102" cy="127.614" rx="8.485" ry="2.485" transform="translate(23.344 281.049) rotate(-84.233)"/><ellipse class="cls-4" cx="167.102" cy="127.614" rx="8.485" ry="2.485" transform="translate(23.344 281.049) rotate(-84.233)"/><rect class="cls-4" x="118" y="112.695" width="54.444" height="25.419" rx="11.5" ry="11.5" transform="translate(13.335 -13.957) rotate(5.767)"/><path class="cls-12" d="M126.147,143.988s25.599,4.55,25.637,4.557c1.665.29,3.516-4.203,4.007-5.346,1.965-4.577,2.026-10.739-2.092-14.156-3.804-3.156-9.333-3.834-14.1-3.92-.744-.013-1.489-.008-2.234.015-5.461.171-12.751,1.039-13.575,7.732-.281,2.28.121,4.593.64,6.81.234.999.424,4.077,1.718,4.307Z"/><path class="cls-4" d="M126.147,143.988s25.599,4.55,25.637,4.557c1.665.29,3.516-4.203,4.007-5.346,1.965-4.577,2.026-10.739-2.092-14.156-3.804-3.156-9.333-3.834-14.1-3.92-.744-.013-1.489-.008-2.234.015-5.461.171-12.751,1.039-13.575,7.732-.281,2.28.121,4.593.64,6.81.234.999.424,4.077,1.718,4.307Z"/></svg>