<?xml version="1.0" encoding="UTF-8"?><svg id="_レイヤー_1" xmlns="http://www.w3.org/2000/svg" viewBox="0 0 874.459 500.311"><defs><style>.cls-1{fill:#f5f5ee;}.cls-2{fill:#b16239;}.cls-3{fill:#f7c43b;}.cls-4{fill:#d8d8d4;}.cls-5{fill:#803c3b;}.cls-6{fill:#443931;}.cls-7{fill:#fff;}.cls-8{fill:#a6b791;}.cls-9{fill:#dcc9aa;}.cls-10{stroke:#443931;}.cls-10,.cls-11{fill:none;stroke-linecap:round;stroke-linejoin:round;stroke-width:2px;}.cls-12{fill:#889eab;}.cls-11{stroke:#3d201e;}.cls-13{fill:#f7844f;}.cls-14{fill:#ff6832;}.cls-15{fill:#902f31;}.cls-16{fill:#e5be43;}.cls-17{fill:#f5f2e9;}</style></defs><path class="cls-1" d="M813.587,197.63h0c6.607-2.729,9.876-9.505,7.3-15.134l-2.486-5.434c-1.022-2.234-2.812-3.952-5.011-5.04l-19.581,8.816c-.423,2.028-.237,4.138.664,6.108l2.486,5.433c2.576,5.629,10.02,7.979,16.628,5.25Z"/><rect class="cls-12" x="790.796" y="152.921" width="18.838" height="27.381" transform="translate(951.802 969.808) rotate(-112.449)"/><path class="cls-5" d="M782.606,170.454h5.77c1.104,0,2,.896,2,2v2.481h-9.77v-2.481c0-1.104.896-2,2-2Z" transform="translate(925.832 964.606) rotate(-112.449)"/><path class="cls-15" d="M846.615,142.448h11.619v1.91c0,1.807-1.467,3.274-3.274,3.274h-5.07c-1.807,0-3.274-1.467-3.274-3.274v-1.91h0Z" transform="translate(1043.884 988.252) rotate(-112.449)"/><path class="cls-1" d="M678.585,429.792c-4.035,8.315-16.57,12.289-16.57,12.289,0,0-4.634-12.306-.599-20.621,4.035-8.315,10.471-11.791,15.212-9.491,4.741,2.301,5.992,9.507,1.957,17.823Z"/><path class="cls-1" d="M683.515,459.978c-7.129,3.135-17.381-1.237-17.381-1.237,0,0,3.707-10.51,10.836-13.645,7.129-3.135,13.174-1.817,14.981,2.292s-1.307,9.455-8.437,12.59Z"/><path class="cls-1" d="M647.549,432.698c6.952,3.511,10.093,14.204,10.093,14.204,0,0-10.47,3.819-17.422.309s-9.777-9.015-7.753-13.022,8.13-5.001,15.082-1.49Z"/><path class="cls-1" d="M105.308,482.698c2.49-2.366,5.75-3.8,9.319-3.8,7.817,0,14.155,6.879,14.155,15.364H42.411c0-9.115,6.337-16.505,14.155-16.505,2.627,0,5.086.834,7.194,2.288l-.002.003c2.181-9.101,10.554-15.879,20.55-15.879,10.916,0,19.897,8.083,20.992,18.447l.008.081Z"/><path class="cls-13" d="M82.128,311.147l-4.314,18.681c-2.866.568-5.83.866-8.863.866-25.042,0-45.343-20.301-45.343-45.343s20.301-45.343,45.343-45.343,45.343,20.301,45.343,45.343c0,3.261-.344,6.441-.998,9.507l-25.225,10.856-2.474,4.699-3.468.735"/><polyline class="cls-13" points="58.66 329.386 24.946 329.386 24.946 296.326"/><path class="cls-7" d="M92.502,335.608s3.444,27.111,4,34.333c.556,7.222,0,39.707,0,39.707h-34.555v-25.596c-4.813,5.202-9.391,11.184-15.125,15.414-3.222,2.377-6.61,4.547-9.986,6.697l-23.444-26.111s17.889-15.111,19.556-22c1.667-6.889,1.111-28.667,1.111-28.667"/><polygon class="cls-16" points="152.224 443.719 115.335 443.719 117.335 401.719 150.224 401.719 152.224 443.719"/><path class="cls-12" d="M61.946,409.649h33.04c6.662,0,12.071,5.409,12.071,12.071h0c0,3.312-2.689,6-6,6h-37.111c-1.104,0-2-.896-2-2v-16.071h0Z"/><path class="cls-12" d="M190.018,447.997h41.385c6.662,0,12.071,5.409,12.071,12.071v1.479c0,3.311-2.689,6-6,6h-45.456c-1.104,0-2-.896-2-2v-17.55h0Z"/><path class="cls-12" d="M.371,394.653h33.04c6.662,0,12.071,5.409,12.071,12.071h0c0,3.312-2.689,6-6,6H2.371c-1.104,0-2-.896-2-2v-16.071H.371Z" transform="translate(309.106 118.046) rotate(48.304)"/><polygon class="cls-16" points="150.792 413.646 162.321 405.144 166.868 410.019 151.48 428.108 150.792 413.646"/><polygon class="cls-16" points="166.868 410.019 162.321 405.144 165.37 398.197 174.01 407.46 166.868 410.019"/><polyline class="cls-1" points="256.538 412.901 256.9 418.374 262.339 417.665 262.698 423.135 268.136 422.425 268.5 427.9 273.939 427.191 274.303 432.666 279.743 431.957 280.109 437.434 285.55 436.726 285.915 442.202 291.359 441.496 291.725 446.973 297.166 446.265 297.532 451.742 302.976 451.037 303.344 456.515 308.793 455.814 309.166 461.296"/><polygon class="cls-17" points="441.834 450.719 404.223 476.053 336.557 476.053 374.89 450.719 441.834 450.719"/><polygon class="cls-17" points="404.223 476.053 404.223 490.886 441.834 464.886 441.834 450.719 404.223 476.053"/><rect class="cls-17" x="336.557" y="476.053" width="67.667" height="14.833"/><polygon class="cls-4" points="810.18 154.876 815.557 167.891 860.275 170.829 839.782 121.23 810.18 154.876"/><path class="cls-1" d="M813.587,197.63h0c6.607-2.729,9.876-9.505,7.3-15.134l-2.486-5.434c-1.022-2.234-2.812-3.952-5.011-5.04l-19.581,8.816c-.423,2.028-.237,4.138.664,6.108l2.486,5.433c2.576,5.629,10.02,7.979,16.628,5.25Z"/><path class="cls-8" d="M678.585,429.792c-4.035,8.315-16.57,12.289-16.57,12.289,0,0-4.634-12.306-.599-20.621,4.035-8.315,10.471-11.791,15.212-9.491,4.741,2.301,5.992,9.507,1.957,17.823Z"/><path class="cls-8" d="M683.515,459.978c-7.129,3.135-17.381-1.237-17.381-1.237,0,0,3.707-10.51,10.836-13.645,7.129-3.135,13.174-1.817,14.981,2.292s-1.307,9.455-8.437,12.59Z"/><path class="cls-8" d="M647.549,432.698c6.952,3.511,10.093,14.204,10.093,14.204,0,0-10.47,3.819-17.422.309s-9.777-9.015-7.753-13.022,8.13-5.001,15.082-1.49Z"/><path class="cls-1" d="M662.015,442.081c-.806,5.063-.518,10.132-.044,15.194.176,1.881.378,3.762.559,5.641.495,5.137.421,10.344.401,15.511"/><path class="cls-1" d="M662.53,462.916c.985-2.143,1.628-2.92,3.605-4.175"/><path class="cls-1" d="M657.593,446.931c2.201,3.189,3.207,6.709,4.379,10.344"/><path class="cls-8" d="M105.308,482.698c2.49-2.366,5.75-3.8,9.319-3.8,7.817,0,14.155,6.879,14.155,15.364H42.411c0-9.115,6.337-16.505,14.155-16.505,2.627,0,5.086.834,7.194,2.288l-.002.003c2.181-9.101,10.554-15.879,20.55-15.879,10.916,0,19.897,8.083,20.992,18.447l.008.081Z"/><path class="cls-1" d="M550.62,474.284c2.49-2.366,5.75-3.8,9.319-3.8,7.817,0,14.155,6.879,14.155,15.364h-86.371c0-9.115,6.337-16.505,14.155-16.505,2.627,0,5.086.834,7.194,2.288l-.002.003c2.181-9.101,10.554-15.879,20.55-15.879,10.916,0,19.897,8.083,20.992,18.447l.008.081Z"/><path class="cls-8" d="M550.62,474.284c2.49-2.366,5.75-3.8,9.319-3.8,7.817,0,14.155,6.879,14.155,15.364h-86.371c0-9.115,6.337-16.505,14.155-16.505,2.627,0,5.086.834,7.194,2.288l-.002.003c2.181-9.101,10.554-15.879,20.55-15.879,10.916,0,19.897,8.083,20.992,18.447l.008.081Z"/><path class="cls-7" d="M792.056,318.053s8.667-43.333,0-54c-8.667-10.667-32-10-32-10l-68,23.667-26.62,68.667h39.381s25.487-52.333,25.487-52.333h27.085l-1.574,23.667,36.24.333Z"/><path class="cls-13" d="M755.923,317.731h33.49c7.083,0,12.834,5.751,12.834,12.834h0c0,3.312-2.689,6-6,6h-38.324c-1.104,0-2-.896-2-2v-16.834h0Z"/><path class="cls-13" d="M705.761,365.22h-41.324c-1.105,0-2-.895-2-2l3-16.834h33.49c7.088,0,12.834,5.746,12.834,12.834h0c0,3.314-2.686,6-6,6Z"/><rect class="cls-6" x="748.176" y="336.565" width="66.661" height="30.191"/><path class="cls-9" d="M576.397,423.719h33.496v16.444c0,1.104-.896,2-2,2h-37.94c-3.311,0-6-2.689-6-6h0c0-6.868,5.576-12.444,12.444-12.444Z"/><path class="cls-9" d="M516.175,423.719h33.496v16.444c0,1.104-.896,2-2,2h-37.94c-3.311,0-6-2.689-6-6h0c0-6.868,5.576-12.444,12.444-12.444Z"/><polygon class="cls-17" points="481.056 435.608 445.835 435.608 441.834 392.386 485.057 392.386 481.056 435.608"/><path class="cls-12" d="M485.057,392.386l-.922,9.957c-4.81-.376-6.245,6.321-13.301,6.265-7.056-.056-9.611-8.056-13.278-8.056s-5.389,3.167-9.056,3.278-5.776-1.823-5.776-1.823l-.89-9.621h43.222Z"/><path class="cls-9" d="M240.061,422.718c6.919.511,8.152,5.398,10.576,10.9,1.625,3.688,3.058,7.461,4.293,11.297.211.656.437,1.347.951,1.806.636.568,1.558.648,2.41.693,12.713.669,25.45-.273,38.146-1.215-1.156-5.827-.54-11.994-2.331-17.693-1.745-5.557-5.402-10.338-9.364-14.511-12.622-13.293-30.309-22.571-48.988-21.659,2.277,11.116,4.306,16.941,4.251,30.378.019.001.037.003.056.004Z"/><rect class="cls-15" x="291.838" y="85.432" width="33.233" height="9.527"/><path class="cls-1" d="M806.365,184.173l8.303-3.48c2.659-1.114,3.961-3.854,2.91-6.118h0c-1.051-2.265-4.059-3.198-6.718-2.083l-14.244,5.97c-2.659,1.114-3.961,3.854-2.91,6.118"/><path class="cls-8" d="M307.497,46.09c5.494,10.725,2.671,19.343-1.658,25.364-7.217-1.123-16.059-2.75-21.553-13.475-5.494-10.725-1.12-19.658,1.658-25.364,7.572,1.612,16.059,2.75,21.553,13.475Z"/><path class="cls-8" d="M332.322,67.929c-7.458,5.518-14.182,4.692-19.118,2.402.11-5.404.432-12.061,7.89-17.578,7.458-5.518,14.574-3.61,19.118-2.402-.44,5.732-.432,12.061-7.89,17.578Z"/><polygon class="cls-15" points="319.31 118.332 297.82 118.332 293.832 94.958 323.298 94.958 319.31 118.332"/><path class="cls-17" d="M806.365,184.173l8.303-3.48c2.659-1.114,3.961-3.854,2.91-6.118h0c-1.051-2.265-4.059-3.198-6.718-2.083l-14.244,5.97c-2.659,1.114-3.961,3.854-2.91,6.118l.322,1.252"/><rect class="cls-12" x="442.501" y="195.72" width="54" height="16.667"/><rect class="cls-5" x="475.168" y="243.155" width="10.889" height="40.342"/><path class="cls-16" d="M805.13,455.882h14.982c3.863,0,7,3.137,7,7v30.198c0,2.76-2.24,5-5,5h0c-9.372,0-16.981-7.609-16.981-16.981v-25.216h0Z" transform="translate(-60.24 122.642) rotate(-8.289)"/><path class="cls-1" d="M305.838,71.455s1.782,2.873,1.782,5.629v9.054"/><line class="cls-1" x1="313.205" y1="70.332" x2="307.621" y2="76.427"/><path class="cls-1" d="M700.813,248.898s-19.927,8.617-19.956,8.63c-1.293.565.189,5.227.553,6.422,1.457,4.787,5.15,9.976,9.984,10.838,4.464.796,8.584-1.32,11.833-3.563.507-.35,1.004-.716,1.489-1.097,3.559-2.794,7.922-7.06,4.418-13.065-1.194-2.045-2.866-3.788-4.557-5.392-.762-.723-2.756-3.209-3.763-2.773Z"/><path class="cls-8" d="M326.507,244.927h0c13.12,0,23.772,10.652,23.772,23.772v90.09h-47.544v-90.09c0-13.12,10.652-23.772,23.772-23.772Z"/><path class="cls-12" d="M257.144,447.997h41.385c6.662,0,12.071,5.409,12.071,12.071v1.479c0,3.311-2.689,6-6,6h-45.456c-1.104,0-2-.896-2-2v-17.55h0Z"/><path class="cls-9" d="M189.24,384.561s-6.13,8.871-5.19,17.158c.94,8.287,2.586,15.81,8.228,19.572-.94,9.262-2.261,26.706-2.261,26.706h44.344s5.469-22.004,5.673-28.351c.204-6.348-.851-14.316-3.145-19.148"/><rect class="cls-2" x="403.721" y="121.72" width="27.201" height="13.764"/><rect class="cls-2" x="430.922" y="121.72" width="27.201" height="13.764"/><rect class="cls-2" x="458.122" y="121.72" width="27.201" height="13.764"/><rect class="cls-2" x="485.323" y="121.72" width="27.201" height="13.764"/><rect class="cls-2" x="403.721" y="107.956" width="27.201" height="13.764"/><rect class="cls-2" x="430.922" y="107.956" width="27.201" height="13.764"/><rect class="cls-2" x="458.122" y="107.956" width="27.201" height="13.764"/><rect class="cls-2" x="485.323" y="107.956" width="27.201" height="13.764"/><rect class="cls-2" x="206.279" y="268.87" width="27.201" height="13.764"/><rect class="cls-2" x="233.48" y="268.87" width="27.201" height="13.764"/><rect class="cls-2" x="260.681" y="268.87" width="27.201" height="13.764"/><rect class="cls-2" x="206.279" y="255.106" width="27.201" height="13.764"/><rect class="cls-2" x="233.48" y="255.106" width="27.201" height="13.764"/><rect class="cls-2" x="206.279" y="241.342" width="27.201" height="13.764"/><path class="cls-10" d="M813.587,197.63h0c6.607-2.729,9.876-9.505,7.3-15.134l-2.486-5.434c-1.022-2.234-2.812-3.952-5.011-5.04l-19.581,8.816c-.423,2.028-.237,4.138.664,6.108l2.486,5.433c2.576,5.629,10.02,7.979,16.628,5.25Z"/><rect class="cls-10" x="790.796" y="152.921" width="18.838" height="27.381" transform="translate(951.802 969.808) rotate(-112.449)"/><path class="cls-10" d="M782.606,170.454h5.77c1.104,0,2,.896,2,2v2.481h-9.77v-2.481c0-1.104.896-2,2-2Z" transform="translate(925.832 964.606) rotate(-112.449)"/><path class="cls-10" d="M846.615,142.448h11.619v1.91c0,1.807-1.467,3.274-3.274,3.274h-5.07c-1.807,0-3.274-1.467-3.274-3.274v-1.91h0Z" transform="translate(1043.884 988.252) rotate(-112.449)"/><path class="cls-10" d="M678.585,429.792c-4.035,8.315-16.57,12.289-16.57,12.289,0,0-4.634-12.306-.599-20.621,4.035-8.315,10.471-11.791,15.212-9.491,4.741,2.301,5.992,9.507,1.957,17.823Z"/><path class="cls-10" d="M683.515,459.978c-7.129,3.135-17.381-1.237-17.381-1.237,0,0,3.707-10.51,10.836-13.645,7.129-3.135,13.174-1.817,14.981,2.292s-1.307,9.455-8.437,12.59Z"/><path class="cls-10" d="M647.549,432.698c6.952,3.511,10.093,14.204,10.093,14.204,0,0-10.47,3.819-17.422.309s-9.777-9.015-7.753-13.022,8.13-5.001,15.082-1.49Z"/><path class="cls-10" d="M105.308,482.698c2.49-2.366,5.75-3.8,9.319-3.8,7.817,0,14.155,6.879,14.155,15.364H42.411c0-9.115,6.337-16.505,14.155-16.505,2.627,0,5.086.834,7.194,2.288l-.002.003c2.181-9.101,10.554-15.879,20.55-15.879,10.916,0,19.897,8.083,20.992,18.447l.008.081Z"/><path class="cls-10" d="M57.109,281.571c0,13.882,11.156,25.285,25.403,26.535l-4.698,21.722c-2.866.568-5.83.866-8.863.866-25.042,0-45.343-20.301-45.343-45.343s20.301-45.343,45.343-45.343,45.343,20.301,45.343,45.343c0,3.261-.344,6.441-.998,9.507"/><polyline class="cls-10" points="58.66 329.386 24.946 329.386 24.946 296.326"/><path class="cls-10" d="M92.502,333.757s3.444,28.962,4,36.185c.556,7.222,0,39.707,0,39.707h-34.555v-25.596c-4.813,5.202-9.391,11.184-15.125,15.414-3.222,2.377-6.61,4.547-9.986,6.697l-23.444-26.111s17.889-15.111,19.556-22c1.667-6.889,1.111-28.667,1.111-28.667"/><polygon class="cls-10" points="152.224 443.719 115.335 443.719 117.335 401.719 150.224 401.719 152.224 443.719"/><path class="cls-10" d="M117.335,401.719c0-8.837,8.285-16,17.039-16s15.85,7.163,15.85,16"/><path class="cls-10" d="M61.946,409.649h33.04c6.662,0,12.071,5.409,12.071,12.071h0c0,3.312-2.689,6-6,6h-37.111c-1.104,0-2-.896-2-2v-16.071h0Z"/><path class="cls-10" d="M190.018,447.997h41.385c6.662,0,12.071,5.409,12.071,12.071v1.479c0,3.311-2.689,6-6,6h-45.456c-1.104,0-2-.896-2-2v-17.55h0Z"/><path class="cls-10" d="M257.144,447.997h41.385c6.662,0,12.071,5.409,12.071,12.071v1.479c0,3.311-2.689,6-6,6h-45.456c-1.104,0-2-.896-2-2v-17.55h0Z"/><path class="cls-10" d="M.371,394.653h33.04c6.662,0,12.071,5.409,12.071,12.071h0c0,3.312-2.689,6-6,6H2.371c-1.104,0-2-.896-2-2v-16.071H.371Z" transform="translate(309.106 118.046) rotate(48.304)"/><polygon class="cls-10" points="150.792 413.646 162.321 405.144 166.868 410.019 151.48 428.108 150.792 413.646"/><polygon class="cls-10" points="166.868 410.019 162.321 405.144 165.37 398.197 174.01 407.46 166.868 410.019"/><polygon class="cls-10" points="441.834 450.719 404.223 476.053 336.557 476.053 374.89 450.719 441.834 450.719"/><polygon class="cls-10" points="404.223 476.053 404.223 490.886 441.834 464.886 441.834 450.719 404.223 476.053"/><rect class="cls-10" x="336.557" y="476.053" width="67.667" height="14.833"/><polygon class="cls-10" points="810.18 154.876 815.557 167.891 860.275 170.829 839.782 121.23 810.18 154.876"/><path class="cls-10" d="M813.587,197.63h0c6.607-2.729,9.876-9.505,7.3-15.134l-2.486-5.434c-1.022-2.234-2.812-3.952-5.011-5.04l-19.581,8.816c-.423,2.028-.237,4.138.664,6.108l2.486,5.433c2.576,5.629,10.02,7.979,16.628,5.25Z"/><path class="cls-10" d="M678.585,429.792c-4.035,8.315-16.57,12.289-16.57,12.289,0,0-4.634-12.306-.599-20.621,4.035-8.315,10.471-11.791,15.212-9.491,4.741,2.301,5.992,9.507,1.957,17.823Z"/><path class="cls-10" d="M683.515,459.978c-7.129,3.135-17.381-1.237-17.381-1.237,0,0,3.707-10.51,10.836-13.645,7.129-3.135,13.174-1.817,14.981,2.292s-1.307,9.455-8.437,12.59Z"/><path class="cls-10" d="M662.015,442.081c-.806,5.063-.518,10.132-.044,15.194.176,1.881.378,3.762.559,5.641.495,5.137.421,10.344.401,15.511"/><path class="cls-10" d="M662.53,462.916c.985-2.143,1.628-2.92,3.605-4.175"/><path class="cls-10" d="M657.593,446.931c2.201,3.189,3.207,6.709,4.379,10.344"/><path class="cls-10" d="M632.849,489.294c5.995-6.495,17.229-10.867,30.099-10.867s24.103,4.372,30.098,10.867"/><path class="cls-10" d="M105.308,482.698c2.49-2.366,5.75-3.8,9.319-3.8,7.817,0,14.155,6.879,14.155,15.364H42.411c0-9.115,6.337-16.505,14.155-16.505,2.627,0,5.086.834,7.194,2.288l-.002.003c2.181-9.101,10.554-15.879,20.55-15.879,10.916,0,19.897,8.083,20.992,18.447l.008.081Z"/><path class="cls-10" d="M550.62,474.284c2.49-2.366,5.75-3.8,9.319-3.8,7.817,0,14.155,6.879,14.155,15.364h-86.371c0-9.115,6.337-16.505,14.155-16.505,2.627,0,5.086.834,7.194,2.288l-.002.003c2.181-9.101,10.554-15.879,20.55-15.879,10.916,0,19.897,8.083,20.992,18.447l.008.081Z"/><path class="cls-10" d="M550.62,474.284c2.49-2.366,5.75-3.8,9.319-3.8,7.817,0,14.155,6.879,14.155,15.364h-86.371c0-9.115,6.337-16.505,14.155-16.505,2.627,0,5.086.834,7.194,2.288l-.002.003c2.181-9.101,10.554-15.879,20.55-15.879,10.916,0,19.897,8.083,20.992,18.447l.008.081Z"/><path class="cls-10" d="M792.056,318.053s8.667-43.333,0-54c-8.667-10.667-32-10-32-10l-68,23.667-26.62,68.667h39.381s25.487-52.333,25.487-52.333h27.085l-1.574,23.667,36.24.333Z"/><path class="cls-10" d="M755.923,317.731h33.49c7.083,0,12.834,5.751,12.834,12.834h0c0,3.312-2.689,6-6,6h-38.324c-1.104,0-2-.896-2-2v-16.834h0Z"/><path class="cls-10" d="M705.761,365.22h-41.324c-1.105,0-2-.895-2-2l3-16.834h33.49c7.088,0,12.834,5.746,12.834,12.834h0c0,3.314-2.686,6-6,6Z"/><rect class="cls-10" x="748.176" y="336.565" width="66.661" height="30.191"/><path class="cls-10" d="M576.397,423.719h33.496v16.444c0,1.104-.896,2-2,2h-37.94c-3.311,0-6-2.689-6-6h0c0-6.868,5.576-12.444,12.444-12.444Z"/><path class="cls-10" d="M516.175,423.719h33.496v16.444c0,1.104-.896,2-2,2h-37.94c-3.311,0-6-2.689-6-6h0c0-6.868,5.576-12.444,12.444-12.444Z"/><polygon class="cls-10" points="481.056 435.608 445.835 435.608 441.834 392.386 485.057 392.386 481.056 435.608"/><path class="cls-10" d="M485.057,392.386c0-9.36-9.676-16.947-21.611-16.947s-21.611,7.588-21.611,16.947"/><path class="cls-10" d="M485.057,392.386l-.922,9.957c-4.81-.376-6.245,6.321-13.301,6.265-7.056-.056-9.611-8.056-13.278-8.056s-5.389,3.167-9.056,3.278-5.776-1.823-5.776-1.823l-.89-9.621h43.222Z"/><polyline class="cls-10" points="374.279 358.831 266.279 358.831 266.279 320.567 180.502 320.567 180.502 160.785 374.279 160.785 374.279 135.275 546.231 135.275 546.231 400.136"/><polyline class="cls-10" points="302.735 282.634 206.279 282.634 206.279 195.72 374.279 195.72 374.279 411.275 412.946 411.275 412.946 169.73 546.231 169.73"/><polyline class="cls-10" points="546.231 161.141 575.49 161.141 575.49 182.963 599.167 182.963 599.167 203.023 622.723 203.023 622.723 227.216 646.723 227.216 646.723 394.299 593.39 394.299"/><polyline class="cls-10" points="412.946 275.72 436.239 275.72 436.239 329.546 546.231 329.546"/><path class="cls-10" d="M326.507,244.927h0c13.12,0,23.772,10.652,23.772,23.772v90.09h-47.544v-90.09c0-13.12,10.652-23.772,23.772-23.772Z"/><rect class="cls-10" x="206.279" y="268.87" width="27.201" height="13.764"/><rect class="cls-10" x="233.48" y="268.87" width="27.201" height="13.764"/><rect class="cls-10" x="260.681" y="268.87" width="27.201" height="13.764"/><rect class="cls-10" x="403.721" y="121.72" width="27.201" height="13.764"/><rect class="cls-10" x="430.922" y="121.72" width="27.201" height="13.764"/><rect class="cls-10" x="458.122" y="121.72" width="27.201" height="13.764"/><rect class="cls-10" x="485.323" y="121.72" width="27.201" height="13.764"/><rect class="cls-10" x="403.721" y="107.956" width="27.201" height="13.764"/><rect class="cls-10" x="430.922" y="107.956" width="27.201" height="13.764"/><rect class="cls-10" x="458.122" y="107.956" width="27.201" height="13.764"/><rect class="cls-10" x="485.323" y="107.956" width="27.201" height="13.764"/><rect class="cls-10" x="206.279" y="255.106" width="27.201" height="13.764"/><rect class="cls-10" x="233.48" y="255.106" width="27.201" height="13.764"/><rect class="cls-10" x="206.279" y="241.342" width="27.201" height="13.764"/><path class="cls-10" d="M189.24,384.561s-6.13,8.871-5.19,17.158c.94,8.287,2.586,15.81,8.228,19.572-.94,9.262-2.261,26.706-2.261,26.706h44.344s5.469-22.004,5.673-28.351c.204-6.348-.851-14.316-3.145-19.148"/><path class="cls-10" d="M240.061,422.718c6.919.511,8.152,5.398,10.576,10.9,1.625,3.688,3.058,7.461,4.293,11.297.211.656.437,1.347.951,1.806.636.568,1.558.648,2.41.693,12.713.669,25.45-.273,38.146-1.215-1.156-5.827-.54-11.994-2.331-17.693-1.745-5.557-5.402-10.338-9.364-14.511-12.622-13.293-30.309-22.571-48.988-21.659,2.277,11.116,4.306,16.941,4.251,30.378.019.001.037.003.056.004Z"/><rect class="cls-10" x="291.838" y="85.432" width="33.233" height="9.527"/><path class="cls-10" d="M806.365,184.173l8.303-3.48c2.659-1.114,3.961-3.854,2.91-6.118h0c-1.051-2.265-4.059-3.198-6.718-2.083l-14.244,5.97c-2.659,1.114-3.961,3.854-2.91,6.118"/><path class="cls-10" d="M307.497,46.09c5.494,10.725,2.671,19.343-1.658,25.364-7.217-1.123-16.059-2.75-21.553-13.475-5.494-10.725-1.12-19.658,1.658-25.364,7.572,1.612,16.059,2.75,21.553,13.475Z"/><path class="cls-10" d="M332.322,67.929c-7.458,5.518-14.182,4.692-19.118,2.402.11-5.404.432-12.061,7.89-17.578,7.458-5.518,14.574-3.61,19.118-2.402-.44,5.732-.432,12.061-7.89,17.578Z"/><polygon class="cls-10" points="319.31 118.332 297.82 118.332 293.832 94.958 323.298 94.958 319.31 118.332"/><path class="cls-10" d="M806.365,184.173l8.303-3.48c2.659-1.114,3.961-3.854,2.91-6.118h0c-1.051-2.265-4.059-3.198-6.718-2.083l-14.244,5.97c-2.659,1.114-3.961,3.854-2.91,6.118l.322,1.252"/><rect class="cls-10" x="442.501" y="195.72" width="54" height="16.667"/><polyline class="cls-10" points="496.501 204.053 503.834 204.053 503.834 227.72 481.168 227.72 481.168 243.155"/><rect class="cls-10" x="475.168" y="243.155" width="10.889" height="40.342"/><path class="cls-10" d="M805.13,455.882h14.982c3.863,0,7,3.137,7,7v30.198c0,2.76-2.24,5-5,5h0c-9.372,0-16.981-7.609-16.981-16.981v-25.216h0Z" transform="translate(-60.24 122.642) rotate(-8.289)"/><path class="cls-10" d="M305.838,71.455s1.782,2.873,1.782,5.629v7.97"/><line class="cls-10" x1="313.205" y1="70.332" x2="307.621" y2="76.427"/><path class="cls-10" d="M700.813,248.898s-19.927,8.617-19.956,8.63c-1.293.565.189,5.227.553,6.422,1.457,4.787,5.15,9.976,9.984,10.838,4.464.796,8.584-1.32,11.833-3.563.507-.35,1.004-.716,1.489-1.097,3.559-2.794,7.922-7.06,4.418-13.065-1.194-2.045-2.866-3.788-4.557-5.392-.762-.723-2.756-3.209-3.763-2.773Z"/><line class="cls-10" x1="847.163" y1="114.236" x2="852.424" y2="99.313"/><line class="cls-10" x1="853.147" y1="121.438" x2="870.765" y2="108.238"/><polygon class="cls-7" points="570.072 342.675 601.298 342.675 609.893 422.675 572.474 422.675 564.919 371.392 550.694 422.675 514.03 422.675 527.79 342.675 570.072 342.675"/><path class="cls-16" d="M606.279,342.675h-80.444s3.333-33.392,3.333-33.4c-.057.571-13.394-2.154-14.663-2.511-5.181-1.458-10.197-3.603-14.645-6.659-6.942-4.769-13.112-11.192-18.693-17.471l17.136-19.308s18.862,9.891,18.864,9.891c.665.349,4.795-1.838,5.486-2.092,4.145-1.524,8.342-2.866,12.538-4.236,9.548-3.116,19.211-4.068,29.226-3.378,6.713.462,13.527,1.574,19.47,4.73,9.129,4.848,15.287,14.124,18.435,23.97,3.359,10.505,3.958,22.108,3.958,33.063v17.4Z"/><polygon class="cls-11" points="570.072 342.675 601.298 342.675 609.893 422.675 572.474 422.675 564.919 371.392 550.694 422.675 514.03 422.675 527.79 342.675 570.072 342.675"/><path class="cls-11" d="M606.279,342.675h-80.444s3.333-33.392,3.333-33.4c-.057.571-13.394-2.154-14.663-2.511-5.181-1.458-10.197-3.603-14.645-6.659-6.942-4.769-13.112-11.192-18.693-17.471l17.136-19.308s18.862,9.891,18.864,9.891c.665.349,4.795-1.838,5.486-2.092,4.145-1.524,8.342-2.866,12.538-4.236,9.548-3.116,19.211-4.068,29.226-3.378,6.713.462,13.527,1.574,19.47,4.73,9.129,4.848,15.287,14.124,18.435,23.97,3.359,10.505,3.958,22.108,3.958,33.063v17.4Z"/><path class="cls-17" d="M485.599,258.095l-2.962-2.461c-3.831-3.183-9.517-2.657-12.699,1.174l-1.914,2.304c-3.183,3.831-2.657,9.517,1.174,12.699l12.323,10.238,14.718-16.396-4.421-10.247c-.74-1.715-2.73-2.505-4.445-1.766h0c-1.715.74-2.505,2.73-1.766,4.445l-.008.01Z"/><path class="cls-1" d="M730.4,163.434l22.355-12.546c2.886-1.62,3.913-5.273,2.293-8.159l-.521-.928c-1.62-2.886-5.273-3.913-8.159-2.293l-9.547,5.358-6.421,18.568Z"/><path class="cls-1" d="M730.4,163.434l22.355-12.546c2.886-1.62,3.913-5.273,2.293-8.159l-.521-.928c-1.62-2.886-5.273-3.913-8.159-2.293l-9.547,5.358-6.421,18.568Z"/><path class="cls-3" d="M730.4,163.434l22.355-12.546c2.886-1.62,3.913-5.273,2.293-8.159l-.521-.928c-1.62-2.886-5.273-3.913-8.159-2.293l-9.547,5.358-6.421,18.568Z"/><path class="cls-11" d="M730.4,163.434l22.355-12.546c2.886-1.62,3.913-5.273,2.293-8.159l-.521-.928c-1.62-2.886-5.273-3.913-8.159-2.293l-9.547,5.358-6.421,18.568Z"/><path class="cls-16" d="M730.4,163.434l22.355-12.546c2.886-1.62,3.913-5.273,2.293-8.159l-.521-.928c-1.62-2.886-5.273-3.913-8.159-2.293l-9.547,5.358-6.421,18.568Z"/><path class="cls-12" d="M693.954,250.976l-16.231,7.41c-7.405-12.287-17.277-25.491-9.367-40.003,6.561-12.037,19.29-19.631,32.28-22.817,17.346-4.254,37.391-2.951,55.027-1.096,6.727.707,13.892,1.665,20.241-1.292,5.556-2.588,10.062-7.128,15.152-10.458,0,0,17.302,18,17.302,18,0,0-12.685,13.667-21.66,18.333-8.975,4.667-26.975,9-26.975,9l.333,26-68,23.667,3.667-51.667-5,4.167,4.082,8.768"/><circle class="cls-1" cx="716.851" cy="342.675" r="13.128"/><circle class="cls-12" cx="716.851" cy="342.675" r="13.128"/><circle class="cls-11" cx="716.851" cy="342.675" r="13.128"/><path class="cls-1" d="M683.254,463.926l-3.005,2.63c-3.886,3.401-4.28,9.309-.878,13.195l2.046,2.337c3.401,3.886,9.309,4.279,13.195.878l14.671-12.84-14.363-16.411-13.401,3.403c-1.877.477-3.012,2.385-2.536,4.262h0c.477,1.877,2.385,3.012,4.262,2.536l.009.01Z"/><path class="cls-11" d="M683.254,463.926l-3.005,2.63c-3.886,3.401-4.28,9.309-.878,13.195l2.046,2.337c3.401,3.886,9.309,4.279,13.195.878l14.671-12.84-14.363-16.411-13.401,3.403c-1.877.477-3.012,2.385-2.536,4.262h0c.477,1.877,2.385,3.012,4.262,2.536l.009.01Z"/><path class="cls-13" d="M732.278,454.608s-7.556,13.556-6.222,22.222c1.333,8.667,7.333,15.778,14.667,16.889,7.333,1.111,65.778,0,65.778,0v-37.555l-10.593,2.28c7.289-10.602,8.601-23.463,6.339-35.769"/><path class="cls-12" d="M204.557,152.053c4.833,6.5,15.323,8.732,15.323,8.732h56.71v28.015h35.148v-37.581s-.014-9.389-4.514-15.944c-4.5-6.556-10.5-10.722-14-11.389-5.947-.915-11.951-1.589-17.953-2.009-10.503-.736-19.417,1.122-29.035,5.21-14.87,6.321-28.066,16.361-41.679,24.966Z"/><path class="cls-13" d="M277.066,188.8h32.837c7.819,0,14.167,6.348,14.167,14.167v1.893c0,2.208-1.792,4-4,4h-39.004c-2.208,0-4-1.792-4-4v-16.06h0Z"/><path class="cls-1" d="M305.896,104.205l3.416.056c4.418.072,7.94,3.712,7.868,8.13l-.044,2.657c-.072,4.418-3.712,7.94-8.13,7.868l-15.949-.273.302-18.653,9.906-5.188c1.489-.726,3.285-.108,4.012,1.381h0c.726,1.489.108,3.285-1.381,4.012v.011Z"/><path class="cls-1" d="M233.228,10.894s-.73-6.209-4.96-7.488c-7.411-2.24-10.863-.2-14.774,1.723-8.283,4.072-18.586-.616-22.316-3.129-1.131,4.938,2.923,13.692,10.446,16.447,7.524,2.755,11.424-4.146,16.764-3.834,5.34.313,5.853,4.016,5.853,4.016l8.988-7.736Z"/><path class="cls-16" d="M233.228,10.894s-.73-6.209-4.96-7.488c-7.411-2.24-10.863-.2-14.774,1.723-8.283,4.072-18.586-.616-22.316-3.129-1.131,4.938,2.923,13.692,10.446,16.447,7.524,2.755,11.424-4.146,16.764-3.834,5.34.313,5.853,4.016,5.853,4.016l8.988-7.736Z"/><polygon class="cls-17" points="358.39 430.553 285.557 476.053 251.683 467.546 322.911 425.386 358.39 430.553"/><polygon class="cls-17" points="358.39 445.812 285.39 490.886 285.39 476.053 358.39 430.553 358.39 445.812"/><polygon class="cls-17" points="251.683 467.546 251.683 481.886 285.39 490.886 285.39 476.053 251.683 467.546"/><circle class="cls-1" cx="74.001" cy="218.048" r="26.773"/><path class="cls-1" d="M58.637,239.98l8.545-10.463c-3.235-.434-5.563-3.42-5.128-6.655.434-3.235,3.467-5.507,6.703-5.073,0,0,1.745-1.047,2.856-3.947s1.333-9.456,1.333-9.456c0,0,7.667,4.556,15.111,4.889,7.444.333,11.297.16,11.297.16l-.102-.305c-1.157-3.28-2.976-6.387-5.466-9.119-9.961-10.927-26.895-11.71-37.822-1.749-10.927,9.961-11.71,26.895-1.749,37.822,1.355,1.487,2.84,2.786,4.421,3.895h0Z"/><circle class="cls-17" cx="74.001" cy="218.048" r="26.773"/><path class="cls-6" d="M58.637,239.98l8.545-10.463c-3.235-.434-5.563-3.42-5.128-6.655.434-3.235,3.467-5.507,6.703-5.073,0,0,1.745-1.047,2.856-3.947s1.333-9.456,1.333-9.456c0,0,7.667,4.556,15.111,4.889,7.444.333,11.297.16,11.297.16l-.102-.305c-1.157-3.28-2.976-6.387-5.466-9.119-9.961-10.927-26.895-11.71-37.822-1.749-10.927,9.961-11.71,26.895-1.749,37.822,1.355,1.487,2.84,2.786,4.421,3.895h0Z"/><circle class="cls-11" cx="74.001" cy="218.048" r="26.773"/><path class="cls-11" d="M58.637,239.98l8.545-10.463c-3.235-.434-5.563-3.42-5.128-6.655.434-3.235,3.467-5.507,6.703-5.073,0,0,1.745-1.047,2.856-3.947s1.333-9.456,1.333-9.456c0,0,7.667,4.556,15.111,4.889,7.444.333,11.297.16,11.297.16l-.102-.305c-1.157-3.28-2.976-6.387-5.466-9.119-9.961-10.927-26.895-11.71-37.822-1.749-10.927,9.961-11.71,26.895-1.749,37.822,1.355,1.487,2.84,2.786,4.421,3.895h0Z"/><path class="cls-1" d="M108.356,274.432c-2.532,1.866-4.725,3.937-5.895,6.773"/><ellipse class="cls-16" cx="85.596" cy="268.968" rx="9.17" ry="14.809" transform="translate(-190.136 208.613) rotate(-60)"/><ellipse class="cls-1" cx="121.379" cy="271.674" rx="13.312" ry="8.524" transform="translate(-53.652 31.042) rotate(-11.957)"/><ellipse class="cls-16" cx="126.118" cy="243.96" rx="17.695" ry="10.634" transform="translate(-110.376 104.343) rotate(-32.107)"/><rect class="cls-15" x="81.977" y="289.124" width="40.295" height="11.551"/><polygon class="cls-15" points="115.288 329.017 89.231 329.017 84.395 300.676 120.124 300.676 115.288 329.017"/><ellipse class="cls-16" cx="121.379" cy="271.674" rx="13.312" ry="8.524" transform="translate(-53.652 31.042) rotate(-11.957)"/><path class="cls-11" d="M108.356,274.432c-2.532,1.866-4.725,3.937-5.895,6.773"/><path class="cls-11" d="M98.421,276.373c1.919,2.501,2.551,4.459,3.839,7.526"/><path class="cls-10" d="M485.599,258.095l-2.962-2.461c-3.831-3.183-9.517-2.657-12.699,1.174l-1.914,2.304c-3.183,3.831-2.657,9.517,1.174,12.699l12.323,10.238,14.718-16.396-4.421-10.247c-.74-1.715-2.73-2.505-4.445-1.766h0c-1.715.74-2.505,2.73-1.766,4.445l-.008.01Z"/><path class="cls-10" d="M730.4,163.434l22.355-12.546c2.886-1.62,3.913-5.273,2.293-8.159l-.521-.928c-1.62-2.886-5.273-3.913-8.159-2.293l-9.547,5.358-6.421,18.568Z"/><path class="cls-10" d="M693.954,250.976l-16.231,7.41c-7.405-12.287-17.277-25.491-9.367-40.003,6.561-12.037,19.29-19.631,32.28-22.817,17.346-4.254,37.391-2.951,55.027-1.096,6.727.707,13.892,1.665,20.241-1.292,5.556-2.588,10.062-7.128,15.152-10.458,0,0,17.302,18,17.302,18,0,0-12.685,13.667-21.66,18.333-8.975,4.667-26.975,9-26.975,9l.333,26-68,23.667,3.667-51.667-5,4.167,4.082,8.768"/><circle class="cls-10" cx="716.851" cy="342.675" r="13.128"/><path class="cls-10" d="M802.247,422.675c2.261,12.307,1.987,23.553-5.302,34.156"/><path class="cls-10" d="M732.278,454.608s-7.556,13.556-6.222,22.222c1.333,8.667,7.333,15.778,14.667,16.889,7.333,1.111,65.778,0,65.778,0v-37.555l-24.993,4.889"/><path class="cls-10" d="M306.624,104.205l3.416.056c4.418.072,7.94,3.712,7.868,8.13l-.044,2.657c-.072,4.418-3.712,7.94-8.13,7.868l-16.677-.273v-18.506s10.936-5.335,10.936-5.335c1.489-.726,3.285-.108,4.012,1.381h0c.726,1.489.108,3.285-1.381,4.012v.011Z"/><path class="cls-10" d="M204.557,152.053c4.833,6.5,15.323,8.732,15.323,8.732h56.71v28.015h35.148v-37.581s-.014-9.389-4.514-15.944c-4.5-6.556-10.5-10.722-14-11.389-5.947-.915-11.951-1.589-17.953-2.009-10.503-.736-19.417,1.122-29.035,5.21-14.87,6.321-28.066,16.361-41.679,24.966Z"/><path class="cls-10" d="M277.066,188.8h32.837c7.819,0,14.167,6.348,14.167,14.167v1.893c0,2.208-1.792,4-4,4h-39.004c-2.208,0-4-1.792-4-4v-16.06h0Z"/><path class="cls-10" d="M233.228,10.894s-.73-6.209-4.96-7.488c-7.411-2.24-10.863-.2-14.774,1.723-8.283,4.072-18.586-.616-22.316-3.129-1.131,4.938,2.923,13.692,10.446,16.447,7.524,2.755,11.424-4.146,16.764-3.834,5.34.313,5.853,4.016,5.853,4.016l8.988-7.736Z"/><polygon class="cls-10" points="358.39 430.553 285.557 476.053 251.683 467.546 322.911 425.386 358.39 430.553"/><polygon class="cls-10" points="358.39 445.812 285.39 490.886 285.39 476.053 358.39 430.553 358.39 445.812"/><polygon class="cls-10" points="251.683 467.546 251.683 481.886 285.39 490.886 285.39 476.053 251.683 467.546"/><circle class="cls-10" cx="74.001" cy="218.048" r="26.773"/><path class="cls-10" d="M58.637,239.98l8.545-10.463c-3.235-.434-5.563-3.42-5.128-6.655.434-3.235,3.467-5.507,6.703-5.073,0,0,1.745-1.047,2.856-3.947s1.333-9.456,1.333-9.456c0,0,7.667,4.556,15.111,4.889,7.444.333,11.297.16,11.297.16l-.102-.305c-1.157-3.28-2.976-6.387-5.466-9.119-9.961-10.927-26.895-11.71-37.822-1.749-10.927,9.961-11.71,26.895-1.749,37.822,1.355,1.487,2.84,2.786,4.421,3.895h0Z"/><path class="cls-10" d="M111.129,253.365c-2.835,5.581-5.496,11.306-7.082,17.383-1.647,6.307-1.783,11.893-1.922,18.376"/><ellipse class="cls-10" cx="85.596" cy="268.968" rx="9.17" ry="14.809" transform="translate(-190.136 208.613) rotate(-60)"/><ellipse class="cls-10" cx="121.379" cy="271.674" rx="13.312" ry="8.524" transform="translate(-53.652 31.042) rotate(-11.957)"/><ellipse class="cls-10" cx="126.118" cy="243.96" rx="17.695" ry="10.634" transform="translate(-110.376 104.343) rotate(-32.107)"/><rect class="cls-10" x="81.977" y="289.124" width="40.295" height="11.551"/><polygon class="cls-10" points="115.288 329.017 89.231 329.017 84.395 300.676 120.124 300.676 115.288 329.017"/><circle class="cls-17" cx="559.919" cy="242.155" r="25.798"/><path class="cls-13" d="M567.788,217.587c-7.561-2.047-15.99-.625-22.557,3.606,3.995,7.483,7.991,14.967,11.986,22.45,2.187-.875,4.891-.233,6.451,1.532s1.865,4.528.727,6.59c-.326.591-.763,1.143-.899,1.804-.118.574.007,1.168.153,1.736,1.706,6.631,6.6,12.363,12.882,15.087,6.281,2.724,13.811,2.379,19.818-.907,3.662-2.003,6.914-5.379,7.351-9.53.284-2.7-.675-5.44-2.296-7.617s-3.863-3.831-6.264-5.098c-1.23-.649-2.538-1.226-3.506-2.224-1.646-1.697-1.977-4.225-2.521-6.526-2.216-9.373-9.622-17.609-18.948-20.29-.733-.211-1.481-.373-2.217-.572l-.159-.043"/><circle class="cls-17" cx="729.523" cy="169.73" r="25.913"/><path class="cls-1" d="M704.875,177.759c-3.764-11.521.994-24.47,11.965-30.627,10.971-6.157,24.503-3.473,32.376,5.742l-44.342,24.885Z"/><path class="cls-16" d="M704.875,177.759c-3.764-11.521.994-24.47,11.965-30.627,10.971-6.157,24.503-3.473,32.376,5.742l-44.342,24.885Z"/><path class="cls-15" d="M726.019,182.16c-3.134.404-6.057-1.805-6.461-4.938-.404-3.134,1.863-6.017,4.997-6.421l-.493-3.823-19.245,10.581c2.455,7.779,8.413,13.812,15.831,16.523l5.37-11.921Z"/><circle class="cls-11" cx="729.523" cy="169.73" r="25.913"/><path class="cls-11" d="M704.875,177.759c-3.764-11.521.994-24.47,11.965-30.627,10.971-6.157,24.503-3.473,32.376,5.742l-44.342,24.885Z"/><path class="cls-1" d="M721.795,374.192c1.533-2.917.435-6.577-2.482-8.11-2.917-1.533-6.56-.364-8.092,2.554l-23.862-12.539c7.942-9.832,21.97-13.018,33.582-6.916,11.613,6.102,16.945,19.463,13.353,31.58l-12.499-6.568Z"/><circle class="cls-17" cx="708.37" cy="373.104" r="27.027"/><path class="cls-1" d="M721.795,374.192c1.533-2.917.435-6.577-2.482-8.11-2.917-1.533-6.56-.364-8.092,2.554l-23.862-12.539c7.942-9.832,21.97-13.018,33.582-6.916,11.613,6.102,16.945,19.463,13.353,31.58l-12.499-6.568Z"/><path class="cls-12" d="M721.795,374.192c1.533-2.917.435-6.577-2.482-8.11-2.917-1.533-6.56-.364-8.092,2.554l-23.862-12.539c7.942-9.832,21.97-13.018,33.582-6.916,11.613,6.102,16.945,19.463,13.353,31.58l-12.499-6.568Z"/><path class="cls-7" d="M732.278,451.497v3.111l69.969-31.934c-2.698-18.822-18.858-33.844-31.747-41.915-12.889-8.071-35.137-6.297-35.137-6.297,0,0-1.442,11.315-5.22,15.277-3.778,3.962-9.221,7.299-9.221,7.299-2.203,10.477-5.966,20.591-10.791,30.136s-11.308,17.188-18.519,24.99l17.671,21.778s25.44-19.778,34.106-40"/><path class="cls-17" d="M309.148,426.449c-3.679-2.917-4.764-8.166-2.346-12.354h0c2.659-4.606,8.549-6.184,13.155-3.525l15.539,8.972c4.606,2.659,6.184,8.549,3.525,13.155h0c-2.659,4.606-8.549,6.184-13.155,3.525l-6.854-3.957h0c-.045,2.061-1.539,3.869-3.646,4.235h0c-2.394.416-4.672-1.188-5.088-3.582l-1.125-6.473-.003.004Z"/><path class="cls-13" d="M264.89,326.169l23.885,11.444c3.084,1.478,6.781.176,8.259-2.908l.475-.992c1.478-3.084.176-6.781-2.908-8.259l-10.201-4.888-19.51,5.602Z"/><path class="cls-17" d="M94.94,314.577l3.3.883c4.268,1.143,6.802,5.529,5.659,9.797l-.687,2.567c-1.143,4.268-5.529,6.802-9.797,5.659l-16.112-4.313,4.825-18.023,11.572-2.451c1.621-.343,3.213.692,3.556,2.313h0c.343,1.621-.692,3.213-2.313,3.556l-.003.011Z"/><path class="cls-7" d="M274.409,122.347c6.176.817,12.422,1.3,18.648,1.539,0,0,0-22.5,0-22.5-4.333-.667-23-4.667-24-8.667-1.771-7.082-5.323-14.101-8.733-20.505-2.108-3.96-3.969-7.576-7.719-10.227-3.551-2.51-7.809-3.983-12.118-4.447-7.186-.774-15.574.629-21.482,4.842-5.486,3.911-9.364,9.599-12.726,15.337-6.444,11-9.222,48-7.889,59.666,1.333,11.667,6.167,14.667,6.167,14.667,0,0,8.557-5.619,15.453-10.148,7.051-4.631,18.184-11.376,24.773-13.985,7.013-2.776,11.881-4.378,16.802-5.004,5.108-.65,12.824-.569,12.824-.569Z"/><path class="cls-10" d="M567.788,217.587c-7.561-2.047-15.99-.625-22.557,3.606,3.995,7.483,7.991,14.967,11.986,22.45,2.187-.875,4.891-.233,6.451,1.532s1.865,4.528.727,6.59c-.326.591-.763,1.143-.899,1.804-.118.574.007,1.168.153,1.736,1.032,4.01,3.23,7.692,6.196,10.579.026.026.053.051.079.077,1.92,1.851,4.158,3.37,6.607,4.432,6.281,2.724,13.811,2.379,19.818-.907,3.662-2.003,6.914-5.379,7.351-9.53.284-2.7-.675-5.44-2.296-7.617s-3.863-3.831-6.264-5.098c-1.23-.649-2.538-1.226-3.506-2.224-1.646-1.697-1.977-4.225-2.521-6.526-2.216-9.373-9.622-17.609-18.948-20.29-.733-.211-1.481-.373-2.217-.572l-.159-.043"/><path class="cls-10" d="M545.114,221.026c-4.461,3.121-7.975,7.674-9.764,13.259-4.346,13.569,3.13,28.091,16.699,32.438,6.118,1.96,12.43,1.516,17.916-.806"/><path class="cls-10" d="M704.875,177.759c-3.764-11.521.994-24.47,11.965-30.627,10.971-6.157,24.503-3.473,32.376,5.742l-44.342,24.885Z"/><path class="cls-10" d="M726.019,182.16c-3.134.404-6.057-1.805-6.461-4.938-.404-3.134,1.863-6.017,4.997-6.421l-.493-3.823-19.245,10.581c2.455,7.779,8.413,13.812,15.831,16.523l5.37-11.921Z"/><circle class="cls-10" cx="729.523" cy="169.73" r="25.913"/><path class="cls-10" d="M721.795,374.192c1.533-2.917.435-6.577-2.482-8.11-2.917-1.533-6.56-.364-8.092,2.554l-23.862-12.539c7.942-9.832,21.97-13.018,33.582-6.916,11.613,6.102,16.945,19.463,13.353,31.58l-12.499-6.568Z"/><path class="cls-10" d="M735.363,374.462s22.249-1.773,35.137,6.297c12.889,8.071,29.049,23.092,31.747,41.915l-69.969,31.934v-3.111"/><path class="cls-10" d="M720.922,397.038c-2.203,10.477-5.966,20.591-10.791,30.136s-11.308,17.188-18.519,24.99l17.671,21.778s25.44-19.778,34.106-40"/><path class="cls-10" d="M233.228,96.387c4.538,4.18,9.149,8.31,13.845,12.305,4.667,3.971,9.702,7.503,15.019,10.548,3.65,2.09,8.181,2.56,12.318,3.107,6.176.817,12.422,1.3,18.648,1.539,0,0,0-22.5,0-22.5-4.333-.667-23-4.667-24-8.667-1.771-7.082-5.323-14.101-8.733-20.505-2.108-3.96-3.969-7.576-7.719-10.227-3.551-2.51-7.809-3.983-12.118-4.447-7.186-.774-15.574.629-21.482,4.842-5.486,3.911-9.364,9.599-12.726,15.337-6.444,11-9.222,48-7.889,59.666,1.333,11.667,6.167,14.667,6.167,14.667,0,0,14.406-9.461,17.897-11.754,3.49-2.292,8.888-5.805,14.878-8.727,5.99-2.922,11.104-5.406,17.094-6.867s10.512-2.328,14.757-2.63,3.46.04,3.46.04"/><path class="cls-10" d="M309.148,426.449c-3.679-2.917-4.764-8.166-2.346-12.354h0c2.659-4.606,8.549-6.184,13.155-3.525l15.539,8.972c4.606,2.659,6.184,8.549,3.525,13.155h0c-2.659,4.606-8.549,6.184-13.155,3.525l-6.854-3.957h0c-.045,2.061-1.539,3.869-3.646,4.235h0c-2.394.416-4.672-1.188-5.088-3.582l-1.125-6.473-.003.004Z"/><path class="cls-10" d="M264.89,326.169l23.885,11.444c3.084,1.478,6.781.176,8.259-2.908l.475-.992c1.478-3.084.176-6.781-2.908-8.259l-10.201-4.888-19.51,5.602Z"/><path class="cls-10" d="M94.94,314.577l3.3.883c4.268,1.143,6.802,5.529,5.659,9.797l-.687,2.567c-1.143,4.268-5.529,6.802-9.797,5.659l-16.112-4.313,4.825-18.023,11.572-2.451c1.621-.343,3.213.692,3.556,2.313h0c.343,1.621-.692,3.213-2.313,3.556l-.003.011Z"/><circle class="cls-10" cx="708.37" cy="373.104" r="27.027"/><circle class="cls-1" cx="245.876" cy="34.139" r="26.418"/><path class="cls-1" d="M233.085,37.259c-1.929-2.58-1.434-6.282,1.146-8.211,2.58-1.929,6.276-1.362,8.205,1.218l21.1-15.781c-9.181-8.266-23.213-9.18-33.481-1.5-10.269,7.68-13.357,21.398-8.022,32.541l11.053-8.266Z"/><path class="cls-1" d="M233.085,37.259c-1.929-2.58-1.434-6.282,1.146-8.211,2.58-1.929,6.276-1.362,8.205,1.218l21.1-15.781c-9.181-8.266-23.213-9.18-33.481-1.5-10.269,7.68-13.357,21.398-8.022,32.541l11.053-8.266Z"/><circle class="cls-17" cx="245.876" cy="34.139" r="26.418"/><path class="cls-16" d="M233.085,37.259c-1.929-2.58-1.434-6.282,1.146-8.211,2.58-1.929,6.276-1.362,8.205,1.218l21.1-15.781c-9.181-8.266-23.213-9.18-33.481-1.5-10.269,7.68-13.357,21.398-8.022,32.541l11.053-8.266Z"/><path class="cls-7" d="M271.588,398.886l2.978-10.106,31.463,38.174,20.479-14.081c-1.193-2.09-19.379-29.373-26.749-38.834-7.371-9.461-22.434-25.309-22.434-25.309,0,0-14.933-10.343-20.18-12.01s-21.42-6.333-24.845-6.412c-5.606-.129-11.895.702-17.253,2.234-5.643,1.613-11.014,4.175-15.817,7.549-4.992,3.507-9.377,7.972-12.663,13.119-3.29,5.154-6.249,12.104-5.364,18.33.64,4.502,3.391,8.444,6.587,11.679,4.417,4.471,9.756,6.293,15.554,8.242,7.9,2.657,15.881,5.09,23.882,7.425-.167-3.5,2.333-10,3.667-13.167l25.012,8.583,6.488,2.667,9.197,1.917Z"/><circle class="cls-10" cx="245.876" cy="34.139" r="26.418"/><path class="cls-10" d="M233.085,37.259c-1.929-2.58-1.434-6.282,1.146-8.211,2.58-1.929,6.276-1.362,8.205,1.218l21.1-15.781c-9.181-8.266-23.213-9.18-33.481-1.5-10.269,7.68-13.357,21.398-8.022,32.541l11.053-8.266Z"/><path class="cls-10" d="M277.324,348.73s15.063,15.848,22.434,25.309c7.371,9.461,25.556,36.744,26.749,38.834l-20.479,14.081-31.463-38.174-2.978,10.106"/><path class="cls-6" d="M251.968,414.225l-14.541-15.809c-.762-.828-.705-2.114.128-2.872l18.803-17.112c.833-.758,2.126-.701,2.888.128l14.541,15.809c.762.828.705,2.114-.128,2.872l-18.803,17.112c-.833.758-2.126.701-2.888-.128ZM255.277,404.663l8.641-7.864c.833-.758.89-2.044.128-2.872l-5.222-5.677c-.762-.828-2.055-.886-2.888-.128l-8.641,7.864c-.833.758-.89,2.044-.128,2.872l5.222,5.677c.762.828,2.055.886,2.888.128Z"/><polyline class="cls-4" points="256.41 412.938 273.936 396.989 322.226 449.489 309.686 460.901"/><circle class="cls-17" cx="259.047" cy="329.168" r="26.773"/><path class="cls-5" d="M246.458,333.589c-2.203-2.409-2.073-6.192.337-8.395,2.409-2.203,6.193-1.999,8.396.41l2.939-2.687-20.376-9.983c-6.67,8.728-7.297,20.727-1.618,30.094l10.322-9.439Z"/><path class="cls-14" d="M237.617,313.101c7.503-10.026,21.276-13.695,32.998-8.079,11.722,5.617,17.492,18.65,14.379,30.779l-47.377-22.701Z"/><path class="cls-15" d="M246.458,333.589c-2.203-2.409-2.073-6.192.337-8.395,2.409-2.203,6.193-1.999,8.396.41l2.939-2.687-20.376-9.983c-6.67,8.728-7.297,20.727-1.618,30.094l10.322-9.439Z"/><path class="cls-13" d="M237.617,313.101c7.503-10.026,21.276-13.695,32.998-8.079,11.722,5.617,17.492,18.65,14.379,30.779l-47.377-22.701Z"/><polyline class="cls-10" points="256.41 412.938 273.936 396.989 322.226 449.489 309.686 460.901"/><polyline class="cls-10" points="256.538 412.901 256.9 418.374 262.339 417.665 262.698 423.135 268.136 422.425 268.5 427.9 273.939 427.191 274.303 432.666 279.743 431.957 280.109 437.434 285.55 436.726 285.915 442.202 291.359 441.496 291.725 446.973 297.166 446.265 297.532 451.742 302.976 451.037 303.344 456.515 308.793 455.814 309.166 461.296"/><path class="cls-10" d="M251.968,414.225l-14.541-15.809c-.762-.828-.705-2.114.128-2.872l18.803-17.112c.833-.758,2.126-.701,2.888.128l14.541,15.809c.762.828.705,2.114-.128,2.872l-18.803,17.112c-.833.758-2.126.701-2.888-.128Z"/><path class="cls-10" d="M252.389,404.536l-5.222-5.677c-.762-.828-.705-2.114.128-2.872l8.641-7.864c.833-.758,2.126-.701,2.888.128l5.222,5.677c.762.828.705,2.114-.128,2.872l-8.641,7.864c-.833.758-2.126.701-2.888-.128Z"/><circle class="cls-10" cx="259.047" cy="329.168" r="26.773"/><path class="cls-10" d="M246.458,333.589c-2.203-2.409-2.073-6.192.337-8.395,2.409-2.203,6.193-1.999,8.396.41l2.939-2.687-20.376-9.983c-6.67,8.728-7.297,20.727-1.618,30.094l10.322-9.439Z"/><path class="cls-10" d="M237.617,313.101c7.503-10.026,21.276-13.695,32.998-8.079,11.722,5.617,17.492,18.65,14.379,30.779l-47.377-22.701Z"/><path class="cls-17" d="M248.826,382.249l.842.343c5.116,2.081,7.575,7.916,5.494,13.031l-.649,1.596c-2.081,5.116-7.916,7.575-13.031,5.494l-17.314-7.044,8.187-20.121,4.531,1.844.005-.011h8.852c1.883,0,3.41,1.527,3.41,3.41h0c0,.522-.117,1.017-.327,1.459"/><path class="cls-10" d="M248.826,382.249l.842.343c5.116,2.081,7.575,7.916,5.494,13.031l-.649,1.596c-2.081,5.116-7.916,7.575-13.031,5.494l-17.314-7.044,8.187-20.121,4.531,1.844.005-.011h8.852c1.883,0,3.41,1.527,3.41,3.41h0c0,.522-.117,1.017-.327,1.459"/><path class="cls-7" d="M219.724,361.053l-4.833,4.333,22,9.833s-4.667,7.333-6,10.5c-1.333,3.167-3.833,9.667-3.667,13.167-8.001-2.335-15.982-4.769-23.882-7.425-5.798-1.95-11.136-3.771-15.554-8.242-3.196-3.235-5.947-7.177-6.587-11.679-.885-6.226,2.073-13.176,5.364-18.33,3.286-5.148,7.671-9.613,12.663-13.119,4.803-3.374,10.174-5.936,15.817-7.549,5.358-1.532,11.665-2.699,17.253-2.234"/><path class="cls-10" d="M219.724,361.053l-4.833,4.333,22,9.833s-4.667,7.333-6,10.5c-1.333,3.167-3.833,9.667-3.667,13.167-8.001-2.335-15.982-4.769-23.882-7.425-5.798-1.95-11.136-3.771-15.554-8.242-3.196-3.235-5.947-7.177-6.587-11.679-.885-6.226,2.073-13.176,5.364-18.33,3.286-5.148,7.671-9.613,12.663-13.119,4.803-3.374,10.174-5.936,15.817-7.549,5.358-1.532,11.665-2.699,17.253-2.234"/></svg>