<svg width="180" height="23" viewBox="0 0 180 23" fill="none" xmlns="http://www.w3.org/2000/svg">
<g clip-path="url(#clip0_37_1451)">
<path d="M46.8108 14.7693C46.7694 14.5842 46.6639 14.2955 46.6633 14.1092C46.6633 13.9648 46.7448 13.7989 47.0952 13.7977C47.5085 13.7952 47.6146 14.3522 47.762 14.6613C48.5331 16.2893 50.0285 17.7279 51.9704 17.7174C53.4164 17.7106 54.5885 16.8161 54.5811 15.3084C54.5638 11.9421 46.9082 13.612 46.8799 7.97239C46.8694 5.84535 48.5942 3.91573 51.0315 3.90339C52.7872 3.89475 53.8445 4.69486 54.5262 4.69116C54.7538 4.68992 55.2066 4.39813 55.3929 4.39752C55.6606 4.39752 55.7242 4.51904 55.7254 4.78801C55.6896 5.96565 56.0295 7.84346 56.0308 8.07109C56.0326 8.33943 55.9099 8.52635 55.6206 8.52758C55.2492 8.52944 55.1641 8.1994 54.9969 7.68368C54.5132 6.17847 52.7508 4.82379 51.1808 4.83181C49.9205 4.83859 48.8292 5.56775 48.836 6.74478C48.8539 10.2561 56.5083 8.35794 56.5366 14.0586C56.5471 16.0623 54.9907 18.6316 51.9124 18.6476C50.5904 18.6544 49.4319 18.2263 48.171 17.9851C47.9637 17.945 47.6331 17.9259 47.5492 17.6372L46.8108 14.7693Z" fill="#1F1715"/>
<path d="M64.0577 6.06663C64.054 5.32328 63.5574 5.15981 62.566 5.16597C60.5827 5.17584 59.695 5.34549 59.1892 7.39294C59.1694 7.51755 59.0454 7.57924 58.8184 7.58048C58.5291 7.58171 58.4458 7.45833 58.4458 7.33495C58.4446 7.14865 58.4841 6.85995 58.5038 6.63232L58.7 4.52441C58.7389 4.15181 58.8419 4.04879 59.3163 4.04632C61.4236 4.03522 63.5105 4.19006 65.6178 4.17895C67.7245 4.16785 69.8521 3.99204 71.9174 3.98155C72.4338 3.97846 72.4961 4.04015 72.5615 4.74217L72.7792 6.84823C72.8002 6.99196 72.8218 7.15791 72.8224 7.30226C72.8224 7.42625 72.6164 7.50953 72.451 7.51077C72.2037 7.512 72.0994 7.45093 72.0785 7.32632C71.5516 5.28503 70.6627 5.12341 68.68 5.1339C67.5437 5.13945 67.1939 5.36893 67.1976 6.04998L67.2457 15.6346C67.255 17.2669 68.6597 17.2391 69.3419 17.5457C69.5702 17.6475 69.9212 17.5839 69.9237 18.038C69.9255 18.3686 69.6775 18.3699 69.4295 18.3711C68.2106 18.3779 66.9496 18.2193 65.6893 18.2249C64.4303 18.2317 63.1706 18.4032 61.951 18.4093C61.7049 18.4112 61.4562 18.4124 61.4544 18.0818C61.4519 17.6265 61.8029 17.6876 62.0306 17.5827C62.7098 17.2693 64.115 17.2829 64.1064 15.6512L64.0577 6.06663Z" fill="#1F1715"/>
<path d="M82.2251 3.74428C86.4588 3.72146 89.7987 6.45181 89.8221 10.8317C89.8449 15.4793 85.6877 18.475 81.3917 18.4972C77.1562 18.5188 74.0026 15.7261 73.981 11.5325C73.9588 7.0909 77.9279 3.76649 82.2251 3.74428ZM82.3572 17.5626C84.7945 17.5496 86.4959 14.939 86.4804 11.9847C86.4669 9.17475 84.7495 4.66036 81.4442 4.67763C79.0068 4.68997 77.3055 7.30126 77.3215 10.2555C77.3351 13.0642 79.0525 17.5799 82.3572 17.5626Z" fill="#1F1715"/>
<path d="M92.7129 6.41587C92.7061 5.19752 92.0022 4.82923 91.1343 4.71017C90.8653 4.67069 90.6994 4.54732 90.6975 4.21605C90.6969 4.01001 90.7789 3.88539 91.2743 3.88293C91.7703 3.88046 92.3292 4.0427 93.7949 4.0353C94.9109 4.02975 96.4377 3.8564 97.3469 3.85085C100.116 3.83728 102.99 4.33942 103.006 7.74711C103.014 9.15239 102.315 9.87846 101.471 10.3788C101.059 10.6082 100.46 10.7353 100.461 10.942C100.463 11.2517 102.797 15.3712 103.816 16.502C104.024 16.7278 104.189 16.8512 104.375 16.8505C104.602 16.8487 104.829 16.7858 105.015 16.7851C105.263 16.7839 105.346 16.9276 105.347 17.1547C105.352 18.043 102.916 18.1799 102.233 18.183C101.634 18.1855 100.909 17.7765 100.451 16.9523L98.0113 12.5447C97.6572 11.9068 97.3229 11.3911 96.5598 11.3948C96.0225 11.3979 95.8781 11.5021 95.88 11.7705L95.8973 15.2818C95.9065 16.9758 96.611 17.3447 97.4784 17.402C97.7467 17.4218 97.9133 17.5649 97.9151 17.8955C97.9163 18.1639 97.669 18.2274 96.7183 18.2324C95.8923 18.2361 95.0657 18.0757 94.2385 18.0794C93.4124 18.0837 92.5877 18.2533 91.761 18.2577C91.4723 18.2595 91.1626 18.2607 91.1608 17.9295C91.1589 17.5994 91.5093 17.4939 91.7154 17.4316C92.5198 17.1793 92.7635 16.3934 92.7604 15.7124L92.7129 6.41587ZM95.8695 9.78778C95.8707 10.0358 95.8732 10.5108 97.1952 10.5034C99.0545 10.4947 99.8145 9.62307 99.8034 7.55773C99.796 6.0698 98.9003 4.62813 97.1243 4.63738C96.0293 4.64355 95.8448 4.9742 95.8485 5.71879L95.8695 9.78778Z" fill="#1F1715"/>
<path d="M115.436 6.67061C115.683 6.25668 115.743 5.92541 115.741 5.65707C115.739 5.07842 115.035 4.81316 114.125 4.59108C113.877 4.53063 113.711 4.42822 113.709 4.09757C113.707 3.76754 113.934 3.7663 114.183 3.76507C114.906 3.76137 115.629 3.92238 116.352 3.91929C117.075 3.91497 117.797 3.74595 118.521 3.74224C118.748 3.74163 118.995 3.74039 118.997 4.07043C118.999 4.40108 118.813 4.42267 118.463 4.56887C117.824 4.84092 117.536 5.21414 116.758 6.51948L114.116 10.9327C113.85 11.3682 113.624 11.6791 113.625 12.0511L113.642 15.2935C113.648 16.3262 113.961 17.0689 115.036 17.2077C115.512 17.2669 115.945 17.286 115.948 17.6993C115.95 18.1324 115.372 18.1355 114.793 18.1386C113.864 18.1435 112.933 17.9831 111.941 17.988C111.239 17.9917 110.31 18.1614 109.382 18.1669C108.802 18.1694 108.225 18.1725 108.223 17.7382C108.221 17.3255 108.654 17.3027 109.129 17.2379C110.202 17.088 110.508 16.3422 110.503 15.3095L110.489 12.7278C110.488 12.5212 110.425 12.3565 110.321 12.1924L107.152 6.38314C106.443 5.10557 105.945 4.71569 105.387 4.63673C104.911 4.5553 104.518 4.47511 104.517 4.14507C104.515 3.8138 104.866 3.81257 105.239 3.8101C106.168 3.80578 107.097 3.96617 108.028 3.96124C108.957 3.9563 109.886 3.78728 110.816 3.78234C111.187 3.77926 111.538 3.77802 111.54 4.10806C111.542 4.43933 110.964 4.44241 110.655 4.60836C110.387 4.75518 110.201 4.90138 110.203 5.06547C110.205 5.4171 110.372 5.78785 110.601 6.19931L112.499 9.68103C112.811 10.2572 112.977 10.4429 113.101 10.4423C113.184 10.4423 113.47 10.0481 113.676 9.69583L115.436 6.67061Z" fill="#1F1715"/>
<path d="M137.039 13.5222C137.205 13.6659 137.453 13.8923 137.681 13.8911C138.28 13.8874 138.314 12.5037 138.312 12.1317C138.306 11.0164 137.871 10.5438 136.818 10.5488C136.217 10.5518 136.113 10.4081 136.112 10.0775C136.11 9.70485 136.234 9.64254 136.626 9.64069C137.204 9.63761 137.784 9.71719 138.361 9.71472C138.961 9.71102 139.56 9.62589 140.138 9.6228C140.509 9.62095 140.695 9.70238 140.697 10.0534C140.699 10.4871 139.935 10.4704 139.793 11.0287C139.612 11.7529 139.553 12.3735 139.37 13.0354C139.188 13.6974 138.469 14.4444 138.469 14.5265C138.47 14.8164 140.648 16.5196 141.268 16.5165C141.619 16.5153 141.846 16.4308 142.073 16.4296C142.445 16.4277 142.611 16.5511 142.612 16.7158C142.616 17.5011 140.657 18.1926 139.707 18.1976C137.827 18.2068 136.953 16.8071 136.187 16.6664C134.685 17.8515 133.056 18.2321 131.155 18.2414C128.181 18.2562 125.3 16.4333 125.284 13.2933C125.274 11.331 126.649 9.65056 128.38 8.8153C128.15 8.15523 128.002 7.61915 127.997 6.64878C127.988 4.72718 129.778 3.50019 131.596 3.49032C133.352 3.48168 134.14 4.15902 134.697 4.15656C135.152 4.15409 135.378 3.94558 135.585 3.94435C135.792 3.94435 135.813 4.08808 135.835 4.33607L136.077 7.26876C136.098 7.43347 136.12 7.57782 136.121 7.72217C136.122 7.94919 136.081 8.0738 135.812 8.07503C135.482 8.07688 135.378 7.93315 135.356 7.60188C135.245 6.05349 133.522 4.47179 131.993 4.47981C131.126 4.48474 130.655 5.25092 130.659 6.0356C130.671 8.32919 135.503 12.1866 137.039 13.5222ZM128.653 9.64008C128.074 9.64316 127.705 10.099 127.711 11.339C127.718 12.64 130.527 16.7164 133.564 16.7004C134.411 16.696 135.298 16.4024 135.296 16.0921C135.295 15.9478 135.192 15.7831 134.984 15.619C132.453 13.5049 130.977 11.735 130.001 10.6869C129.398 10.0293 129.004 9.63823 128.653 9.64008Z" fill="#1F1715"/>
<path d="M161.752 6.82618C161.796 7.21853 161.901 7.65282 161.902 7.89957C161.904 8.12659 161.802 8.39617 161.596 8.39678C161.348 8.39802 161.118 7.90451 161.034 7.75954C159.721 5.47397 157.96 4.2846 156.163 4.29386C153.539 4.30743 151.626 5.804 151.649 10.3073C151.665 13.4886 153.704 16.4731 156.493 16.4589C158.228 16.4503 159.835 15.5527 160.924 14.4534C161.171 14.2042 161.479 13.7896 161.809 13.7878C161.974 13.7865 162.037 13.8896 162.037 14.0759C162.04 14.6958 159.827 18.0949 155.49 18.1171C152.019 18.1344 148.33 15.6539 148.307 11.2536C148.278 5.49062 152.13 3.38456 155.682 3.36729C157.955 3.35495 159.696 4.44068 160.253 4.43821C160.769 4.43513 160.58 3.79603 161.158 3.79294C161.345 3.79294 161.407 3.91571 161.429 4.01873L161.752 6.82618Z" fill="#1F1715"/>
<path d="M174.674 12.9371C174.688 15.6224 172.594 18.0295 169.661 18.0437C166.851 18.0591 164.28 16.2331 164.264 13.2998C164.251 10.4701 166.472 8.51646 169.467 8.50104C171.884 8.48932 174.66 10.0661 174.674 12.9371ZM167.052 12.9143C167.065 15.3306 168.335 17.2245 169.718 17.2183C171.475 17.2084 171.9 15.5749 171.89 13.8396C171.877 11.216 170.773 9.32089 169.223 9.32952C167.468 9.33878 167.042 10.9723 167.052 12.9143Z" fill="#1F1715"/>
<path d="M176.654 15.9843C176.649 15.0134 177.388 14.2657 178.318 14.2608C179.31 14.2558 179.996 15.0788 180 15.9671C180.005 16.9171 179.327 17.6432 178.335 17.6487C177.509 17.653 176.659 16.996 176.654 15.9843Z" fill="#1F1715"/>
<path d="M20.1994 0.439453C13.4506 1.31173 6.72162 2.66087 0 0.892249V3.10873C6.72162 4.87858 13.4506 3.52883 20.1994 2.65532V0.439453Z" fill="#23AEC4"/>
<path d="M22.3394 0.16752V2.38523C26.1104 2.0663 29.7766 2.14403 33.4384 3.10946V0.89298C29.7759 -0.0730668 26.1116 -0.149561 22.3394 0.16752Z" fill="#003E63"/>
<path d="M26.1986 4.57812C17.4086 4.78417 8.73514 7.79211 0 5.49667V7.71377C8.73514 10.0098 17.4086 7.00188 26.1986 6.79461V4.57812Z" fill="#23AEC4"/>
<path d="M28.3394 6.85711C30.0808 6.99344 31.7582 7.26857 33.4386 7.71458V5.49748C31.7582 5.05024 30.0808 4.77634 28.3394 4.64062V6.85711Z" fill="#003E63"/>
<path d="M10.8215 10.8508C7.14418 11.1445 3.5687 11.0445 0 10.1025V12.3196C3.56747 13.261 7.14418 13.3616 10.8215 13.0673C10.8221 12.3283 10.8221 11.5905 10.8215 10.8508Z" fill="#23AEC4"/>
<path d="M12.9614 12.806C19.8033 11.9393 26.6218 10.526 33.4384 12.3193V10.1022C26.6212 8.30951 19.8052 9.72342 12.9614 10.5895C12.962 11.3279 12.962 12.0664 12.9614 12.806Z" fill="#003E63"/>
<path d="M18.6356 14.4609C12.4013 15.3289 6.19726 16.335 0 14.7065V16.9229C6.19726 18.5503 12.4013 17.5448 18.6356 16.6768V14.4609Z" fill="#23AEC4"/>
<path d="M20.7756 16.3627C25.0618 15.892 29.2535 15.8204 33.4385 16.9234V14.7063C29.2529 13.6052 25.0618 13.6755 20.7756 14.1468C20.7769 14.8846 20.7756 15.6243 20.7756 16.3627Z" fill="#003E63"/>
<path d="M7.38354 22.4457C16.1236 22.2064 24.7514 19.2434 33.4384 21.5284V19.3107C24.7508 17.027 16.1249 19.9899 7.38354 20.228C7.38416 20.967 7.38354 21.7061 7.38354 22.4457Z" fill="#003E63"/>
<path d="M5.24305 20.1776C3.45161 20.0456 1.72925 19.7705 0.000732422 19.3115V21.5286C1.72925 21.9864 3.45161 22.2627 5.24305 22.3947V20.1776Z" fill="#23AEC4"/>
</g>
<defs>
<clipPath id="clip0_37_1451">
<rect width="180" height="22.4461" fill="white"/>
</clipPath>
</defs>
</svg>
