<svg width="144" height="25" viewBox="0 0 144 25" fill="none" xmlns="http://www.w3.org/2000/svg">
<g clip-path="url(#clip0_37_1435)">
<path d="M18.9091 9.98735L24.3405 0.790574H14.5961L12.7105 3.78715C11.3644 2.87655 7.00934 0.039161 3.9509 -0.000430464C0.483346 -0.0441461 0.614493 2.54662 1.27353 4.21441C1.93173 5.8822 2.85389 7.11119 3.90718 8.341C4.96048 9.56999 7.50671 11.8523 7.50671 11.8523L0 24.0555H10.7549L15.2757 16.1537C15.2757 16.1537 15.7153 16.3731 17.9094 16.4177C21.0693 16.4812 20.5876 13.6957 20.4119 12.9938C20.2659 12.4115 19.8469 11.3755 18.9082 9.98817L18.9091 9.98735ZM16.8676 15.2761C14.5301 15.046 11.6655 13.9589 7.81354 10.8971C3.96162 7.83538 2.94049 5.56382 2.48024 4.64167C2.01917 3.72034 1.34199 0.303929 5.31186 1.25165C8.31174 1.9676 11.3108 3.94717 12.214 4.57816L8.60455 10.3165C12.7749 13.8277 16.3307 14.3548 16.3307 14.3548L18.3449 10.945C18.6006 11.3541 19.0864 12.2135 19.206 13.0054C19.371 14.0917 19.206 15.5079 16.8693 15.2769L16.8676 15.2761Z" fill="#E0361E"/>
<path d="M32.4756 9.35558V7.57561C32.022 6.924 31.7019 6.51406 31.4759 6.2559V5.40468H32.4633V4.30766H31.4759V2.18457H30.3781V4.30766H29.0246V5.40468H30.3534C30.2024 6.06454 29.8213 7.13516 28.8423 8.30723V10.0633C28.8423 10.0633 29.7182 9.18814 30.3789 8.11999V12.9419H31.4768V7.92534C31.8933 8.51673 32.4756 9.35558 32.4756 9.35558Z" fill="#1F1715"/>
<path d="M37.7002 8.07463H39.2311V7.08814H36.4869V5.22074H38.902V4.19796H36.4869V2.18457H35.2447V4.19796H34.3696C34.6088 3.37561 34.5486 2.67287 34.5486 2.67287H33.4021C33.5233 4.08826 32.8164 4.6978 32.8164 4.6978V6.23445C33.3006 5.96226 33.6511 5.60511 33.9044 5.22157H35.2439V7.08897H32.6094V8.07545H34.104C34.0157 8.63963 33.6421 9.92553 32.084 11.43V12.9172C32.084 12.9172 34.9445 11.6247 35.2134 8.07545H35.2431V12.9419H36.4852V8.07545H36.5751C37.0907 11.8507 39.3762 12.9658 39.3762 12.9658V11.3574C38.1662 10.069 37.7959 8.58602 37.6986 8.07628L37.7002 8.07463Z" fill="#1F1715"/>
<path d="M44.2609 8.29412H46.0895V7.2334H40.8206V8.29412H42.7597V11.3946C41.7526 11.5076 40.8486 11.5942 40.5764 11.5761V12.8438C40.5764 12.8438 42.6995 12.7209 46.2603 12.0149V10.9657C46.2603 10.9657 45.353 11.0861 44.2601 11.2189V8.29495L44.2609 8.29412Z" fill="#1F1715"/>
<path d="M49.4309 11.4284C48.9186 11.1116 48.6258 9.5989 48.4551 7.77027C48.3949 7.12608 48.3561 6.24187 48.3306 5.36839H50.7357V4.34396H48.3075C48.2852 3.15291 48.2852 2.18457 48.2852 2.18457H46.8219C46.798 2.92031 46.8005 3.65193 46.817 4.34396H40.4197V5.36839H46.8533C46.8954 6.33343 46.9564 7.16073 46.9927 7.72078C47.0661 8.84336 47.4562 11.1355 47.6756 11.6973C47.895 12.2581 48.2126 12.5988 48.8956 12.8182C49.5793 13.0392 51.1638 12.9889 51.1638 12.9889V11.5752C51.1638 11.5752 49.9447 11.7443 49.4325 11.4284H49.4309Z" fill="#1F1715"/>
<path d="M50.5043 3.74719L49.8212 2.18457H48.5779L49.2354 3.74719H50.5043Z" fill="#1F1715"/>
<path d="M29.2079 20.5295H31.8489C31.6485 21.0483 31.0324 22.6245 30.7684 23.0906L29.353 23.1153V24.4078C29.353 24.4078 32.7678 24.4078 33.5736 24.3583C34.3778 24.3105 36.1586 24.0902 36.8168 23.7496C36.8168 23.7496 36.9637 23.9682 37.1583 24.4812H38.841C38.841 24.4812 37.72 22.4818 36.8168 21.285H35.4509C35.4509 21.285 35.8658 21.822 36.2073 22.6509C36.2073 22.6509 33.9877 23.0402 32.2564 23.0171C32.2564 23.0171 33.1282 21.5143 33.5035 20.5287H39.194V19.4316H29.207V20.5287L29.2079 20.5295Z" fill="#1F1715"/>
<path d="M34.72 13.7246H33.4027C32.0377 15.6761 28.7681 16.5793 28.7681 16.5793V17.9444C29.5434 17.7753 30.2379 17.5378 30.8532 17.2746V18.1531H37.1095V17.2647C38.03 17.6582 39.5238 17.9691 39.5238 17.9691V16.3847C35.9383 15.8733 34.7192 13.7254 34.7192 13.7254L34.72 13.7246ZM34.1344 15.1153C34.8767 15.9665 35.7947 16.5826 36.6088 17.0181H31.4133C33.1858 16.1446 34.1344 15.1153 34.1344 15.1153Z" fill="#1F1715"/>
<path d="M48.3378 22.9082V17.7126H50.5689V16.4317H48.3378V13.7246H46.9109V16.4317H44.8983V17.7126H46.9109V22.9082H44.0933V24.1891H51.044V22.9082H48.3378Z" fill="#1F1715"/>
<path d="M45.0699 21.7237V20.018L43.6545 18.822C44.6303 17.188 44.7771 15.578 44.7771 15.578H43.252V13.7246H41.8251V15.578H40.4715V16.8474H42.9963C41.9463 19.6031 40.1177 20.8956 40.1177 20.8956V22.3589C40.4303 22.2393 41.1446 21.6578 41.7888 21.0985V24.5182H43.252V20.1129C44.1989 20.7925 45.0699 21.7237 45.0699 21.7237Z" fill="#1F1715"/>
<path d="M75.0869 5.97971H63.1105L62.5628 2.62598H56.9507L57.5537 6.28654H54.1793L54.1455 10.1187H58.1855L60.476 24.012H66.0535L63.7522 9.91494H69.6794C70.2609 14.9101 66.1896 14.6709 66.1896 14.6709L66.9088 18.1607C66.9088 18.1607 67.5926 18.4345 69.9532 18.0246C72.3139 17.6138 74.9484 14.774 75.0506 11.7287C75.1537 8.68348 75.0853 5.98053 75.0853 5.98053L75.0869 5.97971Z" fill="#1F1715"/>
<path d="M76.7977 5.08984V9.09271H91.7856C91.7856 9.09271 92.4347 15.0471 85.6596 16.1755L84.1196 13.4733H78.6115L84.4966 23.4644H89.9363L87.8149 19.8377C87.8149 19.8377 95.9921 19.2553 97.3259 11.2488C97.6261 9.45151 97.429 5.08984 97.429 5.08984H76.7977Z" fill="#1F1715"/>
<path d="M120.936 6.69716H117.995V3.0366H112.555C112.555 3.0366 112.562 4.63263 112.567 6.69798H107.765V3.00195H102.494V6.69716H99.4827V10.7355H102.494V15.1491H107.765V10.7355H112.568C112.565 11.7088 112.562 12.6408 112.555 13.4393C112.521 17.1691 108.654 20.1797 105.951 20.1797H102.7L103.42 23.7726C103.42 23.7726 105.815 23.978 108.585 23.8065C111.358 23.6349 117.995 21.0689 117.995 13.5762V10.7355H120.936V6.69716Z" fill="#1F1715"/>
<path d="M144 15.6289H136.678L136.059 10.3253H143.281V6.69771H135.635L135.172 2.72949H129.287L129.8 7.07466H123.23V10.6676H130.225L130.866 16.0735H122.579V19.5641H131.28L131.818 24.1147H137.67L137.102 19.2556H144V15.6289Z" fill="#1F1715"/>
</g>
<defs>
<clipPath id="clip0_37_1435">
<rect width="144" height="24.517" fill="white"/>
</clipPath>
</defs>
</svg>
