<?xml version="1.0" encoding="UTF-8"?><svg id="_レイヤー_1" xmlns="http://www.w3.org/2000/svg" viewBox="0 0 400 400"><defs><style>.cls-1{fill:#801421;}</style></defs><rect class="cls-1" x="82.519" y="16.038" width="40.071" height="18.214" rx=".309" ry=".309"/><rect class="cls-1" x="82.519" y="37.895" width="40.071" height="18.214" rx=".309" ry=".309"/><rect class="cls-1" x="82.519" y="365.748" width="40.071" height="18.214" rx=".309" ry=".309"/><rect class="cls-1" x="159.018" y="26.966" width="40.071" height="18.214" rx=".309" ry=".309" transform="translate(215.127 -142.981) rotate(90)"/><rect class="cls-1" x="183.336" y="29.706" width="40.071" height="18.214" rx=".309" ry=".309" transform="translate(286.466 -150.823) rotate(102.857)"/><rect class="cls-1" x="206.435" y="37.789" width="40.071" height="18.214" rx=".309" ry=".309" transform="translate(366.984 -136.8) rotate(115.714)"/><rect class="cls-1" x="227.156" y="50.809" width="40.071" height="18.214" rx=".309" ry=".309" transform="translate(448.157 -95.99) rotate(128.571)"/><rect class="cls-1" x="244.46" y="68.113" width="40.071" height="18.214" rx=".309" ry=".309" transform="translate(519.433 -27.318) rotate(141.429)"/><rect class="cls-1" x="257.48" y="88.834" width="40.071" height="18.214" rx=".309" ry=".309" transform="translate(570.044 65.773) rotate(154.286)"/><rect class="cls-1" x="265.563" y="111.933" width="40.071" height="18.214" rx=".309" ry=".309" transform="translate(590.97 175.493) rotate(167.143)"/><rect class="cls-1" x="268.303" y="136.251" width="40.071" height="18.214" rx=".309" ry=".309" transform="translate(576.677 290.715) rotate(180)"/><rect class="cls-1" x="265.563" y="160.569" width="40.071" height="18.214" rx=".309" ry=".309" transform="translate(526.28 398.649) rotate(-167.143)"/><rect class="cls-1" x="257.48" y="183.667" width="40.071" height="18.214" rx=".309" ry=".309" transform="translate(443.907 486.868) rotate(-154.286)"/><rect class="cls-1" x="244.46" y="204.388" width="40.071" height="18.214" rx=".309" ry=".309" transform="translate(338.175 545.324) rotate(-141.429)"/><rect class="cls-1" x="227.156" y="221.693" width="40.071" height="18.214" rx=".309" ry=".309" transform="translate(220.866 567.963) rotate(-128.571)"/><rect class="cls-1" x="206.435" y="234.713" width="40.071" height="18.214" rx=".309" ry=".309" transform="translate(105.059 553.652) rotate(-115.714)"/><rect class="cls-1" x="183.336" y="242.795" width="40.071" height="18.214" rx=".309" ry=".309" transform="translate(3.04 506.229) rotate(-102.857)"/><rect class="cls-1" x="159.018" y="245.737" width="40.071" height="18.214" rx=".309" ry=".309" transform="translate(433.898 75.791) rotate(90)"/><rect class="cls-1" x="126.233" y="16.038" width="40.071" height="18.214" rx=".309" ry=".309"/><rect class="cls-1" x="126.233" y="37.895" width="40.071" height="18.214" rx=".309" ry=".309"/><rect class="cls-1" x="126.233" y="59.752" width="40.071" height="18.214" rx=".309" ry=".309"/><rect class="cls-1" x="126.233" y="81.608" width="40.071" height="18.214" rx=".309" ry=".309"/><rect class="cls-1" x="126.233" y="103.465" width="40.071" height="18.214" rx=".309" ry=".309"/><rect class="cls-1" x="126.233" y="125.322" width="40.071" height="18.214" rx=".309" ry=".309"/><rect class="cls-1" x="126.233" y="147.179" width="40.071" height="18.214" rx=".309" ry=".309"/><rect class="cls-1" x="126.233" y="169.036" width="40.071" height="18.214" rx=".309" ry=".309"/><rect class="cls-1" x="126.233" y="190.893" width="40.071" height="18.214" rx=".309" ry=".309"/><rect class="cls-1" x="126.233" y="212.75" width="40.071" height="18.214" rx=".309" ry=".309"/><rect class="cls-1" x="126.233" y="234.607" width="40.071" height="18.214" rx=".309" ry=".309"/><rect class="cls-1" x="126.233" y="256.464" width="40.071" height="18.214" rx=".309" ry=".309"/><rect class="cls-1" x="126.233" y="278.321" width="40.071" height="18.214" rx=".309" ry=".309"/><rect class="cls-1" x="126.233" y="300.177" width="40.071" height="18.214" rx=".309" ry=".309"/><rect class="cls-1" x="126.233" y="322.034" width="40.071" height="18.214" rx=".309" ry=".309"/><rect class="cls-1" x="126.233" y="343.891" width="40.071" height="18.214" rx=".309" ry=".309"/><rect class="cls-1" x="126.233" y="365.748" width="40.071" height="18.214" rx=".309" ry=".309"/><rect class="cls-1" x="277.41" y="365.748" width="40.071" height="18.214" rx=".309" ry=".309"/><rect class="cls-1" x="82.519" y="343.891" width="40.071" height="18.214" rx=".309" ry=".309"/><rect class="cls-1" x="277.41" y="343.891" width="40.071" height="18.214" rx=".309" ry=".309"/><rect class="cls-1" x="233.696" y="278.321" width="40.071" height="18.214" rx=".309" ry=".309"/><rect class="cls-1" x="233.696" y="300.177" width="40.071" height="18.214" rx=".309" ry=".309"/><rect class="cls-1" x="233.696" y="322.034" width="40.071" height="18.214" rx=".309" ry=".309"/><rect class="cls-1" x="233.696" y="343.891" width="40.071" height="18.214" rx=".309" ry=".309"/><rect class="cls-1" x="233.696" y="365.748" width="40.071" height="18.214" rx=".309" ry=".309"/></svg>