<?xml version="1.0" encoding="UTF-8"?><svg id="_レイヤー_1" xmlns="http://www.w3.org/2000/svg" viewBox="0 0 264.197 82"><defs><style>.cls-1{fill:#8c0822;}</style></defs><rect class="cls-1" x="116.92" y="2.299" width="8.43" height="3.832" rx=".309" ry=".309"/><rect class="cls-1" x="116.92" y="75.869" width="8.43" height="3.832" rx=".309" ry=".309"/><rect class="cls-1" x="135.312" y="2.299" width="8.43" height="3.832" rx=".309" ry=".309"/><rect class="cls-1" x="135.312" y="75.869" width="8.43" height="3.832" rx=".309" ry=".309"/><rect class="cls-1" x="126.116" y="2.299" width="8.43" height="3.832" rx=".309" ry=".309"/><rect class="cls-1" x="126.116" y="6.897" width="8.43" height="3.832" rx=".309" ry=".309"/><rect class="cls-1" x="126.116" y="11.495" width="8.43" height="3.832" rx=".309" ry=".309"/><rect class="cls-1" x="126.116" y="16.093" width="8.43" height="3.832" rx=".309" ry=".309"/><rect class="cls-1" x="126.116" y="20.692" width="8.43" height="3.832" rx=".309" ry=".309"/><rect class="cls-1" x="126.116" y="25.29" width="8.43" height="3.832" rx=".309" ry=".309"/><rect class="cls-1" x="126.116" y="29.888" width="8.43" height="3.832" rx=".309" ry=".309"/><rect class="cls-1" x="126.116" y="34.486" width="8.43" height="3.832" rx=".309" ry=".309"/><rect class="cls-1" x="126.116" y="39.084" width="8.43" height="3.832" rx=".309" ry=".309"/><rect class="cls-1" x="126.116" y="43.682" width="8.43" height="3.832" rx=".309" ry=".309"/><rect class="cls-1" x="126.116" y="48.28" width="8.43" height="3.832" rx=".309" ry=".309"/><rect class="cls-1" x="126.116" y="52.879" width="8.43" height="3.832" rx=".309" ry=".309"/><rect class="cls-1" x="126.116" y="57.477" width="8.43" height="3.832" rx=".309" ry=".309"/><rect class="cls-1" x="126.116" y="62.075" width="8.43" height="3.832" rx=".309" ry=".309"/><rect class="cls-1" x="126.116" y="66.673" width="8.43" height="3.832" rx=".309" ry=".309"/><rect class="cls-1" x="126.116" y="71.271" width="8.43" height="3.832" rx=".309" ry=".309"/><rect class="cls-1" x="126.116" y="75.869" width="8.43" height="3.832" rx=".309" ry=".309"/><rect class="cls-1" x="209.744" y="25.29" width="8.43" height="3.832" rx=".309" ry=".309"/><rect class="cls-1" x="210.32" y="20.174" width="8.43" height="3.832" rx=".309" ry=".309" transform="translate(10.294 -47.185) rotate(12.857)"/><rect class="cls-1" x="212.021" y="15.314" width="8.43" height="3.832" rx=".309" ry=".309" transform="translate(28.89 -92.115) rotate(25.714)"/><rect class="cls-1" x="214.76" y="10.955" width="8.43" height="3.832" rx=".309" ry=".309" transform="translate(55.798 -133.72) rotate(38.571)"/><rect class="cls-1" x="218.4" y="7.315" width="8.43" height="3.832" rx=".309" ry=".309" transform="translate(91.034 -170.572) rotate(51.429)"/><rect class="cls-1" x="222.759" y="4.576" width="8.43" height="3.832" rx=".309" ry=".309" transform="translate(134.343 -200.821) rotate(64.286)"/><rect class="cls-1" x="227.618" y="2.875" width="8.43" height="3.832" rx=".309" ry=".309" transform="translate(184.917 -222.296) rotate(77.143)"/><rect class="cls-1" x="232.734" y="2.299" width="8.43" height="3.832" rx=".309" ry=".309" transform="translate(241.164 -232.734) rotate(90)"/><rect class="cls-1" x="237.85" y="2.875" width="8.43" height="3.832" rx=".309" ry=".309" transform="translate(300.601 -230.139) rotate(102.857)"/><rect class="cls-1" x="242.71" y="4.576" width="8.43" height="3.832" rx=".309" ry=".309" transform="translate(359.91 -213.163) rotate(115.714)"/><rect class="cls-1" x="247.069" y="7.315" width="8.43" height="3.832" rx=".309" ry=".309" transform="translate(415.174 -181.475) rotate(128.571)"/><rect class="cls-1" x="250.709" y="10.955" width="8.43" height="3.832" rx=".309" ry=".309" transform="translate(462.257 -136.008) rotate(141.429)"/><rect class="cls-1" x="253.448" y="15.314" width="8.43" height="3.832" rx=".309" ry=".309" transform="translate(497.286 -79.042) rotate(154.286)"/><rect class="cls-1" x="255.149" y="20.174" width="8.43" height="3.832" rx=".309" ry=".309" transform="translate(517.14 -14.088) rotate(167.143)"/><rect class="cls-1" x="255.768" y="25.29" width="8.43" height="3.832" rx=".309" ry=".309"/><rect class="cls-1" x="255.768" y="52.879" width="8.43" height="3.832" rx=".309" ry=".309" transform="translate(519.965 109.589) rotate(-180)"/><rect class="cls-1" x="255.191" y="57.994" width="8.43" height="3.832" rx=".309" ry=".309" transform="translate(498.977 176.042) rotate(-167.143)"/><rect class="cls-1" x="253.491" y="62.854" width="8.43" height="3.832" rx=".309" ry=".309" transform="translate(461.788 234.939) rotate(-154.286)"/><rect class="cls-1" x="250.752" y="67.213" width="8.43" height="3.832" rx=".309" ry=".309" transform="translate(411.207 282.145) rotate(-141.429)"/><rect class="cls-1" x="247.111" y="70.853" width="8.43" height="3.832" rx=".309" ry=".309" transform="translate(351.132 314.635) rotate(-128.571)"/><rect class="cls-1" x="242.752" y="73.592" width="8.43" height="3.832" rx=".309" ry=".309" transform="translate(286.092 330.78) rotate(-115.714)"/><rect class="cls-1" x="237.893" y="75.293" width="8.43" height="3.832" rx=".309" ry=".309" transform="translate(220.709 330.427) rotate(-102.857)"/><rect class="cls-1" x="232.777" y="75.869" width="8.43" height="3.832" rx=".309" ry=".309" transform="translate(159.207 314.777) rotate(-90)"/><rect class="cls-1" x="227.661" y="75.293" width="8.43" height="3.832" rx=".309" ry=".309" transform="translate(105.006 286.09) rotate(-77.143)"/><rect class="cls-1" x="222.802" y="73.592" width="8.43" height="3.832" rx=".309" ry=".309" transform="translate(60.487 247.281) rotate(-64.286)"/><rect class="cls-1" x="218.442" y="70.853" width="8.43" height="3.832" rx=".309" ry=".309" transform="translate(26.94 201.479) rotate(-51.429)"/><rect class="cls-1" x="214.802" y="67.213" width="8.43" height="3.832" rx=".309" ry=".309" transform="translate(4.682 151.637) rotate(-38.571)"/><rect class="cls-1" x="212.063" y="62.854" width="8.43" height="3.832" rx=".309" ry=".309" transform="translate(-6.684 100.254) rotate(-25.714)"/><rect class="cls-1" x="210.363" y="57.994" width="8.43" height="3.832" rx=".309" ry=".309" transform="translate(-7.951 49.25) rotate(-12.857)"/><rect class="cls-1" x="209.744" y="52.879" width="8.43" height="3.832" rx=".309" ry=".309" transform="translate(427.917 109.589) rotate(-180)"/><rect class="cls-1" x="209.744" y="29.888" width="8.43" height="3.832" rx=".309" ry=".309"/><rect class="cls-1" x="209.744" y="34.486" width="8.43" height="3.832" rx=".309" ry=".309"/><rect class="cls-1" x="209.744" y="39.084" width="8.43" height="3.832" rx=".309" ry=".309"/><rect class="cls-1" x="209.744" y="43.682" width="8.43" height="3.832" rx=".309" ry=".309"/><rect class="cls-1" x="209.744" y="48.28" width="8.43" height="3.832" rx=".309" ry=".309"/><rect class="cls-1" x="255.768" y="29.888" width="8.43" height="3.832" rx=".309" ry=".309"/><rect class="cls-1" x="255.768" y="34.486" width="8.43" height="3.832" rx=".309" ry=".309"/><rect class="cls-1" x="255.768" y="39.084" width="8.43" height="3.832" rx=".309" ry=".309"/><rect class="cls-1" x="255.768" y="43.682" width="8.43" height="3.832" rx=".309" ry=".309"/><rect class="cls-1" x="255.768" y="48.28" width="8.43" height="3.832" rx=".309" ry=".309"/><rect class="cls-1" x="153.055" y="2.299" width="8.43" height="3.832" rx=".309" ry=".309"/><rect class="cls-1" x="116.92" y="6.897" width="8.43" height="3.832" rx=".309" ry=".309"/><rect class="cls-1" x="135.312" y="6.897" width="8.43" height="3.832" rx=".309" ry=".309"/><rect class="cls-1" x="153.055" y="6.897" width="8.43" height="3.832" rx=".309" ry=".309"/><rect class="cls-1" x="153.055" y="75.869" width="8.43" height="3.832" rx=".309" ry=".309"/><rect class="cls-1" x="169.149" y="4.598" width="8.43" height="3.832" rx=".309" ry=".309" transform="translate(179.878 -166.85) rotate(90)"/><rect class="cls-1" x="174.265" y="5.175" width="8.43" height="3.832" rx=".309" ry=".309" transform="translate(225.108 -165.337) rotate(102.857)"/><rect class="cls-1" x="179.124" y="6.875" width="8.43" height="3.832" rx=".309" ry=".309" transform="translate(270.807 -152.578) rotate(115.714)"/><rect class="cls-1" x="183.483" y="9.614" width="8.43" height="3.832" rx=".309" ry=".309" transform="translate(313.741 -128.03) rotate(128.571)"/><rect class="cls-1" x="187.124" y="13.254" width="8.43" height="3.832" rx=".309" ry=".309" transform="translate(350.392 -92.267) rotate(141.429)"/><rect class="cls-1" x="189.863" y="17.614" width="8.43" height="3.832" rx=".309" ry=".309" transform="translate(377.409 -47.082) rotate(154.286)"/><rect class="cls-1" x="191.563" y="22.473" width="8.43" height="3.832" rx=".309" ry=".309" transform="translate(392.075 4.601) rotate(167.143)"/><rect class="cls-1" x="192.14" y="27.589" width="8.43" height="3.832" rx=".309" ry=".309" transform="translate(392.709 59.009) rotate(180)"/><rect class="cls-1" x="191.563" y="32.705" width="8.43" height="3.832" rx=".309" ry=".309" transform="translate(378.944 111.938) rotate(-167.143)"/><rect class="cls-1" x="189.863" y="37.564" width="8.43" height="3.832" rx=".309" ry=".309" transform="translate(351.806 159.257) rotate(-154.286)"/><rect class="cls-1" x="187.124" y="41.923" width="8.43" height="3.832" rx=".309" ry=".309" transform="translate(313.6 197.412) rotate(-141.429)"/><rect class="cls-1" x="183.483" y="45.564" width="8.43" height="3.832" rx=".309" ry=".309" transform="translate(267.605 223.831) rotate(-128.571)"/><rect class="cls-1" x="179.124" y="48.303" width="8.43" height="3.832" rx=".309" ry=".309" transform="translate(217.642 237.19) rotate(-115.714)"/><rect class="cls-1" x="174.265" y="50.003" width="8.43" height="3.832" rx=".309" ry=".309" transform="translate(167.578 237.477) rotate(-102.857)"/><rect class="cls-1" x="169.149" y="50.622" width="8.43" height="3.832" rx=".309" ry=".309" transform="translate(225.902 -120.826) rotate(90)"/><rect class="cls-1" x="162.252" y="2.299" width="8.43" height="3.832" rx=".309" ry=".309"/><rect class="cls-1" x="162.252" y="6.897" width="8.43" height="3.832" rx=".309" ry=".309"/><rect class="cls-1" x="162.252" y="11.495" width="8.43" height="3.832" rx=".309" ry=".309"/><rect class="cls-1" x="162.252" y="16.093" width="8.43" height="3.832" rx=".309" ry=".309"/><rect class="cls-1" x="162.252" y="20.692" width="8.43" height="3.832" rx=".309" ry=".309"/><rect class="cls-1" x="162.252" y="25.29" width="8.43" height="3.832" rx=".309" ry=".309"/><rect class="cls-1" x="162.252" y="29.888" width="8.43" height="3.832" rx=".309" ry=".309"/><rect class="cls-1" x="162.252" y="34.486" width="8.43" height="3.832" rx=".309" ry=".309"/><rect class="cls-1" x="162.252" y="39.084" width="8.43" height="3.832" rx=".309" ry=".309"/><rect class="cls-1" x="162.252" y="43.682" width="8.43" height="3.832" rx=".309" ry=".309"/><rect class="cls-1" x="162.252" y="48.28" width="8.43" height="3.832" rx=".309" ry=".309"/><rect class="cls-1" x="162.252" y="52.879" width="8.43" height="3.832" rx=".309" ry=".309"/><rect class="cls-1" x="162.252" y="57.477" width="8.43" height="3.832" rx=".309" ry=".309"/><rect class="cls-1" x="162.252" y="62.075" width="8.43" height="3.832" rx=".309" ry=".309"/><rect class="cls-1" x="162.252" y="66.673" width="8.43" height="3.832" rx=".309" ry=".309"/><rect class="cls-1" x="162.252" y="71.271" width="8.43" height="3.832" rx=".309" ry=".309"/><rect class="cls-1" x="162.252" y="75.869" width="8.43" height="3.832" rx=".309" ry=".309"/><rect class="cls-1" x="194.055" y="75.869" width="8.43" height="3.832" rx=".309" ry=".309"/><rect class="cls-1" x="116.92" y="71.271" width="8.43" height="3.832" rx=".309" ry=".309"/><rect class="cls-1" x="135.312" y="71.271" width="8.43" height="3.832" rx=".309" ry=".309"/><rect class="cls-1" x="153.055" y="71.271" width="8.43" height="3.832" rx=".309" ry=".309"/><rect class="cls-1" x="194.055" y="71.271" width="8.43" height="3.832" rx=".309" ry=".309"/><rect class="cls-1" x="184.859" y="57.477" width="8.43" height="3.832" rx=".309" ry=".309"/><rect class="cls-1" x="184.859" y="62.075" width="8.43" height="3.832" rx=".309" ry=".309"/><rect class="cls-1" x="184.859" y="66.673" width="8.43" height="3.832" rx=".309" ry=".309"/><rect class="cls-1" x="184.859" y="71.271" width="8.43" height="3.832" rx=".309" ry=".309"/><rect class="cls-1" x="184.859" y="75.869" width="8.43" height="3.832" rx=".309" ry=".309"/><rect class="cls-1" x="56.688" y="25.29" width="8.43" height="3.832" rx=".309" ry=".309"/><rect class="cls-1" x="57.265" y="20.174" width="8.43" height="3.832" rx=".309" ry=".309" transform="translate(6.457 -13.127) rotate(12.857)"/><rect class="cls-1" x="58.965" y="15.314" width="8.43" height="3.832" rx=".309" ry=".309" transform="translate(13.733 -25.706) rotate(25.714)"/><rect class="cls-1" x="61.704" y="10.955" width="8.43" height="3.832" rx=".309" ry=".309" transform="translate(22.407 -38.292) rotate(38.571)"/><rect class="cls-1" x="65.345" y="7.315" width="8.43" height="3.832" rx=".309" ry=".309" transform="translate(33.407 -50.908) rotate(51.429)"/><rect class="cls-1" x="69.704" y="4.576" width="8.43" height="3.832" rx=".309" ry=".309" transform="translate(47.695 -62.923) rotate(64.286)"/><rect class="cls-1" x="74.563" y="2.875" width="8.43" height="3.832" rx=".309" ry=".309" transform="translate(65.92 -73.078) rotate(77.143)"/><rect class="cls-1" x="79.679" y="2.299" width="8.43" height="3.832" rx=".309" ry=".309" transform="translate(88.109 -79.679) rotate(90)"/><rect class="cls-1" x="84.795" y="2.875" width="8.43" height="3.832" rx=".309" ry=".309" transform="translate(113.488 -80.921) rotate(102.857)"/><rect class="cls-1" x="89.654" y="4.576" width="8.43" height="3.832" rx=".309" ry=".309" transform="translate(140.446 -75.265) rotate(115.714)"/><rect class="cls-1" x="94.013" y="7.315" width="8.43" height="3.832" rx=".309" ry=".309" transform="translate(166.69 -61.812) rotate(128.571)"/><rect class="cls-1" x="97.654" y="10.955" width="8.43" height="3.832" rx=".309" ry=".309" transform="translate(189.538 -40.58) rotate(141.429)"/><rect class="cls-1" x="100.393" y="15.314" width="8.43" height="3.832" rx=".309" ry=".309" transform="translate(206.332 -12.633) rotate(154.286)"/><rect class="cls-1" x="102.093" y="20.174" width="8.43" height="3.832" rx=".309" ry=".309" transform="translate(214.866 19.97) rotate(167.143)"/><rect class="cls-1" x="102.712" y="25.29" width="8.43" height="3.832" rx=".309" ry=".309"/><rect class="cls-1" x="102.712" y="52.879" width="8.43" height="3.832" rx=".309" ry=".309" transform="translate(213.854 109.589) rotate(-180)"/><rect class="cls-1" x="102.136" y="57.994" width="8.43" height="3.832" rx=".309" ry=".309" transform="translate(196.704 141.984) rotate(-167.143)"/><rect class="cls-1" x="100.435" y="62.854" width="8.43" height="3.832" rx=".309" ry=".309" transform="translate(170.834 168.531) rotate(-154.286)"/><rect class="cls-1" x="97.696" y="67.213" width="8.43" height="3.832" rx=".309" ry=".309" transform="translate(138.488 186.717) rotate(-141.429)"/><rect class="cls-1" x="94.056" y="70.853" width="8.43" height="3.832" rx=".309" ry=".309" transform="translate(102.649 194.971) rotate(-128.571)"/><rect class="cls-1" x="89.697" y="73.592" width="8.43" height="3.832" rx=".309" ry=".309" transform="translate(66.628 192.882) rotate(-115.714)"/><rect class="cls-1" x="84.837" y="75.293" width="8.43" height="3.832" rx=".309" ry=".309" transform="translate(33.596 181.209) rotate(-102.857)"/><rect class="cls-1" x="79.721" y="75.869" width="8.43" height="3.832" rx=".309" ry=".309" transform="translate(6.151 161.721) rotate(-90)"/><rect class="cls-1" x="74.606" y="75.293" width="8.43" height="3.832" rx=".309" ry=".309" transform="translate(-13.992 136.872) rotate(-77.143)"/><rect class="cls-1" x="69.746" y="73.592" width="8.43" height="3.832" rx=".309" ry=".309" transform="translate(-26.16 109.383) rotate(-64.286)"/><rect class="cls-1" x="65.387" y="70.853" width="8.43" height="3.832" rx=".309" ry=".309" transform="translate(-30.687 81.815) rotate(-51.429)"/><rect class="cls-1" x="61.747" y="67.213" width="8.43" height="3.832" rx=".309" ry=".309" transform="translate(-28.71 56.208) rotate(-38.571)"/><rect class="cls-1" x="59.008" y="62.854" width="8.43" height="3.832" rx=".309" ry=".309" transform="translate(-21.841 33.845) rotate(-25.714)"/><rect class="cls-1" x="57.307" y="57.994" width="8.43" height="3.832" rx=".309" ry=".309" transform="translate(-11.789 15.192) rotate(-12.857)"/><rect class="cls-1" x="56.688" y="52.879" width="8.43" height="3.832" rx=".309" ry=".309" transform="translate(121.807 109.589) rotate(-180)"/><rect class="cls-1" x="56.688" y="29.888" width="8.43" height="3.832" rx=".309" ry=".309"/><rect class="cls-1" x="56.688" y="34.486" width="8.43" height="3.832" rx=".309" ry=".309"/><rect class="cls-1" x="56.688" y="39.084" width="8.43" height="3.832" rx=".309" ry=".309"/><rect class="cls-1" x="56.688" y="43.682" width="8.43" height="3.832" rx=".309" ry=".309"/><rect class="cls-1" x="56.688" y="48.28" width="8.43" height="3.832" rx=".309" ry=".309"/><rect class="cls-1" x="102.712" y="29.888" width="8.43" height="3.832" rx=".309" ry=".309"/><rect class="cls-1" x="102.712" y="34.486" width="8.43" height="3.832" rx=".309" ry=".309"/><rect class="cls-1" x="102.712" y="39.084" width="8.43" height="3.832" rx=".309" ry=".309"/><rect class="cls-1" x="102.712" y="43.682" width="8.43" height="3.832" rx=".309" ry=".309"/><rect class="cls-1" x="102.712" y="48.28" width="8.43" height="3.832" rx=".309" ry=".309"/><rect class="cls-1" y="2.299" width="8.43" height="3.832" rx=".309" ry=".309"/><rect class="cls-1" y="6.897" width="8.43" height="3.832" rx=".309" ry=".309"/><rect class="cls-1" y="75.869" width="8.43" height="3.832" rx=".309" ry=".309"/><rect class="cls-1" x="16.093" y="4.598" width="8.43" height="3.832" rx=".309" ry=".309" transform="translate(26.822 -13.794) rotate(90)"/><rect class="cls-1" x="21.209" y="5.175" width="8.43" height="3.832" rx=".309" ry=".309" transform="translate(37.994 -16.119) rotate(102.857)"/><rect class="cls-1" x="26.069" y="6.875" width="8.43" height="3.832" rx=".309" ry=".309" transform="translate(51.344 -14.68) rotate(115.714)"/><rect class="cls-1" x="30.428" y="9.614" width="8.43" height="3.832" rx=".309" ry=".309" transform="translate(65.257 -8.366) rotate(128.571)"/><rect class="cls-1" x="34.068" y="13.254" width="8.43" height="3.832" rx=".309" ry=".309" transform="translate(77.673 3.162) rotate(141.429)"/><rect class="cls-1" x="36.807" y="17.614" width="8.43" height="3.832" rx=".309" ry=".309" transform="translate(86.456 19.326) rotate(154.286)"/><rect class="cls-1" x="38.508" y="22.473" width="8.43" height="3.832" rx=".309" ry=".309" transform="translate(89.801 38.659) rotate(167.143)"/><rect class="cls-1" x="39.084" y="27.589" width="8.43" height="3.832" rx=".309" ry=".309" transform="translate(86.598 59.009) rotate(180)"/><rect class="cls-1" x="38.508" y="32.705" width="8.43" height="3.832" rx=".309" ry=".309" transform="translate(76.67 77.88) rotate(-167.143)"/><rect class="cls-1" x="36.807" y="37.564" width="8.43" height="3.832" rx=".309" ry=".309" transform="translate(60.852 92.849) rotate(-154.286)"/><rect class="cls-1" x="34.068" y="41.923" width="8.43" height="3.832" rx=".309" ry=".309" transform="translate(40.881 101.983) rotate(-141.429)"/><rect class="cls-1" x="30.428" y="45.564" width="8.43" height="3.832" rx=".309" ry=".309" transform="translate(19.121 104.167) rotate(-128.571)"/><rect class="cls-1" x="26.069" y="48.303" width="8.43" height="3.832" rx=".309" ry=".309" transform="translate(-1.822 99.292) rotate(-115.714)"/><rect class="cls-1" x="21.209" y="50.003" width="8.43" height="3.832" rx=".309" ry=".309" transform="translate(-19.535 88.259) rotate(-102.857)"/><rect class="cls-1" x="16.093" y="50.622" width="8.43" height="3.832" rx=".309" ry=".309" transform="translate(72.846 32.229) rotate(90)"/><rect class="cls-1" x="9.196" y="2.299" width="8.43" height="3.832" rx=".309" ry=".309"/><rect class="cls-1" x="9.196" y="6.897" width="8.43" height="3.832" rx=".309" ry=".309"/><rect class="cls-1" x="9.196" y="11.495" width="8.43" height="3.832" rx=".309" ry=".309"/><rect class="cls-1" x="9.196" y="16.093" width="8.43" height="3.832" rx=".309" ry=".309"/><rect class="cls-1" x="9.196" y="20.692" width="8.43" height="3.832" rx=".309" ry=".309"/><rect class="cls-1" x="9.196" y="25.29" width="8.43" height="3.832" rx=".309" ry=".309"/><rect class="cls-1" x="9.196" y="29.888" width="8.43" height="3.832" rx=".309" ry=".309"/><rect class="cls-1" x="9.196" y="34.486" width="8.43" height="3.832" rx=".309" ry=".309"/><rect class="cls-1" x="9.196" y="39.084" width="8.43" height="3.832" rx=".309" ry=".309"/><rect class="cls-1" x="9.196" y="43.682" width="8.43" height="3.832" rx=".309" ry=".309"/><rect class="cls-1" x="9.196" y="48.28" width="8.43" height="3.832" rx=".309" ry=".309"/><rect class="cls-1" x="9.196" y="52.879" width="8.43" height="3.832" rx=".309" ry=".309"/><rect class="cls-1" x="9.196" y="57.477" width="8.43" height="3.832" rx=".309" ry=".309"/><rect class="cls-1" x="9.196" y="62.075" width="8.43" height="3.832" rx=".309" ry=".309"/><rect class="cls-1" x="9.196" y="66.673" width="8.43" height="3.832" rx=".309" ry=".309"/><rect class="cls-1" x="9.196" y="71.271" width="8.43" height="3.832" rx=".309" ry=".309"/><rect class="cls-1" x="9.196" y="75.869" width="8.43" height="3.832" rx=".309" ry=".309"/><rect class="cls-1" x="41" y="75.869" width="8.43" height="3.832" rx=".309" ry=".309"/><rect class="cls-1" y="71.271" width="8.43" height="3.832" rx=".309" ry=".309"/><rect class="cls-1" x="41" y="71.271" width="8.43" height="3.832" rx=".309" ry=".309"/><rect class="cls-1" x="31.804" y="57.477" width="8.43" height="3.832" rx=".309" ry=".309"/><rect class="cls-1" x="31.804" y="62.075" width="8.43" height="3.832" rx=".309" ry=".309"/><rect class="cls-1" x="31.804" y="66.673" width="8.43" height="3.832" rx=".309" ry=".309"/><rect class="cls-1" x="31.804" y="71.271" width="8.43" height="3.832" rx=".309" ry=".309"/><rect class="cls-1" x="31.804" y="75.869" width="8.43" height="3.832" rx=".309" ry=".309"/></svg>