<?xml version="1.0" encoding="UTF-8"?><svg id="_レイヤー_1" xmlns="http://www.w3.org/2000/svg" viewBox="0 0 400 400"><defs><style>.cls-1{fill:#801521;}</style></defs><path class="cls-1" d="M216.31,151.091h-32.713c-.378,0-.684.306-.684.684v8.815c0,.378.306.684.684.684h10.532v77.221h-10.532c-.378,0-.684.306-.684.684v8.814c0,.378.306.684.684.684h32.713c.378,0,.684-.306.684-.684v-8.814c0-.378-.306-.684-.684-.684h-10.532v-77.221h10.532c.378,0,.684-.306.684-.684v-8.815c0-.378-.306-.684-.684-.684Z"/><path class="cls-1" d="M141.584,149.508c-18.982,0-31.736,12.781-31.736,31.748v37.488c0,18.968,12.754,31.748,31.736,31.748s31.737-12.781,31.737-31.748v-37.488c0-18.968-12.754-31.748-31.737-31.748ZM161.671,181.258v37.483c0,12.904-8.26,21.233-20.087,21.233s-20.087-8.329-20.087-21.233v-37.483c0-12.904,8.26-21.233,20.087-21.233s20.087,8.329,20.087,21.233Z"/><path class="cls-1" d="M333.63,149.508c-18.982,0-31.736,12.781-31.736,31.748v37.488c0,18.968,12.754,31.748,31.736,31.748s31.737-12.781,31.737-31.748v-37.488c0-18.968-12.754-31.748-31.737-31.748ZM353.717,181.258v37.483c0,12.904-8.26,21.233-20.087,21.233s-20.087-8.329-20.087-21.233v-37.483c0-12.904,8.26-21.233,20.087-21.233s20.087,8.329,20.087,21.233Z"/><path class="cls-1" d="M99.11,238.495h-10.531v-20.055c0-.378-.306-.684-.684-.684h-10.281c-.378,0-.685.307-.685.685v29.551c0,.378.307.685.685.685h21.495c.378,0,.684-.306.684-.684v-8.814c0-.378-.306-.684-.684-.684Z"/><path class="cls-1" d="M96.523,184.955c0-20.255-15.111-33.864-37.602-33.864h-23.605c-.378,0-.684.306-.684.684v8.815c0,.378.306.684.684.684h10.531v77.221h-10.532c-.378,0-.684.306-.684.684v8.815c0,.378.306.684.684.684h21.495c.378,0,.685-.307.685-.685v-29.577h1.424c22.491,0,37.602-13.206,37.602-33.461ZM84.874,184.955c0,14.695-9.656,23.017-25.953,23.017h-1.424v-46.437h1.424c16.297,0,25.953,8.725,25.953,23.42Z"/><path class="cls-1" d="M291.157,238.495h-10.531v-20.055c0-.378-.306-.684-.684-.684h-10.281c-.378,0-.685.307-.685.685v29.551c0,.378.307.685.685.685h21.495c.378,0,.684-.306.684-.684v-8.814c0-.378-.306-.684-.684-.684Z"/><path class="cls-1" d="M288.57,184.955c0-20.255-15.111-33.864-37.602-33.864h-23.605c-.378,0-.684.306-.684.684v8.815c0,.378.306.684.684.684h10.531v77.221h-10.532c-.378,0-.684.306-.684.684v8.815c0,.378.306.684.684.684h21.495c.378,0,.685-.307.685-.685v-29.577h1.424c22.491,0,37.602-13.206,37.602-33.461ZM276.921,184.955c0,14.695-9.656,23.017-25.953,23.017h-1.424v-46.437h1.424c16.297,0,25.953,8.725,25.953,23.42Z"/></svg>